M48
; DRILL file {KiCad 7.0.7+dfsg-1} date Thu 08 Feb 2024 10:23:53 PM MST
; FORMAT={-:-/ absolute / metric / decimal}
; #@! TF.CreationDate,2024-02-08T22:23:53-07:00
; #@! TF.GenerationSoftware,Kicad,Pcbnew,7.0.7+dfsg-1
; #@! TF.FileFunction,Plated,1,2,PTH
FMAT,2
METRIC
; #@! TA.AperFunction,Plated,PTH,ComponentDrill
T1C0.300
; #@! TA.AperFunction,Plated,PTH,ComponentDrill
T2C0.900
; #@! TA.AperFunction,Plated,PTH,ComponentDrill
T3C0.991
; #@! TA.AperFunction,Plated,PTH,ComponentDrill
T4C1.092
%
G90
G05
T1
X129.835Y-111.872
X130.339Y-91.479
X131.199Y-71.097
X132.415Y-50.735
X151.879Y-108.891
X153.45Y-88.552
X155.376Y-68.244
X157.656Y-47.973
X174.458Y-102.094
X177.298Y-81.893
X180.137Y-61.692
X182.976Y-41.49
X196.995Y-102.265
X201.584Y-82.388
X206.173Y-62.511
X210.762Y-42.633
X217.94Y-110.201
X218.619Y-165.239
X223.762Y-90.65
X229.242Y-71.0
X231.178Y-149.163
X234.378Y-51.258
X234.694Y-177.798
X237.359Y-121.772
X244.197Y-102.553
X247.254Y-161.723
X250.698Y-83.217
X256.86Y-63.771
X261.905Y-134.412
X269.739Y-115.576
X277.243Y-96.608
X284.414Y-77.511
T3
X137.366Y-127.315
X137.499Y-119.697
X137.6Y-107.051
X137.866Y-99.436
X138.187Y-86.795
X138.586Y-79.185
X139.128Y-66.551
X139.66Y-58.95
X158.592Y-124.708
X159.124Y-117.106
X159.886Y-104.484
X160.55Y-96.893
X161.533Y-84.286
X162.329Y-76.707
X163.532Y-64.119
X164.46Y-56.556
X180.052Y-118.341
X181.112Y-110.795
X182.891Y-98.14
X183.951Y-90.594
X185.73Y-77.938
X186.791Y-70.392
X188.569Y-57.737
X189.63Y-50.191
X201.151Y-118.937
X202.865Y-111.512
X205.74Y-99.06
X207.454Y-91.635
X210.329Y-79.183
X212.043Y-71.758
X214.918Y-59.306
X215.339Y-182.105
X216.632Y-51.881
X220.031Y-176.101
X220.922Y-127.122
X223.15Y-119.835
X227.04Y-107.517
X227.899Y-166.03
X229.14Y-100.192
X231.415Y-194.665
X232.59Y-160.025
X232.813Y-87.808
X234.786Y-80.447
X236.106Y-188.66
X238.242Y-68.001
X239.453Y-138.826
X240.086Y-60.607
X242.059Y-131.666
X243.974Y-178.589
X246.587Y-119.568
X248.666Y-172.585
X249.068Y-112.363
X253.385Y-100.188
X255.739Y-92.941
X259.843Y-80.692
X262.071Y-73.405
X263.103Y-151.552
X266.08Y-144.538
X271.236Y-132.694
X274.09Y-125.628
X279.038Y-113.696
X281.769Y-106.582
X286.508Y-94.565
X289.114Y-87.405
T4
X171.319Y-152.155
X171.585Y-136.917
X173.859Y-152.199
X174.125Y-136.962
X176.398Y-152.244
X176.664Y-137.006
X178.938Y-152.288
X179.204Y-137.05
X181.478Y-152.332
X181.744Y-137.095
X184.017Y-152.377
X184.283Y-137.139
X186.557Y-152.421
X186.823Y-137.183
X189.096Y-152.465
X189.362Y-137.228
X191.636Y-152.51
X191.902Y-137.272
X194.176Y-152.554
X194.442Y-137.316
X196.715Y-152.598
X196.981Y-137.361
X199.255Y-152.643
X199.521Y-137.405
T2
X255.293Y-162.234G85X254.741Y-161.999
G05
X255.407Y-164.781G85X254.855Y-164.546
G05
X256.192Y-160.117G85X255.64Y-159.882
G05
X258.103Y-158.429G85X257.551Y-158.195
G05
X259.089Y-166.344G85X258.537Y-166.109
G05
X261.785Y-159.992G85X261.233Y-159.758
G05
X261.851Y-167.516G85X261.298Y-167.281
G05
X264.547Y-161.164G85X263.994Y-160.93
G05
T0
M30
