%TF.GenerationSoftware,KiCad,Pcbnew,7.0.7+dfsg-1*%
%TF.CreationDate,2024-02-08T22:24:17-07:00*%
%TF.ProjectId,Keyboard,4b657962-6f61-4726-942e-6b696361645f,v1.0.0*%
%TF.SameCoordinates,Original*%
%TF.FileFunction,Paste,Bot*%
%TF.FilePolarity,Positive*%
%FSLAX46Y46*%
G04 Gerber Fmt 4.6, Leading zero omitted, Abs format (unit mm)*
G04 Created by KiCad (PCBNEW 7.0.7+dfsg-1) date 2024-02-08 22:24:17*
%MOMM*%
%LPD*%
G01*
G04 APERTURE LIST*
G04 Aperture macros list*
%AMRotRect*
0 Rectangle, with rotation*
0 The origin of the aperture is its center*
0 $1 length*
0 $2 width*
0 $3 Rotation angle, in degrees counterclockwise*
0 Add horizontal line*
21,1,$1,$2,0,0,$3*%
G04 Aperture macros list end*
%ADD10RotRect,0.900000X1.200000X87.000000*%
%ADD11RotRect,0.900000X1.200000X86.000000*%
%ADD12C,2.000000*%
%ADD13RotRect,0.900000X1.200000X89.000000*%
%ADD14RotRect,0.900000X1.200000X88.000000*%
%ADD15RotRect,0.900000X1.200000X85.000000*%
%ADD16RotRect,0.900000X1.200000X84.000000*%
%ADD17RotRect,0.900000X1.200000X83.000000*%
%ADD18RotRect,0.900000X1.200000X82.000000*%
%ADD19RotRect,0.900000X1.200000X77.000000*%
%ADD20RotRect,0.900000X1.200000X73.000000*%
%ADD21RotRect,0.900000X1.200000X74.000000*%
%ADD22RotRect,0.900000X1.200000X75.000000*%
%ADD23RotRect,0.900000X1.200000X76.000000*%
%ADD24RotRect,0.900000X1.200000X70.000000*%
%ADD25RotRect,0.900000X1.200000X71.000000*%
%ADD26RotRect,0.900000X1.200000X72.000000*%
%ADD27RotRect,0.900000X1.200000X67.000000*%
%ADD28RotRect,0.900000X1.200000X68.000000*%
%ADD29RotRect,0.900000X1.200000X69.000000*%
%ADD30RotRect,0.900000X1.200000X52.000000*%
G04 APERTURE END LIST*
D10*
%TO.C,D3*%
X138473069Y-81342220D03*
X138300361Y-84637698D03*
%TD*%
D11*
%TO.C,D4*%
X139508895Y-61104619D03*
X139278699Y-64396581D03*
%TD*%
D12*
%TO.C,S1*%
X126515775Y-114364066D03*
X138025620Y-116765306D03*
%TD*%
%TO.C,S2*%
X126977110Y-93912752D03*
X138443295Y-96514501D03*
%TD*%
%TO.C,S3*%
X127795300Y-73472604D03*
X139214332Y-76274069D03*
%TD*%
%TO.C,S4*%
X128970095Y-53049849D03*
X140338495Y-56050178D03*
%TD*%
%TO.C,S5*%
X148434463Y-111206357D03*
X159802863Y-114206686D03*
%TD*%
%TO.C,S6*%
X149965505Y-90807215D03*
X161279811Y-94005493D03*
%TD*%
%TO.C,S7*%
X151852328Y-70437902D03*
X163109093Y-73833154D03*
%TD*%
%TO.C,S8*%
X154094358Y-50104619D03*
X165290153Y-53695812D03*
%TD*%
%TO.C,S9*%
X170860472Y-104163849D03*
X181991887Y-107949888D03*
%TD*%
%TO.C,S10*%
X173699603Y-83962381D03*
X184831018Y-87748420D03*
%TD*%
%TO.C,S11*%
X187670149Y-67546951D03*
X176538734Y-63760912D03*
%TD*%
%TO.C,S12*%
X179377866Y-43559444D03*
X190509281Y-47345483D03*
%TD*%
%TO.C,S13*%
X193230226Y-104012854D03*
X203989308Y-108754653D03*
%TD*%
%TO.C,S14*%
X197819228Y-84135705D03*
X208578310Y-88877504D03*
%TD*%
%TO.C,S15*%
X202408229Y-64258555D03*
X213167311Y-69000354D03*
%TD*%
%TO.C,S16*%
X206997231Y-44381406D03*
X217756313Y-49123205D03*
%TD*%
%TO.C,S17*%
X214062083Y-111681593D03*
X224464185Y-117162357D03*
%TD*%
%TO.C,S18*%
X219910662Y-92198288D03*
X230406833Y-97496675D03*
%TD*%
%TO.C,S19*%
X225418320Y-72615878D03*
X236005362Y-77730275D03*
%TD*%
%TO.C,S20*%
X230583380Y-52940328D03*
X241258067Y-57869177D03*
%TD*%
%TO.C,S21*%
X233409632Y-123047887D03*
X243510637Y-129065543D03*
%TD*%
%TO.C,S22*%
X240269873Y-103897373D03*
X250474363Y-109737826D03*
%TD*%
%TO.C,S23*%
X246794848Y-84630048D03*
X257099713Y-90291519D03*
%TD*%
%TO.C,S24*%
X252982567Y-65251782D03*
X263384669Y-70732546D03*
%TD*%
%TO.C,S25*%
X257893870Y-135479202D03*
X267666092Y-142017257D03*
%TD*%
%TO.C,S26*%
X265746970Y-116713970D03*
X275631809Y-123080481D03*
%TD*%
%TO.C,S27*%
X273271375Y-97814541D03*
X283265820Y-104007568D03*
%TD*%
%TO.C,S28*%
X280464796Y-78786672D03*
X290565801Y-84804328D03*
%TD*%
%TO.C,S29*%
X222215146Y-174076192D03*
X214468077Y-165231679D03*
%TD*%
%TO.C,S30*%
X234774640Y-158000773D03*
X227027571Y-149156260D03*
%TD*%
%TO.C,S31*%
X238290566Y-186635686D03*
X230543497Y-177791173D03*
%TD*%
%TO.C,S32*%
X250850060Y-170560267D03*
X243102991Y-161715754D03*
%TD*%
D13*
%TO.C,D1*%
X137461685Y-121856239D03*
X137404093Y-125155737D03*
%TD*%
D14*
%TO.C,D2*%
X137790597Y-101594817D03*
X137675429Y-104892807D03*
%TD*%
D11*
%TO.C,D5*%
X158973262Y-119261128D03*
X158743066Y-122553090D03*
%TD*%
D15*
%TO.C,D6*%
X160362125Y-99044687D03*
X160074511Y-102332129D03*
%TD*%
D16*
%TO.C,D7*%
X162103601Y-78855564D03*
X161758657Y-82137486D03*
%TD*%
D17*
%TO.C,D8*%
X164197160Y-58699909D03*
X163794992Y-61975311D03*
%TD*%
D18*
%TO.C,D9*%
X180811727Y-112934149D03*
X180352455Y-116202033D03*
%TD*%
%TO.C,D10*%
X183650859Y-92732680D03*
X183191587Y-96000564D03*
%TD*%
%TO.C,D11*%
X186489990Y-72531212D03*
X186030718Y-75799096D03*
%TD*%
%TO.C,D12*%
X189329121Y-52329743D03*
X188869849Y-55597627D03*
%TD*%
D19*
%TO.C,D13*%
X202379232Y-113617089D03*
X201636894Y-116832511D03*
%TD*%
%TO.C,D14*%
X206968233Y-93739939D03*
X206225895Y-96955361D03*
%TD*%
%TO.C,D15*%
X211557234Y-73862790D03*
X210814896Y-77078212D03*
%TD*%
%TO.C,D16*%
X216146236Y-53985641D03*
X215403898Y-57201063D03*
%TD*%
D20*
%TO.C,D17*%
X222518844Y-121900635D03*
X221554018Y-125056441D03*
%TD*%
D21*
%TO.C,D18*%
X228544483Y-102268182D03*
X227634879Y-105440346D03*
%TD*%
D22*
%TO.C,D19*%
X234226570Y-82533557D03*
X233372468Y-85721113D03*
%TD*%
D23*
%TO.C,D20*%
X239563375Y-62702772D03*
X238765033Y-65904748D03*
%TD*%
D24*
%TO.C,D21*%
X241319980Y-133695516D03*
X240191314Y-136796502D03*
%TD*%
D25*
%TO.C,D22*%
X248364844Y-114405326D03*
X247290470Y-117525538D03*
%TD*%
D26*
%TO.C,D23*%
X255071974Y-94995125D03*
X254052218Y-98133611D03*
%TD*%
D20*
%TO.C,D24*%
X261439328Y-75470823D03*
X260474502Y-78626629D03*
%TD*%
D27*
%TO.C,D25*%
X265236123Y-146526234D03*
X263946711Y-149563900D03*
%TD*%
D28*
%TO.C,D26*%
X273280903Y-127631181D03*
X272044701Y-130690887D03*
%TD*%
D29*
%TO.C,D27*%
X280994693Y-108598603D03*
X279812079Y-111679419D03*
%TD*%
D24*
%TO.C,D28*%
X288375143Y-89434301D03*
X287246477Y-92535287D03*
%TD*%
D30*
%TO.C,D29*%
X218700967Y-177802608D03*
X216669285Y-180403044D03*
%TD*%
%TO.C,D30*%
X231260461Y-161727189D03*
X229228779Y-164327625D03*
%TD*%
%TO.C,D31*%
X234776386Y-190362102D03*
X232744704Y-192962538D03*
%TD*%
%TO.C,D32*%
X247335880Y-174286683D03*
X245304198Y-176887119D03*
%TD*%
M02*
