%TF.GenerationSoftware,KiCad,Pcbnew,7.0.7+dfsg-1*%
%TF.CreationDate,2024-02-08T22:24:17-07:00*%
%TF.ProjectId,Keyboard,4b657962-6f61-4726-942e-6b696361645f,v1.0.0*%
%TF.SameCoordinates,Original*%
%TF.FileFunction,Soldermask,Bot*%
%TF.FilePolarity,Negative*%
%FSLAX46Y46*%
G04 Gerber Fmt 4.6, Leading zero omitted, Abs format (unit mm)*
G04 Created by KiCad (PCBNEW 7.0.7+dfsg-1) date 2024-02-08 22:24:17*
%MOMM*%
%LPD*%
G01*
G04 APERTURE LIST*
G04 Aperture macros list*
%AMRoundRect*
0 Rectangle with rounded corners*
0 $1 Rounding radius*
0 $2 $3 $4 $5 $6 $7 $8 $9 X,Y pos of 4 corners*
0 Add a 4 corners polygon primitive as box body*
4,1,4,$2,$3,$4,$5,$6,$7,$8,$9,$2,$3,0*
0 Add four circle primitives for the rounded corners*
1,1,$1+$1,$2,$3*
1,1,$1+$1,$4,$5*
1,1,$1+$1,$6,$7*
1,1,$1+$1,$8,$9*
0 Add four rect primitives between the rounded corners*
20,1,$1+$1,$2,$3,$4,$5,0*
20,1,$1+$1,$4,$5,$6,$7,0*
20,1,$1+$1,$6,$7,$8,$9,0*
20,1,$1+$1,$8,$9,$2,$3,0*%
%AMHorizOval*
0 Thick line with rounded ends*
0 $1 width*
0 $2 $3 position (X,Y) of the first rounded end (center of the circle)*
0 $4 $5 position (X,Y) of the second rounded end (center of the circle)*
0 Add line between two ends*
20,1,$1,$2,$3,$4,$5,0*
0 Add two circle primitives to create the rounded ends*
1,1,$1,$2,$3*
1,1,$1,$4,$5*%
G04 Aperture macros list end*
%ADD10RoundRect,0.050000X0.575627X-0.480785X0.622729X0.417982X-0.575627X0.480785X-0.622729X-0.417982X0*%
%ADD11RoundRect,0.050000X0.841255X-0.934308X0.934308X0.841255X-0.841255X0.934308X-0.934308X-0.841255X0*%
%ADD12C,2.005000*%
%ADD13C,1.600000*%
%ADD14HorizOval,1.700000X-0.276151X0.117219X0.276151X-0.117219X0*%
%ADD15RoundRect,0.050000X0.567148X-0.490758X0.629929X0.407050X-0.567148X0.490758X-0.629929X-0.407050X0*%
%ADD16RoundRect,0.050000X0.824821X-0.948848X0.948848X0.824821X-0.824821X0.948848X-0.948848X-0.824821X0*%
%ADD17C,3.529000*%
%ADD18C,1.801800*%
%ADD19C,3.100000*%
%ADD20C,2.100000*%
%ADD21RoundRect,0.050000X0.592055X-0.460403X0.607762X0.439460X-0.592055X0.460403X-0.607762X-0.439460X0*%
%ADD22RoundRect,0.050000X0.873349X-0.904380X0.904380X0.873349X-0.873349X0.904380X-0.904380X-0.873349X0*%
%ADD23RoundRect,0.050000X0.583930X-0.470666X0.615339X0.428786X-0.583930X0.470666X-0.615339X-0.428786X0*%
%ADD24RoundRect,0.050000X0.857433X-0.919484X0.919484X0.857433X-0.857433X0.919484X-0.919484X-0.857433X0*%
%ADD25RoundRect,0.050000X0.558497X-0.500581X0.636937X0.395994X-0.558497X0.500581X-0.636937X-0.395994X0*%
%ADD26RoundRect,0.050000X0.808136X-0.963099X0.963099X0.808136X-0.808136X0.963099X-0.963099X-0.808136X0*%
%ADD27RoundRect,0.050000X0.549675X-0.510252X0.643751X0.384818X-0.549675X0.510252X-0.643751X-0.384818X0*%
%ADD28RoundRect,0.050000X0.791204X-0.977056X0.977056X0.791204X-0.791204X0.977056X-0.977056X-0.791204X0*%
%ADD29RoundRect,0.050000X0.540686X-0.519767X0.650369X0.373524X-0.540686X0.519767X-0.650369X-0.373524X0*%
%ADD30RoundRect,0.050000X0.774032X-0.990715X0.990715X0.774032X-0.774032X0.990715X-0.990715X-0.774032X0*%
%ADD31RoundRect,0.050000X0.531533X-0.529124X0.656789X0.362117X-0.531533X0.529124X-0.656789X-0.362117X0*%
%ADD32RoundRect,0.050000X0.756623X-1.004073X1.004073X0.756623X-0.756623X1.004073X-1.004073X-0.756623X0*%
%ADD33RoundRect,0.050000X0.483394X-0.573437X0.685850X0.303496X-0.483394X0.573437X-0.685850X-0.303496X0*%
%ADD34RoundRect,0.050000X0.666234X-1.066196X1.066196X0.666234X-0.666234X1.066196X-1.066196X-0.666234X0*%
%ADD35RoundRect,0.050000X0.442216X-0.605760X0.705350X0.254914X-0.442216X0.605760X-0.705350X-0.254914X0*%
%ADD36RoundRect,0.050000X0.590236X-1.110073X1.110073X0.590236X-0.590236X1.110073X-1.110073X-0.590236X0*%
%ADD37RoundRect,0.050000X0.452720X-0.597950X0.700794X0.267185X-0.452720X0.597950X-0.700794X-0.267185X0*%
%ADD38RoundRect,0.050000X0.609520X-1.099603X1.099603X0.609520X-0.609520X1.099603X-1.099603X-0.609520X0*%
%ADD39RoundRect,0.050000X0.463087X-0.589958X0.696024X0.279375X-0.463087X0.589958X-0.696024X-0.279375X0*%
%ADD40RoundRect,0.050000X0.628618X-1.088798X1.088798X0.628618X-0.628618X1.088798X-1.088798X-0.628618X0*%
%ADD41RoundRect,0.050000X0.473313X-0.581786X0.691042X0.291480X-0.473313X0.581786X-0.691042X-0.291480X0*%
%ADD42RoundRect,0.050000X0.647524X-1.077661X1.077661X0.647524X-0.647524X1.077661X-1.077661X-0.647524X0*%
%ADD43RoundRect,0.050000X0.409907X-0.628074X0.717725X0.217650X-0.409907X0.628074X-0.717725X-0.217650X0*%
%ADD44RoundRect,0.050000X0.531331X-1.139443X1.139443X0.531331X-0.531331X1.139443X-1.139443X-0.531331X0*%
%ADD45RoundRect,0.050000X0.420805X-0.620824X0.713817X0.230142X-0.420805X0.620824X-0.713817X-0.230142X0*%
%ADD46RoundRect,0.050000X0.551136X-1.129996X1.129996X0.551136X-0.551136X1.129996X-1.129996X-0.551136X0*%
%ADD47RoundRect,0.050000X0.431576X-0.613386X0.709692X0.242565X-0.431576X0.613386X-0.709692X-0.242565X0*%
%ADD48RoundRect,0.050000X0.570773X-1.120205X1.120205X0.570773X-0.570773X1.120205X-1.120205X-0.570773X0*%
%ADD49RoundRect,0.050000X0.376474X-0.648666X0.728132X0.179789X-0.376474X0.648666X-0.728132X-0.179789X0*%
%ADD50RoundRect,0.050000X0.470969X-1.165689X1.165689X0.470969X-0.470969X1.165689X-1.165689X-0.470969X0*%
%ADD51RoundRect,0.050000X0.387737X-0.641997X0.724883X0.192469X-0.387737X0.641997X-0.724883X-0.192469X0*%
%ADD52RoundRect,0.050000X0.491241X-1.157292X1.157292X0.491241X-0.491241X1.157292X-1.157292X-0.491241X0*%
%ADD53RoundRect,0.050000X0.398883X-0.635132X0.721414X0.205090X-0.398883X0.635132X-0.721414X-0.205090X0*%
%ADD54RoundRect,0.050000X0.511364X-1.148542X1.148542X0.511364X-0.511364X1.148542X-1.148542X-0.511364X0*%
%ADD55RoundRect,0.050000X0.195759X-0.724002X0.749854X-0.014792X-0.195759X0.724002X-0.749854X0.014792X0*%
%ADD56RoundRect,0.050000X0.153219X-1.247865X1.247865X0.153219X-0.153219X1.247865X-1.247865X-0.153219X0*%
%ADD57C,1.852600*%
%ADD58RoundRect,0.050000X-0.891460X-0.860873X0.860873X-0.891460X0.891460X0.860873X-0.860873X0.891460X0*%
G04 APERTURE END LIST*
D10*
%TO.C,D3*%
X138473069Y-81342220D03*
X138300361Y-84637698D03*
D11*
X138187315Y-86794738D03*
D12*
X138586115Y-79185180D03*
%TD*%
D13*
%TO.C,TRRS1*%
X258401050Y-161054305D03*
X264844584Y-163789423D03*
X257502368Y-163171466D03*
X263945902Y-165906584D03*
D14*
X255915687Y-159999331D03*
X255130879Y-164663458D03*
X258812898Y-166226382D03*
X261574413Y-167398576D03*
X255017005Y-162116492D03*
X257826924Y-158311974D03*
X261508943Y-159874899D03*
X264270458Y-161047092D03*
%TD*%
D15*
%TO.C,D4*%
X139508895Y-61104619D03*
X139278699Y-64396581D03*
D16*
X139128025Y-66551319D03*
D12*
X139659569Y-58949881D03*
%TD*%
D17*
%TO.C,S1*%
X129686434Y-120370316D03*
D18*
X135185596Y-120466304D03*
X124187272Y-120274328D03*
D19*
X134751119Y-116708149D03*
X129790276Y-114421222D03*
D20*
X126515775Y-114364066D03*
X138025620Y-116765306D03*
D19*
X124752642Y-116533625D03*
X129790276Y-114421222D03*
%TD*%
D17*
%TO.C,S2*%
X130042463Y-99973423D03*
D18*
X135539113Y-100165370D03*
X124545813Y-99781476D03*
D19*
X135170290Y-96400205D03*
X130250115Y-94027048D03*
D20*
X126977110Y-93912752D03*
X138443295Y-96514501D03*
D19*
X125176382Y-96051210D03*
X130250115Y-94027048D03*
%TD*%
D17*
%TO.C,S3*%
X130754413Y-79585850D03*
D18*
X136246875Y-79873698D03*
X125261951Y-79298002D03*
D19*
X135943821Y-76102669D03*
X131065812Y-73644004D03*
D20*
X127795300Y-73472604D03*
X139214332Y-76274069D03*
D19*
X125957525Y-75579309D03*
X131065812Y-73644004D03*
%TD*%
D17*
%TO.C,S4*%
X131822066Y-59213808D03*
D18*
X137308668Y-59597469D03*
X126335464Y-58830147D03*
D19*
X137071473Y-55821725D03*
X132237117Y-53278302D03*
D20*
X128970095Y-53049849D03*
X140338495Y-56050178D03*
D19*
X127095833Y-55124160D03*
X132237117Y-53278302D03*
%TD*%
D17*
%TO.C,S5*%
X151286434Y-117370316D03*
D18*
X156773036Y-117753977D03*
X145799832Y-116986655D03*
D19*
X156535841Y-113978233D03*
X151701485Y-111434810D03*
D20*
X148434463Y-111206357D03*
X159802863Y-114206686D03*
D19*
X146560201Y-113280668D03*
X151701485Y-111434810D03*
%TD*%
D17*
%TO.C,S6*%
X152709466Y-97020009D03*
D18*
X158188537Y-97499366D03*
X147230395Y-96540652D03*
D19*
X158017274Y-93720058D03*
X153228043Y-91092651D03*
D20*
X149965505Y-90807215D03*
X161279811Y-94005493D03*
D19*
X148055327Y-92848500D03*
X153228043Y-91092651D03*
%TD*%
D17*
%TO.C,S7*%
X154487443Y-76697638D03*
D18*
X159957313Y-77272545D03*
X149017573Y-76122731D03*
D19*
X159852034Y-73490823D03*
X155109387Y-70780233D03*
D20*
X151852328Y-70437902D03*
X163109093Y-73833154D03*
D19*
X149906815Y-72445539D03*
X155109387Y-70780233D03*
%TD*%
D17*
%TO.C,S8*%
X156619824Y-56409391D03*
D18*
X162078828Y-57079672D03*
X151160820Y-55739110D03*
D19*
X162039565Y-53296690D03*
X157344947Y-50503741D03*
D20*
X154094358Y-50104619D03*
X165290153Y-53695812D03*
D19*
X152114103Y-52077996D03*
X157344947Y-50503741D03*
%TD*%
D17*
%TO.C,S9*%
X173275520Y-110511736D03*
D18*
X178721994Y-111277188D03*
X167829046Y-109746284D03*
D19*
X178748759Y-107494096D03*
X174103600Y-104619641D03*
D20*
X170860472Y-104163849D03*
X181991887Y-107949888D03*
D19*
X168846079Y-106102365D03*
X174103600Y-104619641D03*
%TD*%
D17*
%TO.C,S10*%
X176114651Y-90310268D03*
D18*
X181561125Y-91075720D03*
X170668177Y-89544816D03*
D19*
X181587890Y-87292628D03*
X176942731Y-84418173D03*
D20*
X173699603Y-83962381D03*
X184831018Y-87748420D03*
D19*
X171685210Y-85900897D03*
X176942731Y-84418173D03*
%TD*%
%TO.C,S11*%
X179781862Y-64216704D03*
X174524341Y-65699428D03*
D20*
X187670149Y-67546951D03*
X176538734Y-63760912D03*
D19*
X179781862Y-64216704D03*
X184427021Y-67091159D03*
D18*
X173507308Y-69343347D03*
X184400256Y-70874251D03*
D17*
X178953782Y-70108799D03*
%TD*%
%TO.C,S12*%
X181792914Y-49907331D03*
D18*
X187239388Y-50672783D03*
X176346440Y-49141879D03*
D19*
X187266153Y-46889691D03*
X182620994Y-44015236D03*
D20*
X179377866Y-43559444D03*
X190509281Y-47345483D03*
D19*
X177363473Y-45497960D03*
X182620994Y-44015236D03*
%TD*%
D17*
%TO.C,S13*%
X195082829Y-110547071D03*
D18*
X200441864Y-111784302D03*
X189723794Y-109309840D03*
D19*
X200798246Y-108017939D03*
X196421288Y-104749569D03*
D20*
X193230226Y-104012854D03*
X203989308Y-108754653D03*
D19*
X191054545Y-105768428D03*
X196421288Y-104749569D03*
%TD*%
D17*
%TO.C,S14*%
X199671831Y-90669922D03*
D18*
X205030866Y-91907153D03*
X194312796Y-89432691D03*
D19*
X205387248Y-88140790D03*
X201010290Y-84872420D03*
D20*
X197819228Y-84135705D03*
X208578310Y-88877504D03*
D19*
X195643547Y-85891279D03*
X201010290Y-84872420D03*
%TD*%
D17*
%TO.C,S15*%
X204260832Y-70792772D03*
D18*
X209619867Y-72030003D03*
X198901797Y-69555541D03*
D19*
X209976249Y-68263640D03*
X205599291Y-64995270D03*
D20*
X202408229Y-64258555D03*
X213167311Y-69000354D03*
D19*
X200232548Y-66014129D03*
X205599291Y-64995270D03*
%TD*%
D17*
%TO.C,S16*%
X208849834Y-50915623D03*
D18*
X214208869Y-52152854D03*
X203490799Y-49678392D03*
D19*
X214565251Y-48386491D03*
X210188293Y-45118121D03*
D20*
X206997231Y-44381406D03*
X217756313Y-49123205D03*
D19*
X204821550Y-46136980D03*
X210188293Y-45118121D03*
%TD*%
D17*
%TO.C,S17*%
X215454369Y-118329124D03*
D18*
X220714045Y-119937168D03*
X210194693Y-116721080D03*
D19*
X221332287Y-116204840D03*
X217193981Y-112639111D03*
D20*
X214062083Y-111681593D03*
X224464185Y-117162357D03*
D19*
X211769239Y-113281123D03*
X217193981Y-112639111D03*
%TD*%
D17*
%TO.C,S18*%
X221418752Y-98820507D03*
D18*
X226705691Y-100336512D03*
X216131813Y-97304502D03*
D19*
X227258701Y-96593962D03*
X223058794Y-93101000D03*
D20*
X219910662Y-92198288D03*
X230406833Y-97496675D03*
D19*
X217646084Y-93837589D03*
X223058794Y-93101000D03*
%TD*%
D17*
%TO.C,S19*%
X227041754Y-79210769D03*
D18*
X232354346Y-80634274D03*
X221729162Y-77787264D03*
D19*
X232841955Y-76882642D03*
X228581727Y-73463510D03*
D20*
X225418320Y-72615878D03*
X236005362Y-77730275D03*
D19*
X223182696Y-74294452D03*
X228581727Y-73463510D03*
%TD*%
D17*
%TO.C,S20*%
X232321663Y-59505882D03*
D18*
X237658289Y-60836452D03*
X226985037Y-58175312D03*
D19*
X238080349Y-57076883D03*
X233761098Y-53732622D03*
D20*
X230583380Y-52940328D03*
X241258067Y-57869177D03*
D19*
X228377391Y-54657664D03*
X233761098Y-53732622D03*
%TD*%
D17*
%TO.C,S21*%
X234452105Y-129759174D03*
D18*
X239620414Y-131640285D03*
X229283796Y-127878063D03*
D19*
X240433144Y-127945427D03*
X236487125Y-124168003D03*
D20*
X233409632Y-123047887D03*
X243510637Y-129065543D03*
D19*
X231036217Y-124525226D03*
X236487125Y-124168003D03*
%TD*%
D17*
%TO.C,S22*%
X241429316Y-110589444D03*
D18*
X246629668Y-112380069D03*
X236228964Y-108798819D03*
D19*
X247377789Y-108671590D03*
X243366447Y-104963608D03*
D20*
X240269873Y-103897373D03*
X250474363Y-109737826D03*
D19*
X237922604Y-105415909D03*
X243366447Y-104963608D03*
%TD*%
D17*
%TO.C,S23*%
X248070907Y-91300865D03*
D18*
X253301718Y-93000458D03*
X242840096Y-89601272D03*
D19*
X253985003Y-89279488D03*
X249909558Y-85642079D03*
D20*
X246794848Y-84630048D03*
X257099713Y-90291519D03*
D19*
X244474438Y-86189318D03*
X249909558Y-85642079D03*
%TD*%
D17*
%TO.C,S24*%
X254374853Y-71899313D03*
D18*
X259634529Y-73507357D03*
X249115177Y-70291269D03*
D19*
X260252771Y-69775029D03*
X256114465Y-66209300D03*
D20*
X252982567Y-65251782D03*
X263384669Y-70732546D03*
D19*
X250689723Y-66851312D03*
X256114465Y-66209300D03*
%TD*%
D17*
%TO.C,S25*%
X258583673Y-142235850D03*
D18*
X263646450Y-144384871D03*
X253520896Y-140086829D03*
D19*
X264651439Y-140737612D03*
X260908523Y-136758846D03*
D20*
X257893870Y-135479202D03*
X267666092Y-142017257D03*
D19*
X255446390Y-136830301D03*
X260908523Y-136758846D03*
%TD*%
D17*
%TO.C,S26*%
X266554588Y-123457551D03*
D18*
X271654099Y-125517887D03*
X261455077Y-121397215D03*
D19*
X272595282Y-121853645D03*
X268783497Y-117940807D03*
D20*
X265746970Y-116713970D03*
X275631809Y-123080481D03*
D19*
X263323443Y-118107579D03*
X268783497Y-117940807D03*
%TD*%
D17*
%TO.C,S27*%
X274196562Y-104543000D03*
D18*
X279331254Y-106514024D03*
X269061870Y-102571976D03*
D19*
X280208344Y-102833913D03*
X276328851Y-98988196D03*
D20*
X273271375Y-97814541D03*
X283265820Y-104007568D03*
D19*
X270872540Y-99250234D03*
X276328851Y-98988196D03*
%TD*%
D17*
%TO.C,S28*%
X281507269Y-85497959D03*
D18*
X286675578Y-87379070D03*
X276338960Y-83616848D03*
D19*
X287488308Y-83684212D03*
X283542289Y-79906788D03*
D20*
X280464796Y-78786672D03*
X290565801Y-84804328D03*
D19*
X278091381Y-80264011D03*
X283542289Y-79906788D03*
%TD*%
%TO.C,S29*%
X217048812Y-167247970D03*
X211754303Y-165903286D03*
D20*
X222215146Y-174076192D03*
X214468077Y-165231679D03*
D19*
X217048812Y-167247970D03*
X219634410Y-172059901D03*
D18*
X209051567Y-168550496D03*
X217719685Y-175322772D03*
D17*
X213385626Y-171936634D03*
%TD*%
D19*
%TO.C,S30*%
X229608306Y-151172551D03*
X224313797Y-149827867D03*
D20*
X234774640Y-158000773D03*
X227027571Y-149156260D03*
D19*
X229608306Y-151172551D03*
X232193904Y-155984482D03*
D18*
X221611061Y-152475077D03*
X230279179Y-159247353D03*
D17*
X225945120Y-155861215D03*
%TD*%
D19*
%TO.C,S31*%
X233124232Y-179807464D03*
X227829723Y-178462780D03*
D20*
X238290566Y-186635686D03*
X230543497Y-177791173D03*
D19*
X233124232Y-179807464D03*
X235709830Y-184619395D03*
D18*
X225126987Y-181109990D03*
X233795105Y-187882266D03*
D17*
X229461046Y-184496128D03*
%TD*%
D19*
%TO.C,S32*%
X245683726Y-163732045D03*
X240389217Y-162387361D03*
D20*
X250850060Y-170560267D03*
X243102991Y-161715754D03*
D19*
X245683726Y-163732045D03*
X248269324Y-168543976D03*
D18*
X237686481Y-165034571D03*
X246354599Y-171806847D03*
D17*
X242020540Y-168420709D03*
%TD*%
D21*
%TO.C,D1*%
X137461685Y-121856239D03*
X137404093Y-125155737D03*
D22*
X137366395Y-127315408D03*
D12*
X137499383Y-119696568D03*
%TD*%
D23*
%TO.C,D2*%
X137790597Y-101594817D03*
X137675429Y-104892807D03*
D24*
X137600046Y-107051491D03*
D12*
X137865980Y-99436133D03*
%TD*%
D15*
%TO.C,D5*%
X158973262Y-119261128D03*
X158743066Y-122553090D03*
D16*
X158592392Y-124707828D03*
D12*
X159123936Y-117106390D03*
%TD*%
D25*
%TO.C,D6*%
X160362125Y-99044687D03*
X160074511Y-102332129D03*
D26*
X159886255Y-104483910D03*
D12*
X160550381Y-96892906D03*
%TD*%
D27*
%TO.C,D7*%
X162103601Y-78855564D03*
X161758657Y-82137486D03*
D28*
X161532876Y-84285653D03*
D12*
X162329382Y-76707397D03*
%TD*%
D29*
%TO.C,D8*%
X164197160Y-58699909D03*
X163794992Y-61975311D03*
D30*
X163531754Y-64119211D03*
D12*
X164460398Y-56556009D03*
%TD*%
D31*
%TO.C,D9*%
X180811727Y-112934149D03*
X180352455Y-116202033D03*
D32*
X180051841Y-118341012D03*
D12*
X181112341Y-110795170D03*
%TD*%
D31*
%TO.C,D10*%
X183650859Y-92732680D03*
X183191587Y-96000564D03*
D32*
X182890973Y-98139543D03*
D12*
X183951473Y-90593701D03*
%TD*%
D31*
%TO.C,D11*%
X186489990Y-72531212D03*
X186030718Y-75799096D03*
D32*
X185730104Y-77938075D03*
D12*
X186790604Y-70392233D03*
%TD*%
D31*
%TO.C,D12*%
X189329121Y-52329743D03*
X188869849Y-55597627D03*
D32*
X188569235Y-57736606D03*
D12*
X189629735Y-50190764D03*
%TD*%
D33*
%TO.C,D13*%
X202379232Y-113617089D03*
X201636894Y-116832511D03*
D34*
X201150999Y-118937150D03*
D12*
X202865127Y-111512450D03*
%TD*%
D33*
%TO.C,D14*%
X206968233Y-93739939D03*
X206225895Y-96955361D03*
D34*
X205740000Y-99060000D03*
D12*
X207454128Y-91635300D03*
%TD*%
D33*
%TO.C,D15*%
X211557234Y-73862790D03*
X210814896Y-77078212D03*
D34*
X210329001Y-79182851D03*
D12*
X212043129Y-71758151D03*
%TD*%
D33*
%TO.C,D16*%
X216146236Y-53985641D03*
X215403898Y-57201063D03*
D34*
X214918003Y-59305702D03*
D12*
X216632131Y-51881002D03*
%TD*%
D35*
%TO.C,D17*%
X222518844Y-121900635D03*
X221554018Y-125056441D03*
D36*
X220922495Y-127122059D03*
D12*
X223150367Y-119835017D03*
%TD*%
D37*
%TO.C,D18*%
X228544483Y-102268182D03*
X227634879Y-105440346D03*
D38*
X227039503Y-107516671D03*
D12*
X229139859Y-100191857D03*
%TD*%
D39*
%TO.C,D19*%
X234226570Y-82533557D03*
X233372468Y-85721113D03*
D40*
X232813418Y-87807512D03*
D12*
X234785620Y-80447158D03*
%TD*%
D41*
%TO.C,D20*%
X239563375Y-62702772D03*
X238765033Y-65904748D03*
D42*
X238242482Y-68000587D03*
D12*
X240085926Y-60606933D03*
%TD*%
D43*
%TO.C,D21*%
X241319980Y-133695516D03*
X240191314Y-136796502D03*
D44*
X239452550Y-138826238D03*
D12*
X242058744Y-131665780D03*
%TD*%
D45*
%TO.C,D22*%
X248364844Y-114405326D03*
X247290470Y-117525538D03*
D46*
X246587242Y-119567858D03*
D12*
X249068072Y-112363006D03*
%TD*%
D47*
%TO.C,D23*%
X255071974Y-94995125D03*
X254052218Y-98133611D03*
D48*
X253384741Y-100187893D03*
D12*
X255739451Y-92940843D03*
%TD*%
D35*
%TO.C,D24*%
X261439328Y-75470823D03*
X260474502Y-78626629D03*
D36*
X259842979Y-80692247D03*
D12*
X262070851Y-73405205D03*
%TD*%
D49*
%TO.C,D25*%
X265236123Y-146526234D03*
X263946711Y-149563900D03*
D50*
X263102731Y-151552190D03*
D12*
X266080103Y-144537944D03*
%TD*%
D51*
%TO.C,D26*%
X273280903Y-127631181D03*
X272044701Y-130690887D03*
D52*
X271235551Y-132693604D03*
D12*
X274090053Y-125628464D03*
%TD*%
D53*
%TO.C,D27*%
X280994693Y-108598603D03*
X279812079Y-111679419D03*
D54*
X279038004Y-113695952D03*
D12*
X281768768Y-106582070D03*
%TD*%
D43*
%TO.C,D28*%
X288375143Y-89434301D03*
X287246477Y-92535287D03*
D44*
X286507713Y-94565023D03*
D12*
X289113907Y-87404565D03*
%TD*%
D55*
%TO.C,D29*%
X218700967Y-177802608D03*
X216669285Y-180403044D03*
D56*
X215339456Y-182105147D03*
D12*
X220030796Y-176100505D03*
%TD*%
D55*
%TO.C,D30*%
X231260461Y-161727189D03*
X229228779Y-164327625D03*
D56*
X227898950Y-166029728D03*
D12*
X232590290Y-160025086D03*
%TD*%
D55*
%TO.C,D31*%
X234776386Y-190362102D03*
X232744704Y-192962538D03*
D56*
X231414875Y-194664641D03*
D12*
X236106215Y-188659999D03*
%TD*%
D55*
%TO.C,D32*%
X247335880Y-174286683D03*
X245304198Y-176887119D03*
D56*
X243974369Y-178589222D03*
D12*
X248665709Y-172584580D03*
%TD*%
D57*
%TO.C,MCU1*%
X199520860Y-137404971D03*
X196981246Y-137360642D03*
X194441633Y-137316312D03*
X191902020Y-137271983D03*
X189362407Y-137227654D03*
X186822794Y-137183325D03*
X184283181Y-137138996D03*
X181743568Y-137094667D03*
X179203954Y-137050338D03*
X176664341Y-137006009D03*
X174124728Y-136961680D03*
X171585115Y-136917350D03*
X199254885Y-152642650D03*
X196715272Y-152598320D03*
X194175659Y-152553991D03*
X191636046Y-152509662D03*
X189096432Y-152465333D03*
X186556819Y-152421004D03*
X184017206Y-152376675D03*
X181477593Y-152332346D03*
X178937980Y-152288017D03*
X176398367Y-152243688D03*
X173858754Y-152199358D03*
D58*
X171319140Y-152155029D03*
%TD*%
M02*
