%TF.GenerationSoftware,KiCad,Pcbnew,7.0.7+dfsg-1*%
%TF.CreationDate,2024-02-08T22:24:17-07:00*%
%TF.ProjectId,Keyboard,4b657962-6f61-4726-942e-6b696361645f,v1.0.0*%
%TF.SameCoordinates,Original*%
%TF.FileFunction,Copper,L1,Top*%
%TF.FilePolarity,Positive*%
%FSLAX46Y46*%
G04 Gerber Fmt 4.6, Leading zero omitted, Abs format (unit mm)*
G04 Created by KiCad (PCBNEW 7.0.7+dfsg-1) date 2024-02-08 22:24:17*
%MOMM*%
%LPD*%
G01*
G04 APERTURE LIST*
G04 Aperture macros list*
%AMHorizOval*
0 Thick line with rounded ends*
0 $1 width*
0 $2 $3 position (X,Y) of the first rounded end (center of the circle)*
0 $4 $5 position (X,Y) of the second rounded end (center of the circle)*
0 Add line between two ends*
20,1,$1,$2,$3,$4,$5,0*
0 Add two circle primitives to create the rounded ends*
1,1,$1,$2,$3*
1,1,$1,$4,$5*%
%AMRotRect*
0 Rectangle, with rotation*
0 The origin of the aperture is its center*
0 $1 length*
0 $2 width*
0 $3 Rotation angle, in degrees counterclockwise*
0 Add horizontal line*
21,1,$1,$2,0,0,$3*%
G04 Aperture macros list end*
%TA.AperFunction,SMDPad,CuDef*%
%ADD10RotRect,0.900000X1.200000X87.000000*%
%TD*%
%TA.AperFunction,ComponentPad*%
%ADD11RotRect,1.778000X1.778000X87.000000*%
%TD*%
%TA.AperFunction,ComponentPad*%
%ADD12C,1.905000*%
%TD*%
%TA.AperFunction,ComponentPad*%
%ADD13HorizOval,1.600000X-0.276151X0.117219X0.276151X-0.117219X0*%
%TD*%
%TA.AperFunction,SMDPad,CuDef*%
%ADD14RotRect,0.900000X1.200000X86.000000*%
%TD*%
%TA.AperFunction,ComponentPad*%
%ADD15RotRect,1.778000X1.778000X86.000000*%
%TD*%
%TA.AperFunction,SMDPad,CuDef*%
%ADD16C,2.000000*%
%TD*%
%TA.AperFunction,ComponentPad*%
%ADD17C,0.600000*%
%TD*%
%TA.AperFunction,SMDPad,CuDef*%
%ADD18RotRect,0.900000X1.200000X89.000000*%
%TD*%
%TA.AperFunction,ComponentPad*%
%ADD19RotRect,1.778000X1.778000X89.000000*%
%TD*%
%TA.AperFunction,SMDPad,CuDef*%
%ADD20RotRect,0.900000X1.200000X88.000000*%
%TD*%
%TA.AperFunction,ComponentPad*%
%ADD21RotRect,1.778000X1.778000X88.000000*%
%TD*%
%TA.AperFunction,SMDPad,CuDef*%
%ADD22RotRect,0.900000X1.200000X85.000000*%
%TD*%
%TA.AperFunction,ComponentPad*%
%ADD23RotRect,1.778000X1.778000X85.000000*%
%TD*%
%TA.AperFunction,SMDPad,CuDef*%
%ADD24RotRect,0.900000X1.200000X84.000000*%
%TD*%
%TA.AperFunction,ComponentPad*%
%ADD25RotRect,1.778000X1.778000X84.000000*%
%TD*%
%TA.AperFunction,SMDPad,CuDef*%
%ADD26RotRect,0.900000X1.200000X83.000000*%
%TD*%
%TA.AperFunction,ComponentPad*%
%ADD27RotRect,1.778000X1.778000X83.000000*%
%TD*%
%TA.AperFunction,SMDPad,CuDef*%
%ADD28RotRect,0.900000X1.200000X82.000000*%
%TD*%
%TA.AperFunction,ComponentPad*%
%ADD29RotRect,1.778000X1.778000X82.000000*%
%TD*%
%TA.AperFunction,SMDPad,CuDef*%
%ADD30RotRect,0.900000X1.200000X77.000000*%
%TD*%
%TA.AperFunction,ComponentPad*%
%ADD31RotRect,1.778000X1.778000X77.000000*%
%TD*%
%TA.AperFunction,SMDPad,CuDef*%
%ADD32RotRect,0.900000X1.200000X73.000000*%
%TD*%
%TA.AperFunction,ComponentPad*%
%ADD33RotRect,1.778000X1.778000X73.000000*%
%TD*%
%TA.AperFunction,SMDPad,CuDef*%
%ADD34RotRect,0.900000X1.200000X74.000000*%
%TD*%
%TA.AperFunction,ComponentPad*%
%ADD35RotRect,1.778000X1.778000X74.000000*%
%TD*%
%TA.AperFunction,SMDPad,CuDef*%
%ADD36RotRect,0.900000X1.200000X75.000000*%
%TD*%
%TA.AperFunction,ComponentPad*%
%ADD37RotRect,1.778000X1.778000X75.000000*%
%TD*%
%TA.AperFunction,SMDPad,CuDef*%
%ADD38RotRect,0.900000X1.200000X76.000000*%
%TD*%
%TA.AperFunction,ComponentPad*%
%ADD39RotRect,1.778000X1.778000X76.000000*%
%TD*%
%TA.AperFunction,SMDPad,CuDef*%
%ADD40RotRect,0.900000X1.200000X70.000000*%
%TD*%
%TA.AperFunction,ComponentPad*%
%ADD41RotRect,1.778000X1.778000X70.000000*%
%TD*%
%TA.AperFunction,SMDPad,CuDef*%
%ADD42RotRect,0.900000X1.200000X71.000000*%
%TD*%
%TA.AperFunction,ComponentPad*%
%ADD43RotRect,1.778000X1.778000X71.000000*%
%TD*%
%TA.AperFunction,SMDPad,CuDef*%
%ADD44RotRect,0.900000X1.200000X72.000000*%
%TD*%
%TA.AperFunction,ComponentPad*%
%ADD45RotRect,1.778000X1.778000X72.000000*%
%TD*%
%TA.AperFunction,SMDPad,CuDef*%
%ADD46RotRect,0.900000X1.200000X67.000000*%
%TD*%
%TA.AperFunction,ComponentPad*%
%ADD47RotRect,1.778000X1.778000X67.000000*%
%TD*%
%TA.AperFunction,SMDPad,CuDef*%
%ADD48RotRect,0.900000X1.200000X68.000000*%
%TD*%
%TA.AperFunction,ComponentPad*%
%ADD49RotRect,1.778000X1.778000X68.000000*%
%TD*%
%TA.AperFunction,SMDPad,CuDef*%
%ADD50RotRect,0.900000X1.200000X69.000000*%
%TD*%
%TA.AperFunction,ComponentPad*%
%ADD51RotRect,1.778000X1.778000X69.000000*%
%TD*%
%TA.AperFunction,SMDPad,CuDef*%
%ADD52RotRect,0.900000X1.200000X52.000000*%
%TD*%
%TA.AperFunction,ComponentPad*%
%ADD53RotRect,1.778000X1.778000X52.000000*%
%TD*%
%TA.AperFunction,ComponentPad*%
%ADD54C,1.752600*%
%TD*%
%TA.AperFunction,ComponentPad*%
%ADD55RotRect,1.752600X1.752600X359.000000*%
%TD*%
%TA.AperFunction,Conductor*%
%ADD56C,0.500000*%
%TD*%
%TA.AperFunction,Conductor*%
%ADD57C,0.250000*%
%TD*%
G04 APERTURE END LIST*
D10*
%TO.P,D3,1*%
%TO.N,P7*%
X138300361Y-84637698D03*
%TO.P,D3,2*%
%TO.N,function_top*%
X138473069Y-81342220D03*
D11*
%TO.P,D3,1*%
%TO.N,P7*%
X138187315Y-86794738D03*
D12*
%TO.P,D3,2*%
%TO.N,function_top*%
X138586115Y-79185180D03*
%TD*%
D13*
%TO.P,TRRS1,1*%
%TO.N,RAW*%
X255915687Y-159999331D03*
%TO.P,TRRS1,2*%
%TO.N,GND*%
X255130879Y-164663458D03*
%TO.P,TRRS1,3*%
%TO.N,P9*%
X258812898Y-166226382D03*
%TO.P,TRRS1,4*%
%TO.N,P10*%
X261574413Y-167398576D03*
%TO.P,TRRS1,1*%
%TO.N,RAW*%
X255017005Y-162116492D03*
%TO.P,TRRS1,2*%
%TO.N,GND*%
X257826924Y-158311974D03*
%TO.P,TRRS1,3*%
%TO.N,P9*%
X261508943Y-159874899D03*
%TO.P,TRRS1,4*%
%TO.N,P10*%
X264270458Y-161047092D03*
%TD*%
D14*
%TO.P,D4,1*%
%TO.N,P8*%
X139278699Y-64396581D03*
%TO.P,D4,2*%
%TO.N,function_numbers*%
X139508895Y-61104619D03*
D15*
%TO.P,D4,1*%
%TO.N,P8*%
X139128025Y-66551319D03*
D12*
%TO.P,D4,2*%
%TO.N,function_numbers*%
X139659569Y-58949881D03*
%TD*%
D16*
%TO.P,S1,1*%
%TO.N,P3*%
X133064777Y-114478379D03*
%TO.P,S1,2*%
%TO.N,function_bottom*%
X121478141Y-116476468D03*
%TD*%
%TO.P,S2,1*%
%TO.N,P3*%
X133523120Y-94141343D03*
%TO.P,S2,2*%
%TO.N,function_main*%
X121903377Y-95936914D03*
%TD*%
%TO.P,S3,1*%
%TO.N,P3*%
X134336324Y-73815405D03*
%TO.P,S3,2*%
%TO.N,function_top*%
X122687013Y-75407909D03*
%TD*%
%TO.P,S4,1*%
%TO.N,P3*%
X135504139Y-53506754D03*
%TO.P,S4,2*%
%TO.N,function_numbers*%
X123828810Y-54895708D03*
%TD*%
%TO.P,S5,1*%
%TO.N,P4*%
X154968507Y-111663262D03*
%TO.P,S5,2*%
%TO.N,pinky_bottom*%
X143293178Y-113052216D03*
%TD*%
%TO.P,S6,1*%
%TO.N,P4*%
X156490580Y-91378086D03*
%TO.P,S6,2*%
%TO.N,pinky_main*%
X144792789Y-92563065D03*
%TD*%
%TO.P,S7,1*%
%TO.N,P4*%
X158366447Y-71122563D03*
%TO.P,S7,2*%
%TO.N,pinky_top*%
X146649756Y-72103208D03*
%TD*%
%TO.P,S8,1*%
%TO.N,P4*%
X160595535Y-50902863D03*
%TO.P,S8,2*%
%TO.N,pinky_numbers*%
X148863515Y-51678874D03*
%TD*%
%TO.P,S9,1*%
%TO.N,P5*%
X177346728Y-105075433D03*
%TO.P,S9,2*%
%TO.N,ring_bottom*%
X165602951Y-105646573D03*
%TD*%
%TO.P,S10,1*%
%TO.N,P5*%
X180185859Y-84873965D03*
%TO.P,S10,2*%
%TO.N,ring_main*%
X168442082Y-85445105D03*
%TD*%
%TO.P,S11,2*%
%TO.N,ring_top*%
X171281213Y-65243636D03*
%TO.P,S11,1*%
%TO.N,P5*%
X183024990Y-64672496D03*
%TD*%
%TO.P,S12,1*%
%TO.N,P5*%
X185864122Y-44471028D03*
%TO.P,S12,2*%
%TO.N,ring_numbers*%
X174120345Y-45042168D03*
%TD*%
%TO.P,S13,1*%
%TO.N,P6*%
X199612350Y-105486284D03*
%TO.P,S13,2*%
%TO.N,middle_bottom*%
X187863483Y-105031713D03*
%TD*%
%TO.P,S14,1*%
%TO.N,P6*%
X204201352Y-85609135D03*
%TO.P,S14,2*%
%TO.N,middle_main*%
X192452485Y-85154564D03*
%TD*%
%TO.P,S15,1*%
%TO.N,P6*%
X208790353Y-65731985D03*
%TO.P,S15,2*%
%TO.N,middle_top*%
X197041486Y-65277414D03*
%TD*%
%TO.P,S16,1*%
%TO.N,P6*%
X213379355Y-45854836D03*
%TO.P,S16,2*%
%TO.N,middle_numbers*%
X201630488Y-45400265D03*
%TD*%
%TO.P,S17,1*%
%TO.N,P15*%
X220325879Y-113596628D03*
%TO.P,S17,2*%
%TO.N,pointer_bottom*%
X208637341Y-112323605D03*
%TD*%
%TO.P,S18,1*%
%TO.N,P15*%
X226206926Y-94003712D03*
%TO.P,S18,2*%
%TO.N,pointer_main*%
X214497952Y-92934877D03*
%TD*%
%TO.P,S19,1*%
%TO.N,P15*%
X231745134Y-74311143D03*
%TO.P,S19,2*%
%TO.N,pointer_top*%
X220019289Y-73446820D03*
%TD*%
%TO.P,S20,1*%
%TO.N,P15*%
X236938817Y-54524917D03*
%TO.P,S20,2*%
%TO.N,pointer_numbers*%
X225199673Y-53865369D03*
%TD*%
%TO.P,S21,1*%
%TO.N,P18*%
X239564618Y-125288119D03*
%TO.P,S21,2*%
%TO.N,inner_bottom*%
X227958724Y-123405110D03*
%TD*%
%TO.P,S22,1*%
%TO.N,P18*%
X246463020Y-106029844D03*
%TO.P,S22,2*%
%TO.N,inner_main*%
X234826030Y-104349673D03*
%TD*%
%TO.P,S23,1*%
%TO.N,P18*%
X253024268Y-86654109D03*
%TO.P,S23,2*%
%TO.N,inner_top*%
X241359728Y-85177287D03*
%TD*%
%TO.P,S24,1*%
%TO.N,P18*%
X259246363Y-67166817D03*
%TO.P,S24,2*%
%TO.N,inner_numbers*%
X247557825Y-65893794D03*
%TD*%
%TO.P,S25,1*%
%TO.N,P19*%
X263923177Y-138038491D03*
%TO.P,S25,2*%
%TO.N,macro_bottom*%
X252431737Y-135550657D03*
%TD*%
%TO.P,S26,1*%
%TO.N,P19*%
X271820024Y-119167644D03*
%TO.P,S26,2*%
%TO.N,macro_main*%
X260286916Y-116880742D03*
%TD*%
%TO.P,S27,1*%
%TO.N,P19*%
X279386327Y-100161851D03*
%TO.P,S27,2*%
%TO.N,macro_top*%
X267815064Y-98076579D03*
%TD*%
%TO.P,S28,1*%
%TO.N,P19*%
X286619782Y-81026904D03*
%TO.P,S28,2*%
%TO.N,macro_numbers*%
X275013888Y-79143895D03*
%TD*%
%TO.P,S29,2*%
%TO.N,1_1*%
X209173568Y-163886995D03*
%TO.P,S29,1*%
%TO.N,P2*%
X219629547Y-169264261D03*
%TD*%
%TO.P,S30,2*%
%TO.N,1_2*%
X221733062Y-147811576D03*
%TO.P,S30,1*%
%TO.N,P2*%
X232189041Y-153188842D03*
%TD*%
%TO.P,S31,2*%
%TO.N,2_1*%
X225248988Y-176446489D03*
%TO.P,S31,1*%
%TO.N,P21*%
X235704967Y-181823755D03*
%TD*%
%TO.P,S32,2*%
%TO.N,2_2*%
X237808482Y-160371070D03*
%TO.P,S32,1*%
%TO.N,P21*%
X248264461Y-165748336D03*
%TD*%
D17*
%TO.P,REF\u002A\u002A,1*%
%TO.N,P3*%
X129834780Y-111871611D03*
%TD*%
%TO.P,REF\u002A\u002A,1*%
%TO.N,P3*%
X130339109Y-91478601D03*
%TD*%
%TO.P,REF\u002A\u002A,1*%
%TO.N,P3*%
X131199268Y-71097499D03*
%TD*%
%TO.P,REF\u002A\u002A,1*%
%TO.N,P3*%
X132414996Y-50734513D03*
%TD*%
%TO.P,REF\u002A\u002A,1*%
%TO.N,P4*%
X151879364Y-108891022D03*
%TD*%
%TO.P,REF\u002A\u002A,1*%
%TO.N,P4*%
X153450290Y-88552354D03*
%TD*%
%TO.P,REF\u002A\u002A,1*%
%TO.N,P4*%
X155375935Y-68244202D03*
%TD*%
%TO.P,REF\u002A\u002A,1*%
%TO.N,P4*%
X157655713Y-47972749D03*
%TD*%
%TO.P,REF\u002A\u002A,1*%
%TO.N,P5*%
X174458491Y-102094458D03*
%TD*%
%TO.P,REF\u002A\u002A,1*%
%TO.N,P5*%
X177297622Y-81892989D03*
%TD*%
%TO.P,REF\u002A\u002A,1*%
%TO.N,P5*%
X180136754Y-61691521D03*
%TD*%
%TO.P,REF\u002A\u002A,1*%
%TO.N,P5*%
X182975885Y-41490052D03*
%TD*%
%TO.P,REF\u002A\u002A,1*%
%TO.N,P6*%
X196994913Y-102264925D03*
%TD*%
%TO.P,REF\u002A\u002A,1*%
%TO.N,P6*%
X201583915Y-82387776D03*
%TD*%
%TO.P,REF\u002A\u002A,1*%
%TO.N,P6*%
X206172916Y-62510627D03*
%TD*%
%TO.P,REF\u002A\u002A,1*%
%TO.N,P6*%
X210761918Y-42633478D03*
%TD*%
%TO.P,REF\u002A\u002A,1*%
%TO.N,P15*%
X217939529Y-110200534D03*
%TD*%
%TO.P,REF\u002A\u002A,1*%
%TO.N,P15*%
X223761670Y-90649783D03*
%TD*%
%TO.P,REF\u002A\u002A,1*%
%TO.N,P15*%
X229241716Y-71000399D03*
%TD*%
%TO.P,REF\u002A\u002A,1*%
%TO.N,P15*%
X234377999Y-51258368D03*
%TD*%
%TO.P,REF\u002A\u002A,1*%
%TO.N,P18*%
X237359276Y-121771787D03*
%TD*%
%TO.P,REF\u002A\u002A,1*%
%TO.N,P18*%
X244196646Y-102552537D03*
%TD*%
%TO.P,REF\u002A\u002A,1*%
%TO.N,P18*%
X250697551Y-83216885D03*
%TD*%
%TO.P,REF\u002A\u002A,1*%
%TO.N,P18*%
X256860013Y-63770722D03*
%TD*%
%TO.P,REF\u002A\u002A,1*%
%TO.N,P19*%
X261904887Y-134411558D03*
%TD*%
%TO.P,REF\u002A\u002A,1*%
%TO.N,P19*%
X269738744Y-115576488D03*
%TD*%
%TO.P,REF\u002A\u002A,1*%
%TO.N,P19*%
X277242690Y-96607566D03*
%TD*%
%TO.P,REF\u002A\u002A,1*%
%TO.N,P19*%
X284414440Y-77510572D03*
%TD*%
%TO.P,REF\u002A\u002A,1*%
%TO.N,P2*%
X218618749Y-165238543D03*
%TD*%
%TO.P,REF\u002A\u002A,1*%
%TO.N,P2*%
X231178243Y-149163124D03*
%TD*%
%TO.P,REF\u002A\u002A,1*%
%TO.N,P21*%
X234694168Y-177798037D03*
%TD*%
%TO.P,REF\u002A\u002A,1*%
%TO.N,P21*%
X247253662Y-161722618D03*
%TD*%
D18*
%TO.P,D1,1*%
%TO.N,P14*%
X137404093Y-125155737D03*
%TO.P,D1,2*%
%TO.N,function_bottom*%
X137461685Y-121856239D03*
D19*
%TO.P,D1,1*%
%TO.N,P14*%
X137366395Y-127315408D03*
D12*
%TO.P,D1,2*%
%TO.N,function_bottom*%
X137499383Y-119696568D03*
%TD*%
D20*
%TO.P,D2,1*%
%TO.N,P16*%
X137675429Y-104892807D03*
%TO.P,D2,2*%
%TO.N,function_main*%
X137790597Y-101594817D03*
D21*
%TO.P,D2,1*%
%TO.N,P16*%
X137600046Y-107051491D03*
D12*
%TO.P,D2,2*%
%TO.N,function_main*%
X137865980Y-99436133D03*
%TD*%
D14*
%TO.P,D5,1*%
%TO.N,P14*%
X158743066Y-122553090D03*
%TO.P,D5,2*%
%TO.N,pinky_bottom*%
X158973262Y-119261128D03*
D15*
%TO.P,D5,1*%
%TO.N,P14*%
X158592392Y-124707828D03*
D12*
%TO.P,D5,2*%
%TO.N,pinky_bottom*%
X159123936Y-117106390D03*
%TD*%
D22*
%TO.P,D6,1*%
%TO.N,P16*%
X160074511Y-102332129D03*
%TO.P,D6,2*%
%TO.N,pinky_main*%
X160362125Y-99044687D03*
D23*
%TO.P,D6,1*%
%TO.N,P16*%
X159886255Y-104483910D03*
D12*
%TO.P,D6,2*%
%TO.N,pinky_main*%
X160550381Y-96892906D03*
%TD*%
D24*
%TO.P,D7,1*%
%TO.N,P7*%
X161758657Y-82137486D03*
%TO.P,D7,2*%
%TO.N,pinky_top*%
X162103601Y-78855564D03*
D25*
%TO.P,D7,1*%
%TO.N,P7*%
X161532876Y-84285653D03*
D12*
%TO.P,D7,2*%
%TO.N,pinky_top*%
X162329382Y-76707397D03*
%TD*%
D26*
%TO.P,D8,1*%
%TO.N,P8*%
X163794992Y-61975311D03*
%TO.P,D8,2*%
%TO.N,pinky_numbers*%
X164197160Y-58699909D03*
D27*
%TO.P,D8,1*%
%TO.N,P8*%
X163531754Y-64119211D03*
D12*
%TO.P,D8,2*%
%TO.N,pinky_numbers*%
X164460398Y-56556009D03*
%TD*%
D28*
%TO.P,D9,1*%
%TO.N,P14*%
X180352455Y-116202033D03*
%TO.P,D9,2*%
%TO.N,ring_bottom*%
X180811727Y-112934149D03*
D29*
%TO.P,D9,1*%
%TO.N,P14*%
X180051841Y-118341012D03*
D12*
%TO.P,D9,2*%
%TO.N,ring_bottom*%
X181112341Y-110795170D03*
%TD*%
D28*
%TO.P,D10,1*%
%TO.N,P16*%
X183191587Y-96000564D03*
%TO.P,D10,2*%
%TO.N,ring_main*%
X183650859Y-92732680D03*
D29*
%TO.P,D10,1*%
%TO.N,P16*%
X182890973Y-98139543D03*
D12*
%TO.P,D10,2*%
%TO.N,ring_main*%
X183951473Y-90593701D03*
%TD*%
D28*
%TO.P,D11,1*%
%TO.N,P7*%
X186030718Y-75799096D03*
%TO.P,D11,2*%
%TO.N,ring_top*%
X186489990Y-72531212D03*
D29*
%TO.P,D11,1*%
%TO.N,P7*%
X185730104Y-77938075D03*
D12*
%TO.P,D11,2*%
%TO.N,ring_top*%
X186790604Y-70392233D03*
%TD*%
D28*
%TO.P,D12,1*%
%TO.N,P8*%
X188869849Y-55597627D03*
%TO.P,D12,2*%
%TO.N,ring_numbers*%
X189329121Y-52329743D03*
D29*
%TO.P,D12,1*%
%TO.N,P8*%
X188569235Y-57736606D03*
D12*
%TO.P,D12,2*%
%TO.N,ring_numbers*%
X189629735Y-50190764D03*
%TD*%
D30*
%TO.P,D13,1*%
%TO.N,P14*%
X201636894Y-116832511D03*
%TO.P,D13,2*%
%TO.N,middle_bottom*%
X202379232Y-113617089D03*
D31*
%TO.P,D13,1*%
%TO.N,P14*%
X201150999Y-118937150D03*
D12*
%TO.P,D13,2*%
%TO.N,middle_bottom*%
X202865127Y-111512450D03*
%TD*%
D30*
%TO.P,D14,1*%
%TO.N,P16*%
X206225895Y-96955361D03*
%TO.P,D14,2*%
%TO.N,middle_main*%
X206968233Y-93739939D03*
D31*
%TO.P,D14,1*%
%TO.N,P16*%
X205740000Y-99060000D03*
D12*
%TO.P,D14,2*%
%TO.N,middle_main*%
X207454128Y-91635300D03*
%TD*%
D30*
%TO.P,D15,1*%
%TO.N,P7*%
X210814896Y-77078212D03*
%TO.P,D15,2*%
%TO.N,middle_top*%
X211557234Y-73862790D03*
D31*
%TO.P,D15,1*%
%TO.N,P7*%
X210329001Y-79182851D03*
D12*
%TO.P,D15,2*%
%TO.N,middle_top*%
X212043129Y-71758151D03*
%TD*%
D30*
%TO.P,D16,1*%
%TO.N,P8*%
X215403898Y-57201063D03*
%TO.P,D16,2*%
%TO.N,middle_numbers*%
X216146236Y-53985641D03*
D31*
%TO.P,D16,1*%
%TO.N,P8*%
X214918003Y-59305702D03*
D12*
%TO.P,D16,2*%
%TO.N,middle_numbers*%
X216632131Y-51881002D03*
%TD*%
D32*
%TO.P,D17,1*%
%TO.N,P14*%
X221554018Y-125056441D03*
%TO.P,D17,2*%
%TO.N,pointer_bottom*%
X222518844Y-121900635D03*
D33*
%TO.P,D17,1*%
%TO.N,P14*%
X220922495Y-127122059D03*
D12*
%TO.P,D17,2*%
%TO.N,pointer_bottom*%
X223150367Y-119835017D03*
%TD*%
D34*
%TO.P,D18,1*%
%TO.N,P16*%
X227634879Y-105440346D03*
%TO.P,D18,2*%
%TO.N,pointer_main*%
X228544483Y-102268182D03*
D35*
%TO.P,D18,1*%
%TO.N,P16*%
X227039503Y-107516671D03*
D12*
%TO.P,D18,2*%
%TO.N,pointer_main*%
X229139859Y-100191857D03*
%TD*%
D36*
%TO.P,D19,1*%
%TO.N,P7*%
X233372468Y-85721113D03*
%TO.P,D19,2*%
%TO.N,pointer_top*%
X234226570Y-82533557D03*
D37*
%TO.P,D19,1*%
%TO.N,P7*%
X232813418Y-87807512D03*
D12*
%TO.P,D19,2*%
%TO.N,pointer_top*%
X234785620Y-80447158D03*
%TD*%
D38*
%TO.P,D20,1*%
%TO.N,P8*%
X238765033Y-65904748D03*
%TO.P,D20,2*%
%TO.N,pointer_numbers*%
X239563375Y-62702772D03*
D39*
%TO.P,D20,1*%
%TO.N,P8*%
X238242482Y-68000587D03*
D12*
%TO.P,D20,2*%
%TO.N,pointer_numbers*%
X240085926Y-60606933D03*
%TD*%
D40*
%TO.P,D21,1*%
%TO.N,P14*%
X240191314Y-136796502D03*
%TO.P,D21,2*%
%TO.N,inner_bottom*%
X241319980Y-133695516D03*
D41*
%TO.P,D21,1*%
%TO.N,P14*%
X239452550Y-138826238D03*
D12*
%TO.P,D21,2*%
%TO.N,inner_bottom*%
X242058744Y-131665780D03*
%TD*%
D42*
%TO.P,D22,1*%
%TO.N,P16*%
X247290470Y-117525538D03*
%TO.P,D22,2*%
%TO.N,inner_main*%
X248364844Y-114405326D03*
D43*
%TO.P,D22,1*%
%TO.N,P16*%
X246587242Y-119567858D03*
D12*
%TO.P,D22,2*%
%TO.N,inner_main*%
X249068072Y-112363006D03*
%TD*%
D44*
%TO.P,D23,1*%
%TO.N,P7*%
X254052218Y-98133611D03*
%TO.P,D23,2*%
%TO.N,inner_top*%
X255071974Y-94995125D03*
D45*
%TO.P,D23,1*%
%TO.N,P7*%
X253384741Y-100187893D03*
D12*
%TO.P,D23,2*%
%TO.N,inner_top*%
X255739451Y-92940843D03*
%TD*%
D32*
%TO.P,D24,1*%
%TO.N,P8*%
X260474502Y-78626629D03*
%TO.P,D24,2*%
%TO.N,inner_numbers*%
X261439328Y-75470823D03*
D33*
%TO.P,D24,1*%
%TO.N,P8*%
X259842979Y-80692247D03*
D12*
%TO.P,D24,2*%
%TO.N,inner_numbers*%
X262070851Y-73405205D03*
%TD*%
D46*
%TO.P,D25,1*%
%TO.N,P14*%
X263946711Y-149563900D03*
%TO.P,D25,2*%
%TO.N,macro_bottom*%
X265236123Y-146526234D03*
D47*
%TO.P,D25,1*%
%TO.N,P14*%
X263102731Y-151552190D03*
D12*
%TO.P,D25,2*%
%TO.N,macro_bottom*%
X266080103Y-144537944D03*
%TD*%
D48*
%TO.P,D26,1*%
%TO.N,P16*%
X272044701Y-130690887D03*
%TO.P,D26,2*%
%TO.N,macro_main*%
X273280903Y-127631181D03*
D49*
%TO.P,D26,1*%
%TO.N,P16*%
X271235551Y-132693604D03*
D12*
%TO.P,D26,2*%
%TO.N,macro_main*%
X274090053Y-125628464D03*
%TD*%
D50*
%TO.P,D27,1*%
%TO.N,P7*%
X279812079Y-111679419D03*
%TO.P,D27,2*%
%TO.N,macro_top*%
X280994693Y-108598603D03*
D51*
%TO.P,D27,1*%
%TO.N,P7*%
X279038004Y-113695952D03*
D12*
%TO.P,D27,2*%
%TO.N,macro_top*%
X281768768Y-106582070D03*
%TD*%
D40*
%TO.P,D28,1*%
%TO.N,P8*%
X287246477Y-92535287D03*
%TO.P,D28,2*%
%TO.N,macro_numbers*%
X288375143Y-89434301D03*
D41*
%TO.P,D28,1*%
%TO.N,P8*%
X286507713Y-94565023D03*
D12*
%TO.P,D28,2*%
%TO.N,macro_numbers*%
X289113907Y-87404565D03*
%TD*%
D52*
%TO.P,D29,1*%
%TO.N,P14*%
X216669285Y-180403044D03*
%TO.P,D29,2*%
%TO.N,1_1*%
X218700967Y-177802608D03*
D53*
%TO.P,D29,1*%
%TO.N,P14*%
X215339456Y-182105147D03*
D12*
%TO.P,D29,2*%
%TO.N,1_1*%
X220030796Y-176100505D03*
%TD*%
D52*
%TO.P,D30,1*%
%TO.N,P16*%
X229228779Y-164327625D03*
%TO.P,D30,2*%
%TO.N,1_2*%
X231260461Y-161727189D03*
D53*
%TO.P,D30,1*%
%TO.N,P16*%
X227898950Y-166029728D03*
D12*
%TO.P,D30,2*%
%TO.N,1_2*%
X232590290Y-160025086D03*
%TD*%
D52*
%TO.P,D31,1*%
%TO.N,P14*%
X232744704Y-192962538D03*
%TO.P,D31,2*%
%TO.N,2_1*%
X234776386Y-190362102D03*
D53*
%TO.P,D31,1*%
%TO.N,P14*%
X231414875Y-194664641D03*
D12*
%TO.P,D31,2*%
%TO.N,2_1*%
X236106215Y-188659999D03*
%TD*%
D52*
%TO.P,D32,1*%
%TO.N,P16*%
X245304198Y-176887119D03*
%TO.P,D32,2*%
%TO.N,2_2*%
X247335880Y-174286683D03*
D53*
%TO.P,D32,1*%
%TO.N,P16*%
X243974369Y-178589222D03*
D12*
%TO.P,D32,2*%
%TO.N,2_2*%
X248665709Y-172584580D03*
%TD*%
D54*
%TO.P,MCU1,24*%
%TO.N,P9*%
X199520860Y-137404971D03*
%TO.P,MCU1,23*%
%TO.N,P8*%
X196981246Y-137360642D03*
%TO.P,MCU1,22*%
%TO.N,P7*%
X194441633Y-137316312D03*
%TO.P,MCU1,21*%
%TO.N,P6*%
X191902020Y-137271983D03*
%TO.P,MCU1,20*%
%TO.N,P5*%
X189362407Y-137227654D03*
%TO.P,MCU1,19*%
%TO.N,P4*%
X186822794Y-137183325D03*
%TO.P,MCU1,18*%
%TO.N,P3*%
X184283181Y-137138996D03*
%TO.P,MCU1,17*%
%TO.N,P2*%
X181743568Y-137094667D03*
%TO.P,MCU1,16*%
%TO.N,N/C*%
X179203954Y-137050338D03*
%TO.P,MCU1,15*%
X176664341Y-137006009D03*
%TO.P,MCU1,14*%
%TO.N,GND*%
X174124728Y-136961680D03*
%TO.P,MCU1,13*%
%TO.N,RAW*%
X171585115Y-136917350D03*
%TO.P,MCU1,12*%
%TO.N,P10*%
X199254885Y-152642650D03*
%TO.P,MCU1,11*%
%TO.N,P16*%
X196715272Y-152598320D03*
%TO.P,MCU1,10*%
%TO.N,P14*%
X194175659Y-152553991D03*
%TO.P,MCU1,9*%
%TO.N,P15*%
X191636046Y-152509662D03*
%TO.P,MCU1,8*%
%TO.N,P18*%
X189096432Y-152465333D03*
%TO.P,MCU1,7*%
%TO.N,P19*%
X186556819Y-152421004D03*
%TO.P,MCU1,6*%
%TO.N,P20*%
X184017206Y-152376675D03*
%TO.P,MCU1,5*%
%TO.N,P21*%
X181477593Y-152332346D03*
%TO.P,MCU1,4*%
%TO.N,VCC*%
X178937980Y-152288017D03*
%TO.P,MCU1,3*%
%TO.N,RST*%
X176398367Y-152243688D03*
%TO.P,MCU1,2*%
%TO.N,GND*%
X173858754Y-152199358D03*
D55*
%TO.P,MCU1,1*%
%TO.N,RAW*%
X171319140Y-152155029D03*
%TD*%
D56*
%TO.N,GND*%
X257826924Y-158311974D02*
X252123565Y-158311974D01*
X252123565Y-158311974D02*
X251721480Y-158714059D01*
X255130879Y-164663458D02*
X253027421Y-162560000D01*
X181943048Y-144780000D02*
X174124728Y-136961680D01*
X253027421Y-162560000D02*
X251959652Y-162560000D01*
X251959652Y-162560000D02*
X251721480Y-162321828D01*
X251721480Y-162321828D02*
X251721480Y-158714059D01*
X251721480Y-158714059D02*
X237787421Y-144780000D01*
X237787421Y-144780000D02*
X181943048Y-144780000D01*
D57*
%TO.N,P10*%
X264270458Y-161047092D02*
X261574413Y-163743137D01*
X261574413Y-163743137D02*
X261574413Y-167398576D01*
D56*
%TO.N,RAW*%
X255017005Y-161037005D02*
X255017005Y-162116492D01*
D57*
%TO.N,P21*%
X247253662Y-161722618D02*
X248264461Y-162733417D01*
X248264461Y-162733417D02*
X248264461Y-165748336D01*
D56*
%TO.N,RAW*%
X255017005Y-162116492D02*
X255017005Y-160898013D01*
D57*
%TO.N,P9*%
X252763889Y-156977110D02*
X258611154Y-156977110D01*
X258611154Y-156977110D02*
X261508943Y-159874899D01*
%TO.N,P10*%
X251146480Y-160020000D02*
X251146480Y-162560000D01*
X251146480Y-162560000D02*
X256226480Y-167640000D01*
X256226480Y-167640000D02*
X261332989Y-167640000D01*
X261332989Y-167640000D02*
X261574413Y-167398576D01*
D56*
%TO.N,RAW*%
X255017005Y-160898013D02*
X255915687Y-159999331D01*
D57*
%TO.N,P9*%
X261508943Y-159874899D02*
X258812898Y-162570944D01*
X258812898Y-162570944D02*
X258812898Y-166226382D01*
%TO.N,P10*%
X199254885Y-152642650D02*
X206235733Y-145661802D01*
X206235733Y-145661802D02*
X236788282Y-145661802D01*
X236788282Y-145661802D02*
X251146480Y-160020000D01*
%TO.N,P7*%
X138300361Y-84637698D02*
X138300361Y-86681692D01*
X138300361Y-86681692D02*
X138187315Y-86794738D01*
%TO.N,P8*%
X139278699Y-64396581D02*
X139278699Y-66400645D01*
X139278699Y-66400645D02*
X139128025Y-66551319D01*
X215403898Y-57201063D02*
X215403898Y-58819807D01*
X215403898Y-58819807D02*
X214918003Y-59305702D01*
%TO.N,middle_numbers*%
X216632131Y-51881002D02*
X216632131Y-53499746D01*
X216632131Y-53499746D02*
X216146236Y-53985641D01*
%TO.N,P8*%
X188869849Y-55597627D02*
X188869849Y-57435992D01*
X188869849Y-57435992D02*
X188569235Y-57736606D01*
%TO.N,ring_numbers*%
X189629735Y-50190764D02*
X189629735Y-52029129D01*
X189629735Y-52029129D02*
X189329121Y-52329743D01*
%TO.N,pinky_main*%
X160550381Y-96892906D02*
X160550381Y-98856431D01*
X160550381Y-98856431D02*
X160362125Y-99044687D01*
%TO.N,P7*%
X186030718Y-75799096D02*
X186030718Y-77637461D01*
X186030718Y-77637461D02*
X185730104Y-77938075D01*
%TO.N,ring_top*%
X186790604Y-70392233D02*
X186790604Y-72230598D01*
X186790604Y-72230598D02*
X186489990Y-72531212D01*
%TO.N,P14*%
X221554018Y-125056441D02*
X221554018Y-126490536D01*
X221554018Y-126490536D02*
X220922495Y-127122059D01*
X240191314Y-136796502D02*
X240191314Y-138087474D01*
X240191314Y-138087474D02*
X239452550Y-138826238D01*
%TO.N,inner_bottom*%
X242058744Y-131665780D02*
X242058744Y-132956752D01*
X242058744Y-132956752D02*
X241319980Y-133695516D01*
%TO.N,P14*%
X216669285Y-180403044D02*
X216669285Y-180775318D01*
X216669285Y-180775318D02*
X215339456Y-182105147D01*
%TO.N,P7*%
X279812079Y-111679419D02*
X279812079Y-112921877D01*
X279812079Y-112921877D02*
X279038004Y-113695952D01*
%TO.N,macro_numbers*%
X288375143Y-89434301D02*
X289113907Y-88695537D01*
X289113907Y-88695537D02*
X289113907Y-87404565D01*
%TO.N,pointer_numbers*%
X240085926Y-60606933D02*
X240085926Y-62180221D01*
X240085926Y-62180221D02*
X239563375Y-62702772D01*
%TO.N,P4*%
X155375935Y-68244202D02*
X158254296Y-71122563D01*
X158254296Y-71122563D02*
X158366447Y-71122563D01*
%TO.N,P21*%
X235704967Y-181823755D02*
X232488873Y-181823755D01*
X232488873Y-181823755D02*
X231140000Y-180474882D01*
X231140000Y-180474882D02*
X231140000Y-176875910D01*
X231140000Y-176875910D02*
X208108040Y-153843950D01*
X208108040Y-153843950D02*
X188776154Y-153843950D01*
X188776154Y-153843950D02*
X187895132Y-152962928D01*
X187895132Y-152962928D02*
X187895132Y-152060422D01*
X187895132Y-152060422D02*
X185694710Y-149860000D01*
X185694710Y-149860000D02*
X183949939Y-149860000D01*
X183949939Y-149860000D02*
X181477593Y-152332346D01*
%TO.N,P9*%
X199520860Y-137404971D02*
X233191750Y-137404971D01*
X233191750Y-137404971D02*
X252763889Y-156977110D01*
D56*
%TO.N,GND*%
X174124728Y-136961680D02*
X174124728Y-151933384D01*
X174124728Y-151933384D02*
X173858754Y-152199358D01*
%TO.N,RAW*%
X171585115Y-136917350D02*
X171585115Y-151889054D01*
X171585115Y-151889054D02*
X171319140Y-152155029D01*
D57*
%TO.N,1_1*%
X220030796Y-176100505D02*
X220030796Y-176472779D01*
X220030796Y-176472779D02*
X218700967Y-177802608D01*
X209173568Y-163886995D02*
X209173568Y-165974201D01*
X209173568Y-165974201D02*
X213046501Y-169847134D01*
X213046501Y-169847134D02*
X214251125Y-169847134D01*
X214251125Y-169847134D02*
X220030796Y-175626805D01*
X220030796Y-175626805D02*
X220030796Y-176100505D01*
%TO.N,P2*%
X218618749Y-165238543D02*
X219629547Y-166249341D01*
X219629547Y-166249341D02*
X219629547Y-169264261D01*
%TO.N,P21*%
X235704967Y-181823755D02*
X235704967Y-178808836D01*
X235704967Y-178808836D02*
X234694168Y-177798037D01*
%TO.N,2_1*%
X236106215Y-188659999D02*
X236106215Y-187846215D01*
X228597780Y-180337780D02*
X227053073Y-180337780D01*
X236106215Y-187846215D02*
X228597780Y-180337780D01*
X227053073Y-180337780D02*
X225248988Y-178533695D01*
X225248988Y-178533695D02*
X225248988Y-176446489D01*
X234776386Y-190362102D02*
X234776386Y-189989828D01*
X234776386Y-189989828D02*
X236106215Y-188659999D01*
%TO.N,P14*%
X232744704Y-192962538D02*
X232744704Y-193334812D01*
X232744704Y-193334812D02*
X231414875Y-194664641D01*
X215339456Y-182105147D02*
X218855381Y-182105147D01*
X218855381Y-182105147D02*
X231414875Y-194664641D01*
%TO.N,P16*%
X227898950Y-166029728D02*
X231414875Y-166029728D01*
X231414875Y-166029728D02*
X243974369Y-178589222D01*
X245304198Y-176887119D02*
X245304198Y-177259393D01*
X245304198Y-177259393D02*
X243974369Y-178589222D01*
%TO.N,2_2*%
X248665709Y-172584580D02*
X248665709Y-172956854D01*
X248665709Y-172956854D02*
X247335880Y-174286683D01*
X237808482Y-160371070D02*
X237808482Y-162458276D01*
X237808482Y-162458276D02*
X240450206Y-165100000D01*
X240450206Y-165100000D02*
X241654830Y-165100000D01*
X241654830Y-165100000D02*
X248665709Y-172110879D01*
X248665709Y-172110879D02*
X248665709Y-172584580D01*
%TO.N,P2*%
X232189041Y-153188842D02*
X232189041Y-150173922D01*
X232189041Y-150173922D02*
X231178243Y-149163124D01*
%TO.N,P16*%
X229228779Y-164327625D02*
X229228779Y-164699899D01*
X229228779Y-164699899D02*
X227898950Y-166029728D01*
%TO.N,1_2*%
X232590290Y-160025086D02*
X232590290Y-160397360D01*
X232590290Y-160397360D02*
X231260461Y-161727189D01*
X221733062Y-147811576D02*
X221733062Y-149898782D01*
X221733062Y-149898782D02*
X224881831Y-153047551D01*
X226605323Y-153047551D02*
X232590290Y-159032518D01*
X224881831Y-153047551D02*
X226605323Y-153047551D01*
X232590290Y-159032518D02*
X232590290Y-160025086D01*
%TO.N,P15*%
X220325879Y-113596628D02*
X220325879Y-112586884D01*
X220325879Y-112586884D02*
X217939529Y-110200534D01*
%TO.N,pointer_bottom*%
X223150367Y-119835017D02*
X223150367Y-121269112D01*
X223150367Y-121269112D02*
X222518844Y-121900635D01*
X208637341Y-112323605D02*
X208637341Y-113683004D01*
X221675106Y-118359756D02*
X223150367Y-119835017D01*
X208637341Y-113683004D02*
X210110460Y-115156123D01*
X210110460Y-115156123D02*
X215236367Y-115156123D01*
X215236367Y-115156123D02*
X218440000Y-118359756D01*
X218440000Y-118359756D02*
X221675106Y-118359756D01*
%TO.N,P14*%
X221554018Y-125056441D02*
X207270290Y-125056441D01*
X207270290Y-125056441D02*
X201150999Y-118937150D01*
X240191314Y-136796502D02*
X230596938Y-136796502D01*
X230596938Y-136796502D02*
X220922495Y-127122059D01*
%TO.N,P19*%
X263923177Y-138038491D02*
X263923177Y-136429848D01*
X263923177Y-136429848D02*
X261904887Y-134411558D01*
%TO.N,macro_bottom*%
X266080103Y-144537944D02*
X266080103Y-145682254D01*
X266080103Y-145682254D02*
X265236123Y-146526234D01*
X252431737Y-135550657D02*
X252431737Y-136962926D01*
X252431737Y-136962926D02*
X255168811Y-139700000D01*
X255168811Y-139700000D02*
X259080000Y-139700000D01*
X259080000Y-139700000D02*
X261992612Y-142612612D01*
X261992612Y-142612612D02*
X264154771Y-142612612D01*
X264154771Y-142612612D02*
X266080103Y-144537944D01*
%TO.N,P18*%
X239564618Y-125288119D02*
X239564618Y-123977129D01*
X239564618Y-123977129D02*
X237359276Y-121771787D01*
%TO.N,inner_bottom*%
X227958724Y-123405110D02*
X227958724Y-124788541D01*
X236713813Y-127000000D02*
X241379593Y-131665780D01*
X227958724Y-124788541D02*
X230170183Y-127000000D01*
X230170183Y-127000000D02*
X236713813Y-127000000D01*
X241379593Y-131665780D02*
X242058744Y-131665780D01*
%TO.N,P14*%
X263946711Y-149563900D02*
X250190212Y-149563900D01*
X250190212Y-149563900D02*
X239452550Y-138826238D01*
X263102731Y-151552190D02*
X263102731Y-150407880D01*
X263102731Y-150407880D02*
X263946711Y-149563900D01*
%TO.N,P19*%
X271820024Y-119167644D02*
X271820024Y-117657768D01*
X271820024Y-117657768D02*
X269738744Y-115576488D01*
%TO.N,macro_main*%
X260286916Y-116880742D02*
X260286916Y-118495370D01*
X260286916Y-118495370D02*
X263159597Y-121368051D01*
X263159597Y-121368051D02*
X268856064Y-121368051D01*
X271780000Y-124291987D02*
X272753576Y-124291987D01*
X268856064Y-121368051D02*
X271780000Y-124291987D01*
X272753576Y-124291987D02*
X274090053Y-125628464D01*
%TO.N,pointer_main*%
X229139859Y-100191857D02*
X229139859Y-101672806D01*
X229139859Y-101672806D02*
X228544483Y-102268182D01*
X214497952Y-92934877D02*
X214497952Y-93936957D01*
X214497952Y-93936957D02*
X217292002Y-96731007D01*
X217292002Y-96731007D02*
X223731007Y-96731007D01*
X223731007Y-96731007D02*
X226110612Y-99110612D01*
X226110612Y-99110612D02*
X228058614Y-99110612D01*
X228058614Y-99110612D02*
X229139859Y-100191857D01*
%TO.N,P15*%
X223761670Y-90649783D02*
X225269783Y-90649783D01*
X225269783Y-90649783D02*
X226206926Y-91586926D01*
X226206926Y-91586926D02*
X226206926Y-94003712D01*
%TO.N,P18*%
X246463020Y-106029844D02*
X246463020Y-104818911D01*
X246463020Y-104818911D02*
X244196646Y-102552537D01*
%TO.N,inner_main*%
X249068072Y-112363006D02*
X249068072Y-113702098D01*
X249068072Y-113702098D02*
X248364844Y-114405326D01*
X234826030Y-104349673D02*
X234826030Y-104970985D01*
X234826030Y-104970985D02*
X238354989Y-108499944D01*
X238354989Y-108499944D02*
X243725775Y-108499944D01*
X243725775Y-108499944D02*
X246380000Y-111154169D01*
X246380000Y-111154169D02*
X247859235Y-111154169D01*
X247859235Y-111154169D02*
X249068072Y-112363006D01*
%TO.N,macro_main*%
X273280903Y-127631181D02*
X273280903Y-126437614D01*
X273280903Y-126437614D02*
X274090053Y-125628464D01*
%TO.N,P16*%
X272044701Y-130690887D02*
X272044701Y-131884454D01*
X272044701Y-131884454D02*
X271235551Y-132693604D01*
X246587242Y-119567858D02*
X257710271Y-130690887D01*
X257710271Y-130690887D02*
X272044701Y-130690887D01*
X247290470Y-117525538D02*
X247290470Y-118864630D01*
X247290470Y-118864630D02*
X246587242Y-119567858D01*
X227039503Y-107516671D02*
X237048370Y-117525538D01*
X237048370Y-117525538D02*
X247290470Y-117525538D01*
X227634879Y-105440346D02*
X227634879Y-106921295D01*
X227634879Y-106921295D02*
X227039503Y-107516671D01*
X205740000Y-99060000D02*
X212120346Y-105440346D01*
X212120346Y-105440346D02*
X227634879Y-105440346D01*
%TO.N,P15*%
X231745134Y-74311143D02*
X231745134Y-73503817D01*
X231745134Y-73503817D02*
X229241716Y-71000399D01*
%TO.N,pointer_top*%
X234785620Y-80447158D02*
X234785620Y-81974507D01*
X234785620Y-81974507D02*
X234226570Y-82533557D01*
X220019289Y-73446820D02*
X220019289Y-74792679D01*
X220019289Y-74792679D02*
X221426610Y-76200000D01*
X221426610Y-76200000D02*
X229507663Y-76200000D01*
X229507663Y-76200000D02*
X232065305Y-78757642D01*
X232065305Y-78757642D02*
X233096104Y-78757642D01*
X233096104Y-78757642D02*
X234785620Y-80447158D01*
%TO.N,inner_top*%
X255739451Y-92940843D02*
X254994708Y-92940843D01*
X254994708Y-92940843D02*
X250118183Y-88064318D01*
X250118183Y-88064318D02*
X242879858Y-88064318D01*
X242879858Y-88064318D02*
X241359728Y-86544188D01*
X241359728Y-86544188D02*
X241359728Y-85177287D01*
X255739451Y-92940843D02*
X255739451Y-94327648D01*
X255739451Y-94327648D02*
X255071974Y-94995125D01*
%TO.N,P18*%
X250697551Y-83216885D02*
X253024268Y-85543602D01*
X253024268Y-85543602D02*
X253024268Y-86654109D01*
%TO.N,P19*%
X279386327Y-100161851D02*
X279386327Y-98751203D01*
X279386327Y-98751203D02*
X277242690Y-96607566D01*
%TO.N,macro_top*%
X281768768Y-106582070D02*
X281304851Y-106582070D01*
X281304851Y-106582070D02*
X276322781Y-101600000D01*
X276322781Y-101600000D02*
X270570656Y-101600000D01*
X270570656Y-101600000D02*
X267815064Y-98844408D01*
X267815064Y-98844408D02*
X267815064Y-98076579D01*
X280994693Y-108598603D02*
X280994693Y-107356145D01*
X280994693Y-107356145D02*
X281768768Y-106582070D01*
%TO.N,P7*%
X253384741Y-100187893D02*
X264876267Y-111679419D01*
X264876267Y-111679419D02*
X279812079Y-111679419D01*
X254052218Y-98133611D02*
X254052218Y-99520416D01*
X254052218Y-99520416D02*
X253384741Y-100187893D01*
X232813418Y-87807512D02*
X243139517Y-98133611D01*
X243139517Y-98133611D02*
X254052218Y-98133611D01*
X233372468Y-85721113D02*
X233372468Y-87248462D01*
X233372468Y-87248462D02*
X232813418Y-87807512D01*
%TO.N,P19*%
X284414440Y-77510572D02*
X286619782Y-79715914D01*
X286619782Y-79715914D02*
X286619782Y-81026904D01*
%TO.N,macro_numbers*%
X289113907Y-87404565D02*
X288557011Y-87404565D01*
X288557011Y-87404565D02*
X283291457Y-82139011D01*
X283291457Y-82139011D02*
X276625573Y-82139011D01*
X276625573Y-82139011D02*
X275013888Y-80527326D01*
X275013888Y-80527326D02*
X275013888Y-79143895D01*
%TO.N,P8*%
X287246477Y-92535287D02*
X287246477Y-93826259D01*
X287246477Y-93826259D02*
X286507713Y-94565023D01*
X259842979Y-80692247D02*
X271686019Y-92535287D01*
X271686019Y-92535287D02*
X287246477Y-92535287D01*
%TO.N,P18*%
X256860013Y-63770722D02*
X259246363Y-66157072D01*
X259246363Y-66157072D02*
X259246363Y-67166817D01*
%TO.N,inner_numbers*%
X262070851Y-73405205D02*
X260315675Y-71650029D01*
X260315675Y-71650029D02*
X257080568Y-71650029D01*
X257080568Y-71650029D02*
X254156851Y-68726312D01*
X254156851Y-68726312D02*
X249066312Y-68726312D01*
X249066312Y-68726312D02*
X247557825Y-67217825D01*
X247557825Y-67217825D02*
X247557825Y-65893794D01*
X261439328Y-75470823D02*
X261439328Y-74036728D01*
X261439328Y-74036728D02*
X262070851Y-73405205D01*
%TO.N,P8*%
X260474502Y-78626629D02*
X260474502Y-80060724D01*
X260474502Y-80060724D02*
X259842979Y-80692247D01*
X238242482Y-68000587D02*
X248868524Y-78626629D01*
X248868524Y-78626629D02*
X260474502Y-78626629D01*
%TO.N,P7*%
X210329001Y-79182851D02*
X216867263Y-85721113D01*
X216867263Y-85721113D02*
X233372468Y-85721113D01*
%TO.N,P8*%
X214918003Y-59305702D02*
X221517049Y-65904748D01*
X221517049Y-65904748D02*
X238765033Y-65904748D01*
X238765033Y-65904748D02*
X238765033Y-67478036D01*
X238765033Y-67478036D02*
X238242482Y-68000587D01*
%TO.N,pointer_numbers*%
X239563375Y-61129484D02*
X240085926Y-60606933D01*
X225199673Y-53865369D02*
X225199673Y-55205167D01*
X225199673Y-55205167D02*
X226527170Y-56532664D01*
X226527170Y-56532664D02*
X234332664Y-56532664D01*
X234332664Y-56532664D02*
X237410552Y-59610552D01*
X237410552Y-59610552D02*
X239089545Y-59610552D01*
X239089545Y-59610552D02*
X240085926Y-60606933D01*
%TO.N,P15*%
X234377999Y-51258368D02*
X236938817Y-53819186D01*
X236938817Y-53819186D02*
X236938817Y-54524917D01*
%TO.N,P6*%
X213379355Y-45854836D02*
X213379355Y-44520641D01*
X213379355Y-44520641D02*
X211492192Y-42633478D01*
X211492192Y-42633478D02*
X210761918Y-42633478D01*
%TO.N,middle_numbers*%
X201630488Y-45400265D02*
X201630488Y-45670154D01*
X201630488Y-45670154D02*
X204220334Y-48260000D01*
X204220334Y-48260000D02*
X210678522Y-48260000D01*
X210678522Y-48260000D02*
X213218522Y-50800000D01*
X213218522Y-50800000D02*
X215551129Y-50800000D01*
X215551129Y-50800000D02*
X216632131Y-51881002D01*
%TO.N,P8*%
X188869849Y-55597627D02*
X211209928Y-55597627D01*
X211209928Y-55597627D02*
X214918003Y-59305702D01*
%TO.N,P6*%
X208790353Y-65731985D02*
X208790353Y-65128064D01*
X208790353Y-65128064D02*
X206172916Y-62510627D01*
%TO.N,middle_top*%
X212043129Y-71758151D02*
X211089081Y-70804103D01*
X211089081Y-70804103D02*
X207227162Y-70804103D01*
X207227162Y-70804103D02*
X204312188Y-67889129D01*
X204312188Y-67889129D02*
X199455898Y-67889129D01*
X199455898Y-67889129D02*
X197041486Y-65474717D01*
X197041486Y-65474717D02*
X197041486Y-65277414D01*
X211557234Y-73862790D02*
X211557234Y-72244046D01*
X211557234Y-72244046D02*
X212043129Y-71758151D01*
%TO.N,P7*%
X210329001Y-79182851D02*
X210329001Y-77564107D01*
X210329001Y-77564107D02*
X210814896Y-77078212D01*
X186030718Y-75799096D02*
X206945246Y-75799096D01*
X206945246Y-75799096D02*
X210329001Y-79182851D01*
%TO.N,P6*%
X204201352Y-85609135D02*
X204201352Y-85005213D01*
X204201352Y-85005213D02*
X201583915Y-82387776D01*
%TO.N,middle_main*%
X207454128Y-91635300D02*
X207454128Y-93254044D01*
X207454128Y-93254044D02*
X206968233Y-93739939D01*
X192452485Y-85154564D02*
X192452485Y-86488759D01*
X192452485Y-86488759D02*
X193730005Y-87766279D01*
X193730005Y-87766279D02*
X202361087Y-87766279D01*
X202361087Y-87766279D02*
X204610598Y-90015790D01*
X204610598Y-90015790D02*
X205834618Y-90015790D01*
X205834618Y-90015790D02*
X207454128Y-91635300D01*
%TO.N,P16*%
X205740000Y-99060000D02*
X205740000Y-97441256D01*
X205740000Y-97441256D02*
X206225895Y-96955361D01*
X183191587Y-96000564D02*
X202680564Y-96000564D01*
X202680564Y-96000564D02*
X205740000Y-99060000D01*
%TO.N,P14*%
X180352455Y-116202033D02*
X198415882Y-116202033D01*
X198415882Y-116202033D02*
X201150999Y-118937150D01*
%TO.N,P6*%
X199612350Y-105486284D02*
X199612350Y-104882362D01*
X199612350Y-104882362D02*
X196994913Y-102264925D01*
%TO.N,P14*%
X201636894Y-116832511D02*
X201636894Y-118451255D01*
X201636894Y-118451255D02*
X201150999Y-118937150D01*
%TO.N,middle_bottom*%
X202865127Y-111512450D02*
X202865127Y-113131194D01*
X202865127Y-113131194D02*
X202379232Y-113617089D01*
X187863483Y-105031713D02*
X187863483Y-105229016D01*
X187863483Y-105229016D02*
X191092038Y-108457571D01*
X191092038Y-108457571D02*
X197357571Y-108457571D01*
X201911079Y-110558402D02*
X202865127Y-111512450D01*
X197357571Y-108457571D02*
X199458402Y-110558402D01*
X199458402Y-110558402D02*
X201911079Y-110558402D01*
%TO.N,P5*%
X174458491Y-102094458D02*
X177346728Y-104982695D01*
X177346728Y-104982695D02*
X177346728Y-105075433D01*
%TO.N,P4*%
X154968507Y-111663262D02*
X154651604Y-111663262D01*
X154651604Y-111663262D02*
X151879364Y-108891022D01*
%TO.N,ring_bottom*%
X181112341Y-110795170D02*
X179404423Y-112503088D01*
X179404423Y-112503088D02*
X178214210Y-112503088D01*
X178214210Y-112503088D02*
X175365020Y-109653898D01*
X168378614Y-108422236D02*
X165602951Y-105646573D01*
X175365020Y-109653898D02*
X175365020Y-109646237D01*
X175365020Y-109646237D02*
X174141019Y-108422236D01*
X174141019Y-108422236D02*
X168378614Y-108422236D01*
X180811727Y-112934149D02*
X180811727Y-111095784D01*
X180811727Y-111095784D02*
X181112341Y-110795170D01*
%TO.N,P14*%
X180051841Y-118341012D02*
X180051841Y-116502647D01*
X180051841Y-116502647D02*
X180352455Y-116202033D01*
X158743066Y-122553090D02*
X175839763Y-122553090D01*
X175839763Y-122553090D02*
X180051841Y-118341012D01*
X158743066Y-122553090D02*
X158743066Y-124557154D01*
X158743066Y-124557154D02*
X158592392Y-124707828D01*
%TO.N,pinky_bottom*%
X159123936Y-117106390D02*
X159123936Y-119110454D01*
X159123936Y-119110454D02*
X158973262Y-119261128D01*
X143293178Y-113052216D02*
X145396630Y-115155668D01*
X156434035Y-116528077D02*
X158545623Y-116528077D01*
X145396630Y-115155668D02*
X155061626Y-115155668D01*
X155061626Y-115155668D02*
X156434035Y-116528077D01*
X158545623Y-116528077D02*
X159123936Y-117106390D01*
%TO.N,P14*%
X137404093Y-125155737D02*
X158144483Y-125155737D01*
X158144483Y-125155737D02*
X158592392Y-124707828D01*
X137404093Y-125155737D02*
X137404093Y-127277710D01*
X137404093Y-127277710D02*
X137366395Y-127315408D01*
%TO.N,P3*%
X133064777Y-114478379D02*
X130458009Y-111871611D01*
X130458009Y-111871611D02*
X129834780Y-111871611D01*
%TO.N,function_bottom*%
X137461685Y-121856239D02*
X137461685Y-119734266D01*
X137461685Y-119734266D02*
X137499383Y-119696568D01*
X121478141Y-116476468D02*
X124050101Y-119048428D01*
X126668428Y-119048428D02*
X127436040Y-118280816D01*
X124050101Y-119048428D02*
X126668428Y-119048428D01*
X134480404Y-119240404D02*
X137043219Y-119240404D01*
X127436040Y-118280816D02*
X133520816Y-118280816D01*
X137043219Y-119240404D02*
X137499383Y-119696568D01*
X133520816Y-118280816D02*
X134480404Y-119240404D01*
%TO.N,P5*%
X180185859Y-84873965D02*
X180185859Y-84781226D01*
X180185859Y-84781226D02*
X177297622Y-81892989D01*
%TO.N,ring_main*%
X183951473Y-90593701D02*
X182802541Y-89444769D01*
X176535279Y-87775897D02*
X170772874Y-87775897D01*
X182802541Y-89444769D02*
X178204151Y-89444769D01*
X178204151Y-89444769D02*
X176535279Y-87775897D01*
X170772874Y-87775897D02*
X168442082Y-85445105D01*
X183650859Y-92732680D02*
X183650859Y-90894315D01*
X183650859Y-90894315D02*
X183951473Y-90593701D01*
%TO.N,P16*%
X182890973Y-98139543D02*
X182890973Y-96301178D01*
X182890973Y-96301178D02*
X183191587Y-96000564D01*
X160074511Y-102332129D02*
X164267097Y-98139543D01*
X164267097Y-98139543D02*
X182890973Y-98139543D01*
%TO.N,P4*%
X156490580Y-91378086D02*
X156276022Y-91378086D01*
X156276022Y-91378086D02*
X153450290Y-88552354D01*
%TO.N,pinky_main*%
X160550381Y-96892906D02*
X159597881Y-95940406D01*
X159597881Y-95940406D02*
X155519594Y-95940406D01*
X155519594Y-95940406D02*
X154302688Y-94723500D01*
X154302688Y-94723500D02*
X146953224Y-94723500D01*
X146953224Y-94723500D02*
X144792789Y-92563065D01*
%TO.N,P16*%
X160074511Y-102332129D02*
X160074511Y-104295654D01*
X160074511Y-104295654D02*
X159886255Y-104483910D01*
X137675429Y-104892807D02*
X159477358Y-104892807D01*
X159477358Y-104892807D02*
X159886255Y-104483910D01*
%TO.N,P7*%
X185730104Y-77938075D02*
X165958068Y-77938075D01*
X165958068Y-77938075D02*
X161758657Y-82137486D01*
X138300361Y-84637698D02*
X161180831Y-84637698D01*
X161180831Y-84637698D02*
X161532876Y-84285653D01*
%TO.N,P3*%
X133523120Y-94141343D02*
X133523120Y-92883120D01*
X133523120Y-92883120D02*
X132118601Y-91478601D01*
X132118601Y-91478601D02*
X130339109Y-91478601D01*
%TO.N,P16*%
X137675429Y-104892807D02*
X137675429Y-106976108D01*
X137675429Y-106976108D02*
X137600046Y-107051491D01*
%TO.N,function_main*%
X137865980Y-99436133D02*
X137865980Y-101519434D01*
X137865980Y-101519434D02*
X137790597Y-101594817D01*
X121903377Y-95936914D02*
X123892673Y-97926210D01*
X123892673Y-97926210D02*
X129134677Y-97926210D01*
X129134677Y-97926210D02*
X129176964Y-97883923D01*
X134002358Y-97883923D02*
X134393640Y-98275205D01*
X129176964Y-97883923D02*
X134002358Y-97883923D01*
X134393640Y-98275205D02*
X136705052Y-98275205D01*
X136705052Y-98275205D02*
X137865980Y-99436133D01*
%TO.N,P7*%
X161758657Y-82137486D02*
X161758657Y-84059872D01*
X161758657Y-84059872D02*
X161532876Y-84285653D01*
%TO.N,pinky_top*%
X162103601Y-78855564D02*
X162103601Y-76933178D01*
X162103601Y-76933178D02*
X162329382Y-76707397D01*
X146649756Y-72103208D02*
X148867087Y-74320539D01*
X148867087Y-74320539D02*
X156819461Y-74320539D01*
X158545567Y-76046645D02*
X161668630Y-76046645D01*
X156819461Y-74320539D02*
X158545567Y-76046645D01*
X161668630Y-76046645D02*
X162329382Y-76707397D01*
%TO.N,P5*%
X183024990Y-64672496D02*
X183024990Y-64579757D01*
X183024990Y-64579757D02*
X180136754Y-61691521D01*
%TO.N,ring_top*%
X171281213Y-65243636D02*
X174056876Y-68019299D01*
X174056876Y-68019299D02*
X182703511Y-68019299D01*
X182703511Y-68019299D02*
X183650371Y-68966159D01*
X183650371Y-68966159D02*
X185364530Y-68966159D01*
X185364530Y-68966159D02*
X186790604Y-70392233D01*
%TO.N,P5*%
X185864122Y-44471028D02*
X185864122Y-44378289D01*
X185864122Y-44378289D02*
X182975885Y-41490052D01*
%TO.N,ring_numbers*%
X189629735Y-50190764D02*
X188203662Y-48764691D01*
X188203662Y-48764691D02*
X183605273Y-48764691D01*
X183605273Y-48764691D02*
X182658413Y-47817831D01*
X182658413Y-47817831D02*
X176896008Y-47817831D01*
X176896008Y-47817831D02*
X174120345Y-45042168D01*
%TO.N,P8*%
X163794992Y-61975311D02*
X168033697Y-57736606D01*
X168033697Y-57736606D02*
X188569235Y-57736606D01*
X139278699Y-64396581D02*
X163254384Y-64396581D01*
X163254384Y-64396581D02*
X163531754Y-64119211D01*
X163531754Y-64119211D02*
X163531754Y-62238549D01*
X163531754Y-62238549D02*
X163794992Y-61975311D01*
%TO.N,P4*%
X160595535Y-50902863D02*
X160585827Y-50902863D01*
X160585827Y-50902863D02*
X157655713Y-47972749D01*
%TO.N,pinky_numbers*%
X164460398Y-56556009D02*
X164460398Y-58436671D01*
X164460398Y-58436671D02*
X164197160Y-58699909D01*
X148863515Y-51678874D02*
X151137637Y-53952996D01*
X151137637Y-53952996D02*
X159695852Y-53952996D01*
X159695852Y-53952996D02*
X160914546Y-55171690D01*
X160914546Y-55171690D02*
X163076079Y-55171690D01*
X163076079Y-55171690D02*
X164460398Y-56556009D01*
%TO.N,P3*%
X134336324Y-73815405D02*
X134336324Y-73376324D01*
X134336324Y-73376324D02*
X132057499Y-71097499D01*
X132057499Y-71097499D02*
X131199268Y-71097499D01*
%TO.N,function_top*%
X138586115Y-79185180D02*
X138586115Y-81229174D01*
X138586115Y-81229174D02*
X138473069Y-81342220D01*
X122687013Y-75407909D02*
X124775454Y-77496350D01*
X124775454Y-77496350D02*
X134685852Y-77496350D01*
X137378604Y-77977669D02*
X138586115Y-79185180D01*
X134685852Y-77496350D02*
X135167171Y-77977669D01*
X135167171Y-77977669D02*
X137378604Y-77977669D01*
%TO.N,P3*%
X135504139Y-53506754D02*
X135187237Y-53506754D01*
X135187237Y-53506754D02*
X132414996Y-50734513D01*
%TO.N,function_numbers*%
X139659569Y-58949881D02*
X139659569Y-60953945D01*
X139659569Y-60953945D02*
X139508895Y-61104619D01*
X123828810Y-54895708D02*
X125932262Y-56999160D01*
X125932262Y-56999160D02*
X133500840Y-56999160D01*
X133500840Y-56999160D02*
X134873249Y-58371569D01*
X134873249Y-58371569D02*
X139081257Y-58371569D01*
X139081257Y-58371569D02*
X139659569Y-58949881D01*
%TD*%
M02*
