%TF.GenerationSoftware,KiCad,Pcbnew,7.0.7+dfsg-1*%
%TF.CreationDate,2024-02-08T22:24:17-07:00*%
%TF.ProjectId,Keyboard,4b657962-6f61-4726-942e-6b696361645f,v1.0.0*%
%TF.SameCoordinates,Original*%
%TF.FileFunction,Profile,NP*%
%FSLAX46Y46*%
G04 Gerber Fmt 4.6, Leading zero omitted, Abs format (unit mm)*
G04 Created by KiCad (PCBNEW 7.0.7+dfsg-1) date 2024-02-08 22:24:17*
%MOMM*%
%LPD*%
G01*
G04 APERTURE LIST*
%TA.AperFunction,Profile*%
%ADD10C,0.150000*%
%TD*%
G04 APERTURE END LIST*
D10*
X192175859Y-173998969D02*
X120627172Y-137517123D01*
X115176773Y-128230843D02*
X118020641Y-52954793D01*
X127584056Y-43341542D02*
X157353217Y-42061906D01*
X159389647Y-41762335D02*
X182381393Y-35912182D01*
X185284593Y-35612951D02*
X210571339Y-36719834D01*
X213560076Y-37315472D02*
X235098400Y-45169969D01*
X236510608Y-45813121D02*
X258266234Y-57840500D01*
X258976430Y-58197046D02*
X291822947Y-73083918D01*
X297158410Y-85423468D02*
X270230943Y-164284563D01*
X267920373Y-168041423D02*
X238215704Y-198446320D01*
X224906134Y-199338206D02*
X193790002Y-175027618D01*
X115176773Y-128230843D02*
G75*
G03*
X120627172Y-137517123I9992871J-377523D01*
G01*
X127584056Y-43341543D02*
G75*
G03*
X118020642Y-52954793I429456J-9990773D01*
G01*
X157353217Y-42061905D02*
G75*
G03*
X159389647Y-41762334I-429456J9990773D01*
G01*
X185284593Y-35612952D02*
G75*
G03*
X182381393Y-35912182I-437314J-9990432D01*
G01*
X213560075Y-37315473D02*
G75*
G03*
X210571339Y-36719835I-3426050J-9394794D01*
G01*
X236510608Y-45813122D02*
G75*
G03*
X235098400Y-45169970I-4838258J-8751642D01*
G01*
X258266234Y-57840500D02*
G75*
G03*
X258976430Y-58197046I4838258J8751643D01*
G01*
X297158409Y-85423468D02*
G75*
G03*
X291822946Y-73083919I-9463524J3231361D01*
G01*
X267920372Y-168041422D02*
G75*
G03*
X270230942Y-164284564I-7152953J6988221D01*
G01*
X224906134Y-199338206D02*
G75*
G03*
X238215704Y-198446320I6156615J7880108D01*
G01*
X193790002Y-175027618D02*
G75*
G03*
X192175859Y-173998969I-6156615J-7880108D01*
G01*
M02*
