%TF.GenerationSoftware,KiCad,Pcbnew,7.0.7+dfsg-1*%
%TF.CreationDate,2024-02-08T22:23:59-07:00*%
%TF.ProjectId,Keyboard,4b657962-6f61-4726-942e-6b696361645f,v1.0.0*%
%TF.SameCoordinates,Original*%
%TF.FileFunction,Drillmap*%
%TF.FilePolarity,Positive*%
%FSLAX45Y45*%
G04 Gerber Fmt 4.5, Leading zero omitted, Abs format (unit mm)*
G04 Created by KiCad (PCBNEW 7.0.7+dfsg-1) date 2024-02-08 22:23:59*
%MOMM*%
%LPD*%
G01*
G04 APERTURE LIST*
%ADD10C,0.150000*%
%ADD11C,0.200000*%
%ADD12C,0.170180*%
%ADD13C,0.300000*%
%ADD14C,0.342900*%
G04 APERTURE END LIST*
D10*
X19217586Y-17399897D02*
X12062717Y-13751712D01*
X11517677Y-12823084D02*
X11802064Y-5295479D01*
X12758406Y-4334154D02*
X15735322Y-4206191D01*
X15938965Y-4176233D02*
X18238139Y-3591218D01*
X18528459Y-3561295D02*
X21057134Y-3671983D01*
X21356008Y-3731547D02*
X23509840Y-4516997D01*
X23651061Y-4581312D02*
X25826623Y-5784050D01*
X25897643Y-5819705D02*
X29182295Y-7308392D01*
X29715841Y-8542347D02*
X27023094Y-16428456D01*
X26792037Y-16804142D02*
X23821570Y-19844632D01*
X22490613Y-19933821D02*
X19379000Y-17502762D01*
X11517677Y-12823084D02*
G75*
G03*
X12062717Y-13751712I999287J-37752D01*
G01*
X12758406Y-4334154D02*
G75*
G03*
X11802064Y-5295479I42946J-999077D01*
G01*
X15735322Y-4206191D02*
G75*
G03*
X15938965Y-4176233I-42946J999077D01*
G01*
X18528459Y-3561295D02*
G75*
G03*
X18238139Y-3591218I-43731J-999043D01*
G01*
X21356008Y-3731547D02*
G75*
G03*
X21057134Y-3671983I-342605J-939479D01*
G01*
X23651061Y-4581312D02*
G75*
G03*
X23509840Y-4516997I-483826J-875164D01*
G01*
X25826623Y-5784050D02*
G75*
G03*
X25897643Y-5819705I483826J875164D01*
G01*
X29715841Y-8542347D02*
G75*
G03*
X29182295Y-7308392I-946352J323136D01*
G01*
X26792037Y-16804142D02*
G75*
G03*
X27023094Y-16428456I-715295J698822D01*
G01*
X22490613Y-19933821D02*
G75*
G03*
X23821570Y-19844632I615662J788011D01*
G01*
X19379000Y-17502762D02*
G75*
G03*
X19217586Y-17399897I-615662J-788011D01*
G01*
D11*
D10*
X25675237Y-16242147D02*
X25825237Y-16392147D01*
X25825237Y-16242147D02*
X25675237Y-16392147D01*
X25765105Y-16030430D02*
X25915105Y-16180430D01*
X25915105Y-16030430D02*
X25765105Y-16180430D01*
X26319590Y-16515658D02*
X26469590Y-16665658D01*
X26469590Y-16515658D02*
X26319590Y-16665658D01*
X26409458Y-16303942D02*
X26559458Y-16453942D01*
X26559458Y-16303942D02*
X26409458Y-16453942D01*
D12*
X12503817Y-12027433D02*
G75*
G03*
X12503817Y-12027433I-85090J0D01*
G01*
X12539671Y-9978148D02*
G75*
G03*
X12539671Y-9978148I-85090J0D01*
G01*
X12611285Y-7929800D02*
G75*
G03*
X12611285Y-7929800I-85090J0D01*
G01*
X12718636Y-5883015D02*
G75*
G03*
X12718636Y-5883015I-85090J0D01*
G01*
X13603650Y-12046630D02*
G75*
G03*
X13603650Y-12046630I-85090J0D01*
G01*
X13639001Y-10016537D02*
G75*
G03*
X13639001Y-10016537I-85090J0D01*
G01*
X13709777Y-7987370D02*
G75*
G03*
X13709777Y-7987370I-85090J0D01*
G01*
X13815957Y-5959747D02*
G75*
G03*
X13815957Y-5959747I-85090J0D01*
G01*
X14665073Y-11698665D02*
G75*
G03*
X14665073Y-11698665I-85090J0D01*
G01*
X14808129Y-9654065D02*
G75*
G03*
X14808129Y-9654065I-85090J0D01*
G01*
X14986847Y-7612273D02*
G75*
G03*
X14986847Y-7612273I-85090J0D01*
G01*
X15201172Y-5573911D02*
G75*
G03*
X15201172Y-5573911I-85090J0D01*
G01*
X15762394Y-11775398D02*
G75*
G03*
X15762394Y-11775398I-85090J0D01*
G01*
X15903944Y-9749937D02*
G75*
G03*
X15903944Y-9749937I-85090J0D01*
G01*
X16080821Y-7727254D02*
G75*
G03*
X16080821Y-7727254I-85090J0D01*
G01*
X16292973Y-5707967D02*
G75*
G03*
X16292973Y-5707967I-85090J0D01*
G01*
X16867995Y-10974628D02*
G75*
G03*
X16867995Y-10974628I-85090J0D01*
G01*
X17151908Y-8954482D02*
G75*
G03*
X17151908Y-8954482I-85090J0D01*
G01*
X17435821Y-6934335D02*
G75*
G03*
X17435821Y-6934335I-85090J0D01*
G01*
X17719734Y-4914188D02*
G75*
G03*
X17719734Y-4914188I-85090J0D01*
G01*
X17957289Y-11127719D02*
G75*
G03*
X17957289Y-11127719I-85090J0D01*
G01*
X18241203Y-9107572D02*
G75*
G03*
X18241203Y-9107572I-85090J0D01*
G01*
X18525116Y-7087425D02*
G75*
G03*
X18525116Y-7087425I-85090J0D01*
G01*
X18809029Y-5067278D02*
G75*
G03*
X18809029Y-5067278I-85090J0D01*
G01*
X19057469Y-10930984D02*
G75*
G03*
X19057469Y-10930984I-85090J0D01*
G01*
X19516370Y-8943269D02*
G75*
G03*
X19516370Y-8943269I-85090J0D01*
G01*
X19975270Y-6955554D02*
G75*
G03*
X19975270Y-6955554I-85090J0D01*
G01*
X20129276Y-11178430D02*
G75*
G03*
X20129276Y-11178430I-85090J0D01*
G01*
X20434170Y-4967839D02*
G75*
G03*
X20434170Y-4967839I-85090J0D01*
G01*
X20588177Y-9190715D02*
G75*
G03*
X20588177Y-9190715I-85090J0D01*
G01*
X20990247Y-16855050D02*
G75*
G03*
X20990247Y-16855050I-85090J0D01*
G01*
X21047077Y-7203000D02*
G75*
G03*
X21047077Y-7203000I-85090J0D01*
G01*
X21104559Y-11672108D02*
G75*
G03*
X21104559Y-11672108I-85090J0D01*
G01*
X21505977Y-5215285D02*
G75*
G03*
X21505977Y-5215285I-85090J0D01*
G01*
X21698271Y-9730450D02*
G75*
G03*
X21698271Y-9730450I-85090J0D01*
G01*
X21857059Y-17532277D02*
G75*
G03*
X21857059Y-17532277I-85090J0D01*
G01*
X22156495Y-11993717D02*
G75*
G03*
X22156495Y-11993717I-85090J0D01*
G01*
X22246196Y-15247508D02*
G75*
G03*
X22246196Y-15247508I-85090J0D01*
G01*
X22258006Y-7778726D02*
G75*
G03*
X22258006Y-7778726I-85090J0D01*
G01*
X22597789Y-18110999D02*
G75*
G03*
X22597789Y-18110999I-85090J0D01*
G01*
X22755659Y-10033651D02*
G75*
G03*
X22755659Y-10033651I-85090J0D01*
G01*
X22783594Y-5817531D02*
G75*
G03*
X22783594Y-5817531I-85090J0D01*
G01*
X23013470Y-12787806D02*
G75*
G03*
X23013470Y-12787806I-85090J0D01*
G01*
X23113008Y-15924735D02*
G75*
G03*
X23113008Y-15924735I-85090J0D01*
G01*
X23320525Y-8063427D02*
G75*
G03*
X23320525Y-8063427I-85090J0D01*
G01*
X23464600Y-18788227D02*
G75*
G03*
X23464600Y-18788227I-85090J0D01*
G01*
X23707986Y-10879882D02*
G75*
G03*
X23707986Y-10879882I-85090J0D01*
G01*
X23850919Y-6083645D02*
G75*
G03*
X23850919Y-6083645I-85090J0D01*
G01*
X23853738Y-16503457D02*
G75*
G03*
X23853738Y-16503457I-85090J0D01*
G01*
X24047131Y-13164028D02*
G75*
G03*
X24047131Y-13164028I-85090J0D01*
G01*
X24369100Y-8960127D02*
G75*
G03*
X24369100Y-8960127I-85090J0D01*
G01*
X24720550Y-17180685D02*
G75*
G03*
X24720550Y-17180685I-85090J0D01*
G01*
X24748057Y-11238007D02*
G75*
G03*
X24748057Y-11238007I-85090J0D01*
G01*
X24996608Y-7029127D02*
G75*
G03*
X24996608Y-7029127I-85090J0D01*
G01*
X25415262Y-9300046D02*
G75*
G03*
X25415262Y-9300046I-85090J0D01*
G01*
X25437180Y-14008683D02*
G75*
G03*
X25437180Y-14008683I-85090J0D01*
G01*
X26048543Y-7350736D02*
G75*
G03*
X26048543Y-7350736I-85090J0D01*
G01*
X26230598Y-12139721D02*
G75*
G03*
X26230598Y-12139721I-85090J0D01*
G01*
X26449735Y-14438487D02*
G75*
G03*
X26449735Y-14438487I-85090J0D01*
G01*
X26991277Y-10257198D02*
G75*
G03*
X26991277Y-10257198I-85090J0D01*
G01*
X27250500Y-12551789D02*
G75*
G03*
X27250500Y-12551789I-85090J0D01*
G01*
X27718986Y-8361685D02*
G75*
G03*
X27718986Y-8361685I-85090J0D01*
G01*
X28018215Y-10651402D02*
G75*
G03*
X28018215Y-10651402I-85090J0D01*
G01*
X28752648Y-8737907D02*
G75*
G03*
X28752648Y-8737907I-85090J0D01*
G01*
D13*
X12475264Y-11503362D02*
X12475264Y-11803362D01*
X12325264Y-11653362D02*
X12625264Y-11653362D01*
X12517638Y-9455121D02*
X12517638Y-9755121D01*
X12367638Y-9605121D02*
X12667638Y-9605121D01*
X12595752Y-7407931D02*
X12595752Y-7707931D01*
X12445752Y-7557931D02*
X12745752Y-7557931D01*
X12709583Y-5362416D02*
X12709583Y-5662416D01*
X12559583Y-5512416D02*
X12859583Y-5512416D01*
X12979028Y-11292122D02*
X12979028Y-11592122D01*
X12829028Y-11442122D02*
X13129028Y-11442122D01*
X12979028Y-11292122D02*
X12979028Y-11592122D01*
X12829028Y-11442122D02*
X13129028Y-11442122D01*
X13025011Y-9252705D02*
X13025011Y-9552705D01*
X12875011Y-9402705D02*
X13175011Y-9402705D01*
X13025011Y-9252705D02*
X13025011Y-9552705D01*
X12875011Y-9402705D02*
X13175011Y-9402705D01*
X13106581Y-7214400D02*
X13106581Y-7514400D01*
X12956581Y-7364400D02*
X13256581Y-7364400D01*
X13106581Y-7214400D02*
X13106581Y-7514400D01*
X12956581Y-7364400D02*
X13256581Y-7364400D01*
X13223712Y-5177830D02*
X13223712Y-5477830D01*
X13073712Y-5327830D02*
X13373712Y-5327830D01*
X13223712Y-5177830D02*
X13223712Y-5477830D01*
X13073712Y-5327830D02*
X13373712Y-5327830D01*
X13475112Y-11520815D02*
X13475112Y-11820815D01*
X13325112Y-11670815D02*
X13625112Y-11670815D01*
X13517029Y-9490021D02*
X13517029Y-9790021D01*
X13367029Y-9640021D02*
X13667029Y-9640021D01*
X13594382Y-7460267D02*
X13594382Y-7760267D01*
X13444382Y-7610267D02*
X13744382Y-7610267D01*
X13707147Y-5432173D02*
X13707147Y-5732172D01*
X13557147Y-5582173D02*
X13857147Y-5582173D01*
X14656020Y-11178067D02*
X14656020Y-11478067D01*
X14506020Y-11328067D02*
X14806020Y-11328067D01*
X14805533Y-9134850D02*
X14805533Y-9434850D01*
X14655533Y-9284850D02*
X14955533Y-9284850D01*
X14990681Y-7094554D02*
X14990681Y-7394554D01*
X14840681Y-7244554D02*
X15140681Y-7244554D01*
X15170148Y-10993481D02*
X15170148Y-11293481D01*
X15020148Y-11143481D02*
X15320148Y-11143481D01*
X15170148Y-10993481D02*
X15170148Y-11293481D01*
X15020148Y-11143481D02*
X15320148Y-11143481D01*
X15211410Y-5057800D02*
X15211410Y-5357800D01*
X15061410Y-5207800D02*
X15361410Y-5207800D01*
X15322804Y-8959265D02*
X15322804Y-9259265D01*
X15172804Y-9109265D02*
X15472804Y-9109265D01*
X15322804Y-8959265D02*
X15322804Y-9259265D01*
X15172804Y-9109265D02*
X15472804Y-9109265D01*
X15510939Y-6928023D02*
X15510939Y-7228023D01*
X15360939Y-7078023D02*
X15660939Y-7078023D01*
X15510939Y-6928023D02*
X15510939Y-7228023D01*
X15360939Y-7078023D02*
X15660939Y-7078023D01*
X15653584Y-11247823D02*
X15653584Y-11547823D01*
X15503584Y-11397823D02*
X15803584Y-11397823D01*
X15734495Y-4900374D02*
X15734495Y-5200374D01*
X15584495Y-5050374D02*
X15884495Y-5050374D01*
X15734495Y-4900374D02*
X15734495Y-5200374D01*
X15584495Y-5050374D02*
X15884495Y-5050374D01*
X15801727Y-9222006D02*
X15801727Y-9522006D01*
X15651727Y-9372006D02*
X15951727Y-9372006D01*
X15985203Y-7199082D02*
X15985203Y-7499082D01*
X15835203Y-7349082D02*
X16135203Y-7349082D01*
X16203956Y-5179669D02*
X16203956Y-5479669D01*
X16053956Y-5329669D02*
X16353956Y-5329669D01*
X16884608Y-10460237D02*
X16884608Y-10760237D01*
X16734608Y-10610237D02*
X17034608Y-10610237D01*
X17168521Y-8440090D02*
X17168521Y-8740090D01*
X17018521Y-8590090D02*
X17318521Y-8590090D01*
X17410360Y-10311964D02*
X17410360Y-10611964D01*
X17260360Y-10461964D02*
X17560360Y-10461964D01*
X17410360Y-10311964D02*
X17410360Y-10611964D01*
X17260360Y-10461964D02*
X17560360Y-10461964D01*
X17452434Y-6419943D02*
X17452434Y-6719943D01*
X17302434Y-6569943D02*
X17602434Y-6569943D01*
X17694273Y-8291817D02*
X17694273Y-8591817D01*
X17544273Y-8441817D02*
X17844273Y-8441817D01*
X17694273Y-8291817D02*
X17694273Y-8591817D01*
X17544273Y-8441817D02*
X17844273Y-8441817D01*
X17736347Y-4399796D02*
X17736347Y-4699796D01*
X17586347Y-4549796D02*
X17886347Y-4549796D01*
X17874876Y-10599410D02*
X17874876Y-10899410D01*
X17724876Y-10749410D02*
X18024876Y-10749410D01*
X17978186Y-6271670D02*
X17978186Y-6571670D01*
X17828186Y-6421670D02*
X18128186Y-6421670D01*
X17978186Y-6271670D02*
X17978186Y-6571670D01*
X17828186Y-6421670D02*
X18128186Y-6421670D01*
X18158789Y-8579263D02*
X18158789Y-8879263D01*
X18008789Y-8729263D02*
X18308789Y-8729263D01*
X18262099Y-4251524D02*
X18262099Y-4551524D01*
X18112099Y-4401524D02*
X18412099Y-4401524D01*
X18262099Y-4251524D02*
X18262099Y-4551524D01*
X18112099Y-4401524D02*
X18412099Y-4401524D01*
X18442702Y-6559116D02*
X18442702Y-6859116D01*
X18292702Y-6709116D02*
X18592702Y-6709116D01*
X18726615Y-4538969D02*
X18726615Y-4838969D01*
X18576615Y-4688969D02*
X18876615Y-4688969D01*
X19105455Y-10426843D02*
X19105455Y-10726843D01*
X18955455Y-10576843D02*
X19255455Y-10576843D01*
X19564355Y-8439128D02*
X19564355Y-8739128D01*
X19414355Y-8589128D02*
X19714355Y-8589128D01*
X19642129Y-10324957D02*
X19642129Y-10624957D01*
X19492129Y-10474957D02*
X19792129Y-10474957D01*
X19642129Y-10324957D02*
X19642129Y-10624957D01*
X19492129Y-10474957D02*
X19792129Y-10474957D01*
X20023255Y-6451413D02*
X20023255Y-6751413D01*
X19873255Y-6601413D02*
X20173255Y-6601413D01*
X20079825Y-10651794D02*
X20079825Y-10951794D01*
X19929825Y-10801794D02*
X20229825Y-10801794D01*
X20101029Y-8337242D02*
X20101029Y-8637242D01*
X19951029Y-8487242D02*
X20251029Y-8487242D01*
X20101029Y-8337242D02*
X20101029Y-8637242D01*
X19951029Y-8487242D02*
X20251029Y-8487242D01*
X20482155Y-4463698D02*
X20482155Y-4763698D01*
X20332155Y-4613698D02*
X20632155Y-4613698D01*
X20538725Y-8664079D02*
X20538725Y-8964079D01*
X20388725Y-8814079D02*
X20688725Y-8814079D01*
X20559929Y-6349527D02*
X20559929Y-6649527D01*
X20409929Y-6499527D02*
X20709929Y-6499527D01*
X20559929Y-6349527D02*
X20559929Y-6649527D01*
X20409929Y-6499527D02*
X20709929Y-6499527D01*
X20997625Y-6676364D02*
X20997625Y-6976364D01*
X20847625Y-6826364D02*
X21147625Y-6826364D01*
X21018829Y-4361812D02*
X21018829Y-4661812D01*
X20868829Y-4511812D02*
X21168829Y-4511812D01*
X21018829Y-4361812D02*
X21018829Y-4661812D01*
X20868829Y-4511812D02*
X21168829Y-4511812D01*
X21175430Y-16440329D02*
X21175430Y-16740329D01*
X21025430Y-16590329D02*
X21325430Y-16590329D01*
X21176924Y-11178112D02*
X21176924Y-11478112D01*
X21026924Y-11328112D02*
X21326924Y-11328112D01*
X21456525Y-4688649D02*
X21456525Y-4988649D01*
X21306525Y-4838649D02*
X21606525Y-4838649D01*
X21704881Y-16574797D02*
X21704881Y-16874797D01*
X21554881Y-16724797D02*
X21854881Y-16724797D01*
X21704881Y-16574797D02*
X21704881Y-16874797D01*
X21554881Y-16724797D02*
X21854881Y-16724797D01*
X21719398Y-11113911D02*
X21719398Y-11413911D01*
X21569398Y-11263911D02*
X21869398Y-11263911D01*
X21719398Y-11113911D02*
X21719398Y-11413911D01*
X21569398Y-11263911D02*
X21869398Y-11263911D01*
X21764608Y-9233759D02*
X21764608Y-9533759D01*
X21614608Y-9383759D02*
X21914608Y-9383759D01*
X21963441Y-17055990D02*
X21963441Y-17355990D01*
X21813441Y-17205990D02*
X22113441Y-17205990D01*
X22133229Y-11470484D02*
X22133229Y-11770484D01*
X21983229Y-11620484D02*
X22283229Y-11620484D01*
X22305879Y-9160100D02*
X22305879Y-9460100D01*
X22155879Y-9310100D02*
X22455879Y-9310100D01*
X22305879Y-9160100D02*
X22305879Y-9460100D01*
X22155879Y-9310100D02*
X22455879Y-9310100D01*
X22318270Y-7279445D02*
X22318270Y-7579445D01*
X22168270Y-7429445D02*
X22468270Y-7429445D01*
X22431380Y-14832787D02*
X22431380Y-15132787D01*
X22281380Y-14982787D02*
X22581380Y-14982787D01*
X22725870Y-9509396D02*
X22725870Y-9809396D01*
X22575870Y-9659396D02*
X22875870Y-9659396D01*
X22782972Y-17696278D02*
X22782972Y-17996278D01*
X22632972Y-17846278D02*
X22932972Y-17846278D01*
X22837739Y-5315766D02*
X22837739Y-5615766D01*
X22687739Y-5465766D02*
X22987739Y-5465766D01*
X22858173Y-7196351D02*
X22858173Y-7496351D01*
X22708173Y-7346351D02*
X23008173Y-7346351D01*
X22858173Y-7196351D02*
X22858173Y-7496351D01*
X22708173Y-7346351D02*
X23008173Y-7346351D01*
X22960831Y-14967255D02*
X22960831Y-15267255D01*
X22810831Y-15117255D02*
X23110831Y-15117255D01*
X22960831Y-14967255D02*
X22960831Y-15267255D01*
X22810831Y-15117255D02*
X23110831Y-15117255D01*
X23103622Y-12302523D02*
X23103622Y-12602523D01*
X22953622Y-12452523D02*
X23253622Y-12452523D01*
X23219390Y-15448448D02*
X23219390Y-15748448D01*
X23069390Y-15598448D02*
X23369390Y-15598448D01*
X23284195Y-7538264D02*
X23284195Y-7838264D01*
X23134195Y-7688264D02*
X23434195Y-7688264D01*
X23312423Y-17830746D02*
X23312423Y-18130746D01*
X23162423Y-17980746D02*
X23462423Y-17980746D01*
X23312423Y-17830746D02*
X23312423Y-18130746D01*
X23162423Y-17980746D02*
X23462423Y-17980746D01*
X23376110Y-5223262D02*
X23376110Y-5523262D01*
X23226110Y-5373262D02*
X23526110Y-5373262D01*
X23376110Y-5223262D02*
X23376110Y-5523262D01*
X23226110Y-5373262D02*
X23526110Y-5373262D01*
X23570983Y-18311940D02*
X23570983Y-18611940D01*
X23420983Y-18461940D02*
X23720983Y-18461940D01*
X23648712Y-12266800D02*
X23648712Y-12566800D01*
X23498712Y-12416800D02*
X23798712Y-12416800D01*
X23648712Y-12266800D02*
X23648712Y-12566800D01*
X23498712Y-12416800D02*
X23798712Y-12416800D01*
X23792260Y-10391591D02*
X23792260Y-10691591D01*
X23642260Y-10541591D02*
X23942260Y-10541591D01*
X23808035Y-5557688D02*
X23808035Y-5857688D01*
X23658035Y-5707688D02*
X23958035Y-5707688D01*
X24038922Y-16088736D02*
X24038922Y-16388736D01*
X23888922Y-16238736D02*
X24188922Y-16238736D01*
X24043314Y-12644543D02*
X24043314Y-12944543D01*
X23893314Y-12794543D02*
X24193314Y-12794543D01*
X24336645Y-10346361D02*
X24336645Y-10646361D01*
X24186645Y-10496361D02*
X24486645Y-10496361D01*
X24336645Y-10346361D02*
X24336645Y-10646361D01*
X24186645Y-10496361D02*
X24486645Y-10496361D01*
X24447444Y-8468932D02*
X24447444Y-8768932D01*
X24297444Y-8618932D02*
X24597444Y-8618932D01*
X24568373Y-16223204D02*
X24568373Y-16523204D01*
X24418373Y-16373204D02*
X24718373Y-16373204D01*
X24568373Y-16223204D02*
X24568373Y-16523204D01*
X24418373Y-16373204D02*
X24718373Y-16373204D01*
X24737779Y-10717159D02*
X24737779Y-11017159D01*
X24587779Y-10867159D02*
X24887779Y-10867159D01*
X24826932Y-16704398D02*
X24826932Y-17004398D01*
X24676932Y-16854398D02*
X24976932Y-16854398D01*
X24990956Y-8414208D02*
X24990956Y-8714208D01*
X24840956Y-8564208D02*
X25140956Y-8564208D01*
X24990956Y-8414208D02*
X24990956Y-8714208D01*
X24840956Y-8564208D02*
X25140956Y-8564208D01*
X25068972Y-6535131D02*
X25068972Y-6835131D01*
X24918972Y-6685131D02*
X25218972Y-6685131D01*
X25398500Y-8777949D02*
X25398500Y-9077949D01*
X25248500Y-8927949D02*
X25548500Y-8927949D01*
X25544639Y-13533030D02*
X25544639Y-13833030D01*
X25394639Y-13683030D02*
X25694639Y-13683030D01*
X25611446Y-6470930D02*
X25611446Y-6770930D01*
X25461446Y-6620930D02*
X25761446Y-6620930D01*
X25611446Y-6470930D02*
X25611446Y-6770930D01*
X25461446Y-6620930D02*
X25761446Y-6620930D01*
X26025277Y-6827503D02*
X26025277Y-7127503D01*
X25875277Y-6977503D02*
X26175277Y-6977503D01*
X26090852Y-13525885D02*
X26090852Y-13825885D01*
X25940852Y-13675885D02*
X26240852Y-13675885D01*
X26090852Y-13525885D02*
X26090852Y-13825885D01*
X25940852Y-13675885D02*
X26240852Y-13675885D01*
X26332344Y-11660758D02*
X26332344Y-11960758D01*
X26182344Y-11810758D02*
X26482344Y-11810758D01*
X26465144Y-13923761D02*
X26465144Y-14223761D01*
X26315144Y-14073761D02*
X26615144Y-14073761D01*
X26878350Y-11644081D02*
X26878350Y-11944081D01*
X26728350Y-11794081D02*
X27028350Y-11794081D01*
X26878350Y-11644081D02*
X26878350Y-11944081D01*
X26728350Y-11794081D02*
X27028350Y-11794081D01*
X27087254Y-9775023D02*
X27087254Y-10075023D01*
X26937254Y-9925023D02*
X27237254Y-9925023D01*
X27259528Y-12035364D02*
X27259528Y-12335364D01*
X27109528Y-12185364D02*
X27409528Y-12185364D01*
X27632885Y-9748820D02*
X27632885Y-10048820D01*
X27482885Y-9898820D02*
X27782885Y-9898820D01*
X27632885Y-9748820D02*
X27632885Y-10048820D01*
X27482885Y-9898820D02*
X27782885Y-9898820D01*
X27809138Y-7876401D02*
X27809138Y-8176401D01*
X27659138Y-8026401D02*
X27959138Y-8026401D01*
X28020834Y-10133391D02*
X28020834Y-10433391D01*
X27870834Y-10283391D02*
X28170834Y-10283391D01*
X28354229Y-7840679D02*
X28354229Y-8140679D01*
X28204229Y-7990679D02*
X28504229Y-7990679D01*
X28354229Y-7840679D02*
X28354229Y-8140679D01*
X28204229Y-7990679D02*
X28504229Y-7990679D01*
X28748831Y-8218421D02*
X28748831Y-8518421D01*
X28598831Y-8368421D02*
X28898831Y-8368421D01*
D14*
X13089878Y-12158266D02*
X13089878Y-11915797D01*
X12847409Y-11915797D01*
X12847409Y-12158266D01*
X13089878Y-12158266D01*
X13125481Y-10118577D02*
X13125481Y-9876108D01*
X12883012Y-9876108D01*
X12883012Y-10118577D01*
X13125481Y-10118577D01*
X13196676Y-8079820D02*
X13196676Y-7837350D01*
X12954207Y-7837350D01*
X12954207Y-8079820D01*
X13196676Y-8079820D01*
X13303441Y-6042615D02*
X13303441Y-5800146D01*
X13060972Y-5800146D01*
X13060972Y-6042615D01*
X13303441Y-6042615D01*
X15249878Y-11858266D02*
X15249878Y-11615797D01*
X15007409Y-11615797D01*
X15007409Y-11858266D01*
X15249878Y-11858266D01*
X15392181Y-9823236D02*
X15392181Y-9580766D01*
X15149712Y-9580766D01*
X15149712Y-9823236D01*
X15392181Y-9823236D01*
X15569979Y-7790998D02*
X15569979Y-7548529D01*
X15327510Y-7548529D01*
X15327510Y-7790998D01*
X15569979Y-7790998D01*
X15783217Y-5762174D02*
X15783217Y-5519705D01*
X15540748Y-5519705D01*
X15540748Y-5762174D01*
X15783217Y-5762174D01*
X17448787Y-11172408D02*
X17448787Y-10929939D01*
X17206317Y-10929939D01*
X17206317Y-11172408D01*
X17448787Y-11172408D01*
X17732700Y-9152261D02*
X17732700Y-8909792D01*
X17490231Y-8909792D01*
X17490231Y-9152261D01*
X17732700Y-9152261D01*
X18016613Y-7132114D02*
X18016613Y-6889645D01*
X17774144Y-6889645D01*
X17774144Y-7132114D01*
X18016613Y-7132114D01*
X18300526Y-5111968D02*
X18300526Y-4869499D01*
X18058057Y-4869499D01*
X18058057Y-5111968D01*
X18300526Y-5111968D01*
X19629518Y-11175942D02*
X19629518Y-10933473D01*
X19387048Y-10933473D01*
X19387048Y-11175942D01*
X19629518Y-11175942D01*
X20088418Y-9188227D02*
X20088418Y-8945758D01*
X19845949Y-8945758D01*
X19845949Y-9188227D01*
X20088418Y-9188227D01*
X20547318Y-7200512D02*
X20547318Y-6958043D01*
X20304849Y-6958043D01*
X20304849Y-7200512D01*
X20547318Y-7200512D01*
X21006218Y-5212797D02*
X21006218Y-4970328D01*
X20763749Y-4970328D01*
X20763749Y-5212797D01*
X21006218Y-5212797D01*
X21459797Y-17314898D02*
X21459797Y-17072429D01*
X21217328Y-17072429D01*
X21217328Y-17314898D01*
X21459797Y-17314898D01*
X21666672Y-11954147D02*
X21666672Y-11711678D01*
X21424202Y-11711678D01*
X21424202Y-11954147D01*
X21666672Y-11954147D01*
X22263110Y-10003285D02*
X22263110Y-9760816D01*
X22020641Y-9760816D01*
X22020641Y-10003285D01*
X22263110Y-10003285D01*
X22715747Y-15707356D02*
X22715747Y-15464887D01*
X22473277Y-15464887D01*
X22473277Y-15707356D01*
X22715747Y-15707356D01*
X22825410Y-8042311D02*
X22825410Y-7799842D01*
X22582941Y-7799842D01*
X22582941Y-8042311D01*
X22825410Y-8042311D01*
X23067339Y-18570847D02*
X23067339Y-18328378D01*
X22824870Y-18328378D01*
X22824870Y-18570847D01*
X23067339Y-18570847D01*
X23353401Y-6071823D02*
X23353401Y-5829354D01*
X23110932Y-5829354D01*
X23110932Y-6071823D01*
X23353401Y-6071823D01*
X23566445Y-13097152D02*
X23566445Y-12854683D01*
X23323976Y-12854683D01*
X23323976Y-13097152D01*
X23566445Y-13097152D01*
X24264166Y-11180179D02*
X24264166Y-10937710D01*
X24021697Y-10937710D01*
X24021697Y-11180179D01*
X24264166Y-11180179D01*
X24323289Y-16963306D02*
X24323289Y-16720836D01*
X24080819Y-16720836D01*
X24080819Y-16963306D01*
X24323289Y-16963306D01*
X24928325Y-9251321D02*
X24928325Y-9008852D01*
X24685856Y-9008852D01*
X24685856Y-9251321D01*
X24928325Y-9251321D01*
X25558720Y-7311166D02*
X25558720Y-7068697D01*
X25316251Y-7068697D01*
X25316251Y-7311166D01*
X25558720Y-7311166D01*
X25979602Y-14344820D02*
X25979602Y-14102350D01*
X25737133Y-14102350D01*
X25737133Y-14344820D01*
X25979602Y-14344820D01*
X26776693Y-12466990D02*
X26776693Y-12224520D01*
X26534224Y-12224520D01*
X26534224Y-12466990D01*
X26776693Y-12466990D01*
X27540891Y-10575535D02*
X27540891Y-10333065D01*
X27298422Y-10333065D01*
X27298422Y-10575535D01*
X27540891Y-10575535D01*
X28271961Y-8671031D02*
X28271961Y-8428561D01*
X28029492Y-8428561D01*
X28029492Y-8671031D01*
X28271961Y-8671031D01*
D11*
X11770241Y-20464794D02*
X11770241Y-20264794D01*
X11770241Y-20264794D02*
X11817860Y-20264794D01*
X11817860Y-20264794D02*
X11846432Y-20274318D01*
X11846432Y-20274318D02*
X11865479Y-20293365D01*
X11865479Y-20293365D02*
X11875003Y-20312413D01*
X11875003Y-20312413D02*
X11884527Y-20350508D01*
X11884527Y-20350508D02*
X11884527Y-20379079D01*
X11884527Y-20379079D02*
X11875003Y-20417175D01*
X11875003Y-20417175D02*
X11865479Y-20436222D01*
X11865479Y-20436222D02*
X11846432Y-20455270D01*
X11846432Y-20455270D02*
X11817860Y-20464794D01*
X11817860Y-20464794D02*
X11770241Y-20464794D01*
X11970241Y-20464794D02*
X11970241Y-20331460D01*
X11970241Y-20369556D02*
X11979765Y-20350508D01*
X11979765Y-20350508D02*
X11989289Y-20340984D01*
X11989289Y-20340984D02*
X12008336Y-20331460D01*
X12008336Y-20331460D02*
X12027384Y-20331460D01*
X12094051Y-20464794D02*
X12094051Y-20331460D01*
X12094051Y-20264794D02*
X12084527Y-20274318D01*
X12084527Y-20274318D02*
X12094051Y-20283841D01*
X12094051Y-20283841D02*
X12103574Y-20274318D01*
X12103574Y-20274318D02*
X12094051Y-20264794D01*
X12094051Y-20264794D02*
X12094051Y-20283841D01*
X12217860Y-20464794D02*
X12198813Y-20455270D01*
X12198813Y-20455270D02*
X12189289Y-20436222D01*
X12189289Y-20436222D02*
X12189289Y-20264794D01*
X12322622Y-20464794D02*
X12303574Y-20455270D01*
X12303574Y-20455270D02*
X12294051Y-20436222D01*
X12294051Y-20436222D02*
X12294051Y-20264794D01*
X12551194Y-20464794D02*
X12551194Y-20264794D01*
X12551194Y-20264794D02*
X12617860Y-20407651D01*
X12617860Y-20407651D02*
X12684527Y-20264794D01*
X12684527Y-20264794D02*
X12684527Y-20464794D01*
X12865479Y-20464794D02*
X12865479Y-20360032D01*
X12865479Y-20360032D02*
X12855955Y-20340984D01*
X12855955Y-20340984D02*
X12836908Y-20331460D01*
X12836908Y-20331460D02*
X12798813Y-20331460D01*
X12798813Y-20331460D02*
X12779765Y-20340984D01*
X12865479Y-20455270D02*
X12846432Y-20464794D01*
X12846432Y-20464794D02*
X12798813Y-20464794D01*
X12798813Y-20464794D02*
X12779765Y-20455270D01*
X12779765Y-20455270D02*
X12770241Y-20436222D01*
X12770241Y-20436222D02*
X12770241Y-20417175D01*
X12770241Y-20417175D02*
X12779765Y-20398127D01*
X12779765Y-20398127D02*
X12798813Y-20388603D01*
X12798813Y-20388603D02*
X12846432Y-20388603D01*
X12846432Y-20388603D02*
X12865479Y-20379079D01*
X12960717Y-20331460D02*
X12960717Y-20531460D01*
X12960717Y-20340984D02*
X12979765Y-20331460D01*
X12979765Y-20331460D02*
X13017860Y-20331460D01*
X13017860Y-20331460D02*
X13036908Y-20340984D01*
X13036908Y-20340984D02*
X13046432Y-20350508D01*
X13046432Y-20350508D02*
X13055955Y-20369556D01*
X13055955Y-20369556D02*
X13055955Y-20426698D01*
X13055955Y-20426698D02*
X13046432Y-20445746D01*
X13046432Y-20445746D02*
X13036908Y-20455270D01*
X13036908Y-20455270D02*
X13017860Y-20464794D01*
X13017860Y-20464794D02*
X12979765Y-20464794D01*
X12979765Y-20464794D02*
X12960717Y-20455270D01*
X13141670Y-20445746D02*
X13151194Y-20455270D01*
X13151194Y-20455270D02*
X13141670Y-20464794D01*
X13141670Y-20464794D02*
X13132146Y-20455270D01*
X13132146Y-20455270D02*
X13141670Y-20445746D01*
X13141670Y-20445746D02*
X13141670Y-20464794D01*
X13141670Y-20340984D02*
X13151194Y-20350508D01*
X13151194Y-20350508D02*
X13141670Y-20360032D01*
X13141670Y-20360032D02*
X13132146Y-20350508D01*
X13132146Y-20350508D02*
X13141670Y-20340984D01*
X13141670Y-20340984D02*
X13141670Y-20360032D01*
D10*
X11359464Y-20718310D02*
X11509464Y-20868310D01*
X11509464Y-20718310D02*
X11359464Y-20868310D01*
D11*
X11875003Y-20884794D02*
X11760717Y-20884794D01*
X11817860Y-20884794D02*
X11817860Y-20684794D01*
X11817860Y-20684794D02*
X11798813Y-20713365D01*
X11798813Y-20713365D02*
X11779765Y-20732413D01*
X11779765Y-20732413D02*
X11760717Y-20741937D01*
X11960717Y-20865746D02*
X11970241Y-20875270D01*
X11970241Y-20875270D02*
X11960717Y-20884794D01*
X11960717Y-20884794D02*
X11951194Y-20875270D01*
X11951194Y-20875270D02*
X11960717Y-20865746D01*
X11960717Y-20865746D02*
X11960717Y-20884794D01*
X12151194Y-20684794D02*
X12055955Y-20684794D01*
X12055955Y-20684794D02*
X12046432Y-20780032D01*
X12046432Y-20780032D02*
X12055955Y-20770508D01*
X12055955Y-20770508D02*
X12075003Y-20760984D01*
X12075003Y-20760984D02*
X12122622Y-20760984D01*
X12122622Y-20760984D02*
X12141670Y-20770508D01*
X12141670Y-20770508D02*
X12151194Y-20780032D01*
X12151194Y-20780032D02*
X12160717Y-20799079D01*
X12160717Y-20799079D02*
X12160717Y-20846698D01*
X12160717Y-20846698D02*
X12151194Y-20865746D01*
X12151194Y-20865746D02*
X12141670Y-20875270D01*
X12141670Y-20875270D02*
X12122622Y-20884794D01*
X12122622Y-20884794D02*
X12075003Y-20884794D01*
X12075003Y-20884794D02*
X12055955Y-20875270D01*
X12055955Y-20875270D02*
X12046432Y-20865746D01*
X12284527Y-20684794D02*
X12303575Y-20684794D01*
X12303575Y-20684794D02*
X12322622Y-20694318D01*
X12322622Y-20694318D02*
X12332146Y-20703841D01*
X12332146Y-20703841D02*
X12341670Y-20722889D01*
X12341670Y-20722889D02*
X12351194Y-20760984D01*
X12351194Y-20760984D02*
X12351194Y-20808603D01*
X12351194Y-20808603D02*
X12341670Y-20846698D01*
X12341670Y-20846698D02*
X12332146Y-20865746D01*
X12332146Y-20865746D02*
X12322622Y-20875270D01*
X12322622Y-20875270D02*
X12303575Y-20884794D01*
X12303575Y-20884794D02*
X12284527Y-20884794D01*
X12284527Y-20884794D02*
X12265479Y-20875270D01*
X12265479Y-20875270D02*
X12255955Y-20865746D01*
X12255955Y-20865746D02*
X12246432Y-20846698D01*
X12246432Y-20846698D02*
X12236908Y-20808603D01*
X12236908Y-20808603D02*
X12236908Y-20760984D01*
X12236908Y-20760984D02*
X12246432Y-20722889D01*
X12246432Y-20722889D02*
X12255955Y-20703841D01*
X12255955Y-20703841D02*
X12265479Y-20694318D01*
X12265479Y-20694318D02*
X12284527Y-20684794D01*
X12475003Y-20684794D02*
X12494051Y-20684794D01*
X12494051Y-20684794D02*
X12513098Y-20694318D01*
X12513098Y-20694318D02*
X12522622Y-20703841D01*
X12522622Y-20703841D02*
X12532146Y-20722889D01*
X12532146Y-20722889D02*
X12541670Y-20760984D01*
X12541670Y-20760984D02*
X12541670Y-20808603D01*
X12541670Y-20808603D02*
X12532146Y-20846698D01*
X12532146Y-20846698D02*
X12522622Y-20865746D01*
X12522622Y-20865746D02*
X12513098Y-20875270D01*
X12513098Y-20875270D02*
X12494051Y-20884794D01*
X12494051Y-20884794D02*
X12475003Y-20884794D01*
X12475003Y-20884794D02*
X12455955Y-20875270D01*
X12455955Y-20875270D02*
X12446432Y-20865746D01*
X12446432Y-20865746D02*
X12436908Y-20846698D01*
X12436908Y-20846698D02*
X12427384Y-20808603D01*
X12427384Y-20808603D02*
X12427384Y-20760984D01*
X12427384Y-20760984D02*
X12436908Y-20722889D01*
X12436908Y-20722889D02*
X12446432Y-20703841D01*
X12446432Y-20703841D02*
X12455955Y-20694318D01*
X12455955Y-20694318D02*
X12475003Y-20684794D01*
X12627384Y-20884794D02*
X12627384Y-20751460D01*
X12627384Y-20770508D02*
X12636908Y-20760984D01*
X12636908Y-20760984D02*
X12655955Y-20751460D01*
X12655955Y-20751460D02*
X12684527Y-20751460D01*
X12684527Y-20751460D02*
X12703575Y-20760984D01*
X12703575Y-20760984D02*
X12713098Y-20780032D01*
X12713098Y-20780032D02*
X12713098Y-20884794D01*
X12713098Y-20780032D02*
X12722622Y-20760984D01*
X12722622Y-20760984D02*
X12741670Y-20751460D01*
X12741670Y-20751460D02*
X12770241Y-20751460D01*
X12770241Y-20751460D02*
X12789289Y-20760984D01*
X12789289Y-20760984D02*
X12798813Y-20780032D01*
X12798813Y-20780032D02*
X12798813Y-20884794D01*
X12894051Y-20884794D02*
X12894051Y-20751460D01*
X12894051Y-20770508D02*
X12903575Y-20760984D01*
X12903575Y-20760984D02*
X12922622Y-20751460D01*
X12922622Y-20751460D02*
X12951194Y-20751460D01*
X12951194Y-20751460D02*
X12970241Y-20760984D01*
X12970241Y-20760984D02*
X12979765Y-20780032D01*
X12979765Y-20780032D02*
X12979765Y-20884794D01*
X12979765Y-20780032D02*
X12989289Y-20760984D01*
X12989289Y-20760984D02*
X13008336Y-20751460D01*
X13008336Y-20751460D02*
X13036908Y-20751460D01*
X13036908Y-20751460D02*
X13055956Y-20760984D01*
X13055956Y-20760984D02*
X13065479Y-20780032D01*
X13065479Y-20780032D02*
X13065479Y-20884794D01*
X13455956Y-20675270D02*
X13284527Y-20932413D01*
X13713098Y-20684794D02*
X13732146Y-20684794D01*
X13732146Y-20684794D02*
X13751194Y-20694318D01*
X13751194Y-20694318D02*
X13760718Y-20703841D01*
X13760718Y-20703841D02*
X13770241Y-20722889D01*
X13770241Y-20722889D02*
X13779765Y-20760984D01*
X13779765Y-20760984D02*
X13779765Y-20808603D01*
X13779765Y-20808603D02*
X13770241Y-20846698D01*
X13770241Y-20846698D02*
X13760718Y-20865746D01*
X13760718Y-20865746D02*
X13751194Y-20875270D01*
X13751194Y-20875270D02*
X13732146Y-20884794D01*
X13732146Y-20884794D02*
X13713098Y-20884794D01*
X13713098Y-20884794D02*
X13694051Y-20875270D01*
X13694051Y-20875270D02*
X13684527Y-20865746D01*
X13684527Y-20865746D02*
X13675003Y-20846698D01*
X13675003Y-20846698D02*
X13665479Y-20808603D01*
X13665479Y-20808603D02*
X13665479Y-20760984D01*
X13665479Y-20760984D02*
X13675003Y-20722889D01*
X13675003Y-20722889D02*
X13684527Y-20703841D01*
X13684527Y-20703841D02*
X13694051Y-20694318D01*
X13694051Y-20694318D02*
X13713098Y-20684794D01*
X13865479Y-20865746D02*
X13875003Y-20875270D01*
X13875003Y-20875270D02*
X13865479Y-20884794D01*
X13865479Y-20884794D02*
X13855956Y-20875270D01*
X13855956Y-20875270D02*
X13865479Y-20865746D01*
X13865479Y-20865746D02*
X13865479Y-20884794D01*
X13998813Y-20684794D02*
X14017860Y-20684794D01*
X14017860Y-20684794D02*
X14036908Y-20694318D01*
X14036908Y-20694318D02*
X14046432Y-20703841D01*
X14046432Y-20703841D02*
X14055956Y-20722889D01*
X14055956Y-20722889D02*
X14065479Y-20760984D01*
X14065479Y-20760984D02*
X14065479Y-20808603D01*
X14065479Y-20808603D02*
X14055956Y-20846698D01*
X14055956Y-20846698D02*
X14046432Y-20865746D01*
X14046432Y-20865746D02*
X14036908Y-20875270D01*
X14036908Y-20875270D02*
X14017860Y-20884794D01*
X14017860Y-20884794D02*
X13998813Y-20884794D01*
X13998813Y-20884794D02*
X13979765Y-20875270D01*
X13979765Y-20875270D02*
X13970241Y-20865746D01*
X13970241Y-20865746D02*
X13960718Y-20846698D01*
X13960718Y-20846698D02*
X13951194Y-20808603D01*
X13951194Y-20808603D02*
X13951194Y-20760984D01*
X13951194Y-20760984D02*
X13960718Y-20722889D01*
X13960718Y-20722889D02*
X13970241Y-20703841D01*
X13970241Y-20703841D02*
X13979765Y-20694318D01*
X13979765Y-20694318D02*
X13998813Y-20684794D01*
X14246432Y-20684794D02*
X14151194Y-20684794D01*
X14151194Y-20684794D02*
X14141670Y-20780032D01*
X14141670Y-20780032D02*
X14151194Y-20770508D01*
X14151194Y-20770508D02*
X14170241Y-20760984D01*
X14170241Y-20760984D02*
X14217860Y-20760984D01*
X14217860Y-20760984D02*
X14236908Y-20770508D01*
X14236908Y-20770508D02*
X14246432Y-20780032D01*
X14246432Y-20780032D02*
X14255956Y-20799079D01*
X14255956Y-20799079D02*
X14255956Y-20846698D01*
X14255956Y-20846698D02*
X14246432Y-20865746D01*
X14246432Y-20865746D02*
X14236908Y-20875270D01*
X14236908Y-20875270D02*
X14217860Y-20884794D01*
X14217860Y-20884794D02*
X14170241Y-20884794D01*
X14170241Y-20884794D02*
X14151194Y-20875270D01*
X14151194Y-20875270D02*
X14141670Y-20865746D01*
X14351194Y-20884794D02*
X14389289Y-20884794D01*
X14389289Y-20884794D02*
X14408337Y-20875270D01*
X14408337Y-20875270D02*
X14417860Y-20865746D01*
X14417860Y-20865746D02*
X14436908Y-20837175D01*
X14436908Y-20837175D02*
X14446432Y-20799079D01*
X14446432Y-20799079D02*
X14446432Y-20722889D01*
X14446432Y-20722889D02*
X14436908Y-20703841D01*
X14436908Y-20703841D02*
X14427384Y-20694318D01*
X14427384Y-20694318D02*
X14408337Y-20684794D01*
X14408337Y-20684794D02*
X14370241Y-20684794D01*
X14370241Y-20684794D02*
X14351194Y-20694318D01*
X14351194Y-20694318D02*
X14341670Y-20703841D01*
X14341670Y-20703841D02*
X14332146Y-20722889D01*
X14332146Y-20722889D02*
X14332146Y-20770508D01*
X14332146Y-20770508D02*
X14341670Y-20789556D01*
X14341670Y-20789556D02*
X14351194Y-20799079D01*
X14351194Y-20799079D02*
X14370241Y-20808603D01*
X14370241Y-20808603D02*
X14408337Y-20808603D01*
X14408337Y-20808603D02*
X14427384Y-20799079D01*
X14427384Y-20799079D02*
X14436908Y-20789556D01*
X14436908Y-20789556D02*
X14446432Y-20770508D01*
X14636908Y-20884794D02*
X14522622Y-20884794D01*
X14579765Y-20884794D02*
X14579765Y-20684794D01*
X14579765Y-20684794D02*
X14560718Y-20713365D01*
X14560718Y-20713365D02*
X14541670Y-20732413D01*
X14541670Y-20732413D02*
X14522622Y-20741937D01*
X14713099Y-20684794D02*
X14713099Y-20722889D01*
X14789289Y-20684794D02*
X14789289Y-20722889D01*
X15084527Y-20960984D02*
X15075003Y-20951460D01*
X15075003Y-20951460D02*
X15055956Y-20922889D01*
X15055956Y-20922889D02*
X15046432Y-20903841D01*
X15046432Y-20903841D02*
X15036908Y-20875270D01*
X15036908Y-20875270D02*
X15027384Y-20827651D01*
X15027384Y-20827651D02*
X15027384Y-20789556D01*
X15027384Y-20789556D02*
X15036908Y-20741937D01*
X15036908Y-20741937D02*
X15046432Y-20713365D01*
X15046432Y-20713365D02*
X15055956Y-20694318D01*
X15055956Y-20694318D02*
X15075003Y-20665746D01*
X15075003Y-20665746D02*
X15084527Y-20656222D01*
X15246432Y-20751460D02*
X15246432Y-20884794D01*
X15198813Y-20675270D02*
X15151194Y-20818127D01*
X15151194Y-20818127D02*
X15275003Y-20818127D01*
X15503575Y-20884794D02*
X15503575Y-20684794D01*
X15589289Y-20884794D02*
X15589289Y-20780032D01*
X15589289Y-20780032D02*
X15579765Y-20760984D01*
X15579765Y-20760984D02*
X15560718Y-20751460D01*
X15560718Y-20751460D02*
X15532146Y-20751460D01*
X15532146Y-20751460D02*
X15513099Y-20760984D01*
X15513099Y-20760984D02*
X15503575Y-20770508D01*
X15713099Y-20884794D02*
X15694051Y-20875270D01*
X15694051Y-20875270D02*
X15684527Y-20865746D01*
X15684527Y-20865746D02*
X15675003Y-20846698D01*
X15675003Y-20846698D02*
X15675003Y-20789556D01*
X15675003Y-20789556D02*
X15684527Y-20770508D01*
X15684527Y-20770508D02*
X15694051Y-20760984D01*
X15694051Y-20760984D02*
X15713099Y-20751460D01*
X15713099Y-20751460D02*
X15741670Y-20751460D01*
X15741670Y-20751460D02*
X15760718Y-20760984D01*
X15760718Y-20760984D02*
X15770242Y-20770508D01*
X15770242Y-20770508D02*
X15779765Y-20789556D01*
X15779765Y-20789556D02*
X15779765Y-20846698D01*
X15779765Y-20846698D02*
X15770242Y-20865746D01*
X15770242Y-20865746D02*
X15760718Y-20875270D01*
X15760718Y-20875270D02*
X15741670Y-20884794D01*
X15741670Y-20884794D02*
X15713099Y-20884794D01*
X15894051Y-20884794D02*
X15875003Y-20875270D01*
X15875003Y-20875270D02*
X15865480Y-20856222D01*
X15865480Y-20856222D02*
X15865480Y-20684794D01*
X16046432Y-20875270D02*
X16027384Y-20884794D01*
X16027384Y-20884794D02*
X15989289Y-20884794D01*
X15989289Y-20884794D02*
X15970242Y-20875270D01*
X15970242Y-20875270D02*
X15960718Y-20856222D01*
X15960718Y-20856222D02*
X15960718Y-20780032D01*
X15960718Y-20780032D02*
X15970242Y-20760984D01*
X15970242Y-20760984D02*
X15989289Y-20751460D01*
X15989289Y-20751460D02*
X16027384Y-20751460D01*
X16027384Y-20751460D02*
X16046432Y-20760984D01*
X16046432Y-20760984D02*
X16055956Y-20780032D01*
X16055956Y-20780032D02*
X16055956Y-20799079D01*
X16055956Y-20799079D02*
X15960718Y-20818127D01*
X16132146Y-20875270D02*
X16151194Y-20884794D01*
X16151194Y-20884794D02*
X16189289Y-20884794D01*
X16189289Y-20884794D02*
X16208337Y-20875270D01*
X16208337Y-20875270D02*
X16217861Y-20856222D01*
X16217861Y-20856222D02*
X16217861Y-20846698D01*
X16217861Y-20846698D02*
X16208337Y-20827651D01*
X16208337Y-20827651D02*
X16189289Y-20818127D01*
X16189289Y-20818127D02*
X16160718Y-20818127D01*
X16160718Y-20818127D02*
X16141670Y-20808603D01*
X16141670Y-20808603D02*
X16132146Y-20789556D01*
X16132146Y-20789556D02*
X16132146Y-20780032D01*
X16132146Y-20780032D02*
X16141670Y-20760984D01*
X16141670Y-20760984D02*
X16160718Y-20751460D01*
X16160718Y-20751460D02*
X16189289Y-20751460D01*
X16189289Y-20751460D02*
X16208337Y-20760984D01*
X16284527Y-20960984D02*
X16294051Y-20951460D01*
X16294051Y-20951460D02*
X16313099Y-20922889D01*
X16313099Y-20922889D02*
X16322623Y-20903841D01*
X16322623Y-20903841D02*
X16332146Y-20875270D01*
X16332146Y-20875270D02*
X16341670Y-20827651D01*
X16341670Y-20827651D02*
X16341670Y-20789556D01*
X16341670Y-20789556D02*
X16332146Y-20741937D01*
X16332146Y-20741937D02*
X16322623Y-20713365D01*
X16322623Y-20713365D02*
X16313099Y-20694318D01*
X16313099Y-20694318D02*
X16294051Y-20665746D01*
X16294051Y-20665746D02*
X16284527Y-20656222D01*
X16646432Y-20960984D02*
X16636908Y-20951460D01*
X16636908Y-20951460D02*
X16617861Y-20922889D01*
X16617861Y-20922889D02*
X16608337Y-20903841D01*
X16608337Y-20903841D02*
X16598813Y-20875270D01*
X16598813Y-20875270D02*
X16589289Y-20827651D01*
X16589289Y-20827651D02*
X16589289Y-20789556D01*
X16589289Y-20789556D02*
X16598813Y-20741937D01*
X16598813Y-20741937D02*
X16608337Y-20713365D01*
X16608337Y-20713365D02*
X16617861Y-20694318D01*
X16617861Y-20694318D02*
X16636908Y-20665746D01*
X16636908Y-20665746D02*
X16646432Y-20656222D01*
X16722623Y-20751460D02*
X16722623Y-20884794D01*
X16722623Y-20770508D02*
X16732146Y-20760984D01*
X16732146Y-20760984D02*
X16751194Y-20751460D01*
X16751194Y-20751460D02*
X16779766Y-20751460D01*
X16779766Y-20751460D02*
X16798813Y-20760984D01*
X16798813Y-20760984D02*
X16808337Y-20780032D01*
X16808337Y-20780032D02*
X16808337Y-20884794D01*
X16932146Y-20884794D02*
X16913099Y-20875270D01*
X16913099Y-20875270D02*
X16903575Y-20865746D01*
X16903575Y-20865746D02*
X16894051Y-20846698D01*
X16894051Y-20846698D02*
X16894051Y-20789556D01*
X16894051Y-20789556D02*
X16903575Y-20770508D01*
X16903575Y-20770508D02*
X16913099Y-20760984D01*
X16913099Y-20760984D02*
X16932146Y-20751460D01*
X16932146Y-20751460D02*
X16960718Y-20751460D01*
X16960718Y-20751460D02*
X16979766Y-20760984D01*
X16979766Y-20760984D02*
X16989289Y-20770508D01*
X16989289Y-20770508D02*
X16998813Y-20789556D01*
X16998813Y-20789556D02*
X16998813Y-20846698D01*
X16998813Y-20846698D02*
X16989289Y-20865746D01*
X16989289Y-20865746D02*
X16979766Y-20875270D01*
X16979766Y-20875270D02*
X16960718Y-20884794D01*
X16960718Y-20884794D02*
X16932146Y-20884794D01*
X17055956Y-20751460D02*
X17132146Y-20751460D01*
X17084527Y-20684794D02*
X17084527Y-20856222D01*
X17084527Y-20856222D02*
X17094051Y-20875270D01*
X17094051Y-20875270D02*
X17113099Y-20884794D01*
X17113099Y-20884794D02*
X17132146Y-20884794D01*
X17351194Y-20751460D02*
X17351194Y-20951460D01*
X17351194Y-20760984D02*
X17370242Y-20751460D01*
X17370242Y-20751460D02*
X17408337Y-20751460D01*
X17408337Y-20751460D02*
X17427385Y-20760984D01*
X17427385Y-20760984D02*
X17436908Y-20770508D01*
X17436908Y-20770508D02*
X17446432Y-20789556D01*
X17446432Y-20789556D02*
X17446432Y-20846698D01*
X17446432Y-20846698D02*
X17436908Y-20865746D01*
X17436908Y-20865746D02*
X17427385Y-20875270D01*
X17427385Y-20875270D02*
X17408337Y-20884794D01*
X17408337Y-20884794D02*
X17370242Y-20884794D01*
X17370242Y-20884794D02*
X17351194Y-20875270D01*
X17560718Y-20884794D02*
X17541670Y-20875270D01*
X17541670Y-20875270D02*
X17532147Y-20856222D01*
X17532147Y-20856222D02*
X17532147Y-20684794D01*
X17722623Y-20884794D02*
X17722623Y-20780032D01*
X17722623Y-20780032D02*
X17713099Y-20760984D01*
X17713099Y-20760984D02*
X17694051Y-20751460D01*
X17694051Y-20751460D02*
X17655956Y-20751460D01*
X17655956Y-20751460D02*
X17636908Y-20760984D01*
X17722623Y-20875270D02*
X17703575Y-20884794D01*
X17703575Y-20884794D02*
X17655956Y-20884794D01*
X17655956Y-20884794D02*
X17636908Y-20875270D01*
X17636908Y-20875270D02*
X17627385Y-20856222D01*
X17627385Y-20856222D02*
X17627385Y-20837175D01*
X17627385Y-20837175D02*
X17636908Y-20818127D01*
X17636908Y-20818127D02*
X17655956Y-20808603D01*
X17655956Y-20808603D02*
X17703575Y-20808603D01*
X17703575Y-20808603D02*
X17722623Y-20799079D01*
X17789289Y-20751460D02*
X17865480Y-20751460D01*
X17817861Y-20684794D02*
X17817861Y-20856222D01*
X17817861Y-20856222D02*
X17827385Y-20875270D01*
X17827385Y-20875270D02*
X17846432Y-20884794D01*
X17846432Y-20884794D02*
X17865480Y-20884794D01*
X18008337Y-20875270D02*
X17989289Y-20884794D01*
X17989289Y-20884794D02*
X17951194Y-20884794D01*
X17951194Y-20884794D02*
X17932147Y-20875270D01*
X17932147Y-20875270D02*
X17922623Y-20856222D01*
X17922623Y-20856222D02*
X17922623Y-20780032D01*
X17922623Y-20780032D02*
X17932147Y-20760984D01*
X17932147Y-20760984D02*
X17951194Y-20751460D01*
X17951194Y-20751460D02*
X17989289Y-20751460D01*
X17989289Y-20751460D02*
X18008337Y-20760984D01*
X18008337Y-20760984D02*
X18017861Y-20780032D01*
X18017861Y-20780032D02*
X18017861Y-20799079D01*
X18017861Y-20799079D02*
X17922623Y-20818127D01*
X18189289Y-20884794D02*
X18189289Y-20684794D01*
X18189289Y-20875270D02*
X18170242Y-20884794D01*
X18170242Y-20884794D02*
X18132147Y-20884794D01*
X18132147Y-20884794D02*
X18113099Y-20875270D01*
X18113099Y-20875270D02*
X18103575Y-20865746D01*
X18103575Y-20865746D02*
X18094051Y-20846698D01*
X18094051Y-20846698D02*
X18094051Y-20789556D01*
X18094051Y-20789556D02*
X18103575Y-20770508D01*
X18103575Y-20770508D02*
X18113099Y-20760984D01*
X18113099Y-20760984D02*
X18132147Y-20751460D01*
X18132147Y-20751460D02*
X18170242Y-20751460D01*
X18170242Y-20751460D02*
X18189289Y-20760984D01*
X18265480Y-20960984D02*
X18275004Y-20951460D01*
X18275004Y-20951460D02*
X18294051Y-20922889D01*
X18294051Y-20922889D02*
X18303575Y-20903841D01*
X18303575Y-20903841D02*
X18313099Y-20875270D01*
X18313099Y-20875270D02*
X18322623Y-20827651D01*
X18322623Y-20827651D02*
X18322623Y-20789556D01*
X18322623Y-20789556D02*
X18313099Y-20741937D01*
X18313099Y-20741937D02*
X18303575Y-20713365D01*
X18303575Y-20713365D02*
X18294051Y-20694318D01*
X18294051Y-20694318D02*
X18275004Y-20665746D01*
X18275004Y-20665746D02*
X18265480Y-20656222D01*
D12*
X11509464Y-21063310D02*
G75*
G03*
X11509464Y-21063310I-85090J0D01*
G01*
D11*
X11875003Y-21154794D02*
X11760717Y-21154794D01*
X11817860Y-21154794D02*
X11817860Y-20954794D01*
X11817860Y-20954794D02*
X11798813Y-20983365D01*
X11798813Y-20983365D02*
X11779765Y-21002413D01*
X11779765Y-21002413D02*
X11760717Y-21011937D01*
X11960717Y-21135746D02*
X11970241Y-21145270D01*
X11970241Y-21145270D02*
X11960717Y-21154794D01*
X11960717Y-21154794D02*
X11951194Y-21145270D01*
X11951194Y-21145270D02*
X11960717Y-21135746D01*
X11960717Y-21135746D02*
X11960717Y-21154794D01*
X12036908Y-20954794D02*
X12170241Y-20954794D01*
X12170241Y-20954794D02*
X12084527Y-21154794D01*
X12284527Y-20954794D02*
X12303575Y-20954794D01*
X12303575Y-20954794D02*
X12322622Y-20964318D01*
X12322622Y-20964318D02*
X12332146Y-20973841D01*
X12332146Y-20973841D02*
X12341670Y-20992889D01*
X12341670Y-20992889D02*
X12351194Y-21030984D01*
X12351194Y-21030984D02*
X12351194Y-21078603D01*
X12351194Y-21078603D02*
X12341670Y-21116698D01*
X12341670Y-21116698D02*
X12332146Y-21135746D01*
X12332146Y-21135746D02*
X12322622Y-21145270D01*
X12322622Y-21145270D02*
X12303575Y-21154794D01*
X12303575Y-21154794D02*
X12284527Y-21154794D01*
X12284527Y-21154794D02*
X12265479Y-21145270D01*
X12265479Y-21145270D02*
X12255955Y-21135746D01*
X12255955Y-21135746D02*
X12246432Y-21116698D01*
X12246432Y-21116698D02*
X12236908Y-21078603D01*
X12236908Y-21078603D02*
X12236908Y-21030984D01*
X12236908Y-21030984D02*
X12246432Y-20992889D01*
X12246432Y-20992889D02*
X12255955Y-20973841D01*
X12255955Y-20973841D02*
X12265479Y-20964318D01*
X12265479Y-20964318D02*
X12284527Y-20954794D01*
X12427384Y-20973841D02*
X12436908Y-20964318D01*
X12436908Y-20964318D02*
X12455955Y-20954794D01*
X12455955Y-20954794D02*
X12503575Y-20954794D01*
X12503575Y-20954794D02*
X12522622Y-20964318D01*
X12522622Y-20964318D02*
X12532146Y-20973841D01*
X12532146Y-20973841D02*
X12541670Y-20992889D01*
X12541670Y-20992889D02*
X12541670Y-21011937D01*
X12541670Y-21011937D02*
X12532146Y-21040508D01*
X12532146Y-21040508D02*
X12417860Y-21154794D01*
X12417860Y-21154794D02*
X12541670Y-21154794D01*
X12627384Y-21154794D02*
X12627384Y-21021460D01*
X12627384Y-21040508D02*
X12636908Y-21030984D01*
X12636908Y-21030984D02*
X12655955Y-21021460D01*
X12655955Y-21021460D02*
X12684527Y-21021460D01*
X12684527Y-21021460D02*
X12703575Y-21030984D01*
X12703575Y-21030984D02*
X12713098Y-21050032D01*
X12713098Y-21050032D02*
X12713098Y-21154794D01*
X12713098Y-21050032D02*
X12722622Y-21030984D01*
X12722622Y-21030984D02*
X12741670Y-21021460D01*
X12741670Y-21021460D02*
X12770241Y-21021460D01*
X12770241Y-21021460D02*
X12789289Y-21030984D01*
X12789289Y-21030984D02*
X12798813Y-21050032D01*
X12798813Y-21050032D02*
X12798813Y-21154794D01*
X12894051Y-21154794D02*
X12894051Y-21021460D01*
X12894051Y-21040508D02*
X12903575Y-21030984D01*
X12903575Y-21030984D02*
X12922622Y-21021460D01*
X12922622Y-21021460D02*
X12951194Y-21021460D01*
X12951194Y-21021460D02*
X12970241Y-21030984D01*
X12970241Y-21030984D02*
X12979765Y-21050032D01*
X12979765Y-21050032D02*
X12979765Y-21154794D01*
X12979765Y-21050032D02*
X12989289Y-21030984D01*
X12989289Y-21030984D02*
X13008336Y-21021460D01*
X13008336Y-21021460D02*
X13036908Y-21021460D01*
X13036908Y-21021460D02*
X13055956Y-21030984D01*
X13055956Y-21030984D02*
X13065479Y-21050032D01*
X13065479Y-21050032D02*
X13065479Y-21154794D01*
X13455956Y-20945270D02*
X13284527Y-21202413D01*
X13713098Y-20954794D02*
X13732146Y-20954794D01*
X13732146Y-20954794D02*
X13751194Y-20964318D01*
X13751194Y-20964318D02*
X13760718Y-20973841D01*
X13760718Y-20973841D02*
X13770241Y-20992889D01*
X13770241Y-20992889D02*
X13779765Y-21030984D01*
X13779765Y-21030984D02*
X13779765Y-21078603D01*
X13779765Y-21078603D02*
X13770241Y-21116698D01*
X13770241Y-21116698D02*
X13760718Y-21135746D01*
X13760718Y-21135746D02*
X13751194Y-21145270D01*
X13751194Y-21145270D02*
X13732146Y-21154794D01*
X13732146Y-21154794D02*
X13713098Y-21154794D01*
X13713098Y-21154794D02*
X13694051Y-21145270D01*
X13694051Y-21145270D02*
X13684527Y-21135746D01*
X13684527Y-21135746D02*
X13675003Y-21116698D01*
X13675003Y-21116698D02*
X13665479Y-21078603D01*
X13665479Y-21078603D02*
X13665479Y-21030984D01*
X13665479Y-21030984D02*
X13675003Y-20992889D01*
X13675003Y-20992889D02*
X13684527Y-20973841D01*
X13684527Y-20973841D02*
X13694051Y-20964318D01*
X13694051Y-20964318D02*
X13713098Y-20954794D01*
X13865479Y-21135746D02*
X13875003Y-21145270D01*
X13875003Y-21145270D02*
X13865479Y-21154794D01*
X13865479Y-21154794D02*
X13855956Y-21145270D01*
X13855956Y-21145270D02*
X13865479Y-21135746D01*
X13865479Y-21135746D02*
X13865479Y-21154794D01*
X13998813Y-20954794D02*
X14017860Y-20954794D01*
X14017860Y-20954794D02*
X14036908Y-20964318D01*
X14036908Y-20964318D02*
X14046432Y-20973841D01*
X14046432Y-20973841D02*
X14055956Y-20992889D01*
X14055956Y-20992889D02*
X14065479Y-21030984D01*
X14065479Y-21030984D02*
X14065479Y-21078603D01*
X14065479Y-21078603D02*
X14055956Y-21116698D01*
X14055956Y-21116698D02*
X14046432Y-21135746D01*
X14046432Y-21135746D02*
X14036908Y-21145270D01*
X14036908Y-21145270D02*
X14017860Y-21154794D01*
X14017860Y-21154794D02*
X13998813Y-21154794D01*
X13998813Y-21154794D02*
X13979765Y-21145270D01*
X13979765Y-21145270D02*
X13970241Y-21135746D01*
X13970241Y-21135746D02*
X13960718Y-21116698D01*
X13960718Y-21116698D02*
X13951194Y-21078603D01*
X13951194Y-21078603D02*
X13951194Y-21030984D01*
X13951194Y-21030984D02*
X13960718Y-20992889D01*
X13960718Y-20992889D02*
X13970241Y-20973841D01*
X13970241Y-20973841D02*
X13979765Y-20964318D01*
X13979765Y-20964318D02*
X13998813Y-20954794D01*
X14236908Y-20954794D02*
X14198813Y-20954794D01*
X14198813Y-20954794D02*
X14179765Y-20964318D01*
X14179765Y-20964318D02*
X14170241Y-20973841D01*
X14170241Y-20973841D02*
X14151194Y-21002413D01*
X14151194Y-21002413D02*
X14141670Y-21040508D01*
X14141670Y-21040508D02*
X14141670Y-21116698D01*
X14141670Y-21116698D02*
X14151194Y-21135746D01*
X14151194Y-21135746D02*
X14160718Y-21145270D01*
X14160718Y-21145270D02*
X14179765Y-21154794D01*
X14179765Y-21154794D02*
X14217860Y-21154794D01*
X14217860Y-21154794D02*
X14236908Y-21145270D01*
X14236908Y-21145270D02*
X14246432Y-21135746D01*
X14246432Y-21135746D02*
X14255956Y-21116698D01*
X14255956Y-21116698D02*
X14255956Y-21069079D01*
X14255956Y-21069079D02*
X14246432Y-21050032D01*
X14246432Y-21050032D02*
X14236908Y-21040508D01*
X14236908Y-21040508D02*
X14217860Y-21030984D01*
X14217860Y-21030984D02*
X14179765Y-21030984D01*
X14179765Y-21030984D02*
X14160718Y-21040508D01*
X14160718Y-21040508D02*
X14151194Y-21050032D01*
X14151194Y-21050032D02*
X14141670Y-21069079D01*
X14322622Y-20954794D02*
X14455956Y-20954794D01*
X14455956Y-20954794D02*
X14370241Y-21154794D01*
X14570241Y-20954794D02*
X14589289Y-20954794D01*
X14589289Y-20954794D02*
X14608337Y-20964318D01*
X14608337Y-20964318D02*
X14617860Y-20973841D01*
X14617860Y-20973841D02*
X14627384Y-20992889D01*
X14627384Y-20992889D02*
X14636908Y-21030984D01*
X14636908Y-21030984D02*
X14636908Y-21078603D01*
X14636908Y-21078603D02*
X14627384Y-21116698D01*
X14627384Y-21116698D02*
X14617860Y-21135746D01*
X14617860Y-21135746D02*
X14608337Y-21145270D01*
X14608337Y-21145270D02*
X14589289Y-21154794D01*
X14589289Y-21154794D02*
X14570241Y-21154794D01*
X14570241Y-21154794D02*
X14551194Y-21145270D01*
X14551194Y-21145270D02*
X14541670Y-21135746D01*
X14541670Y-21135746D02*
X14532146Y-21116698D01*
X14532146Y-21116698D02*
X14522622Y-21078603D01*
X14522622Y-21078603D02*
X14522622Y-21030984D01*
X14522622Y-21030984D02*
X14532146Y-20992889D01*
X14532146Y-20992889D02*
X14541670Y-20973841D01*
X14541670Y-20973841D02*
X14551194Y-20964318D01*
X14551194Y-20964318D02*
X14570241Y-20954794D01*
X14713099Y-20954794D02*
X14713099Y-20992889D01*
X14789289Y-20954794D02*
X14789289Y-20992889D01*
X15084527Y-21230984D02*
X15075003Y-21221460D01*
X15075003Y-21221460D02*
X15055956Y-21192889D01*
X15055956Y-21192889D02*
X15046432Y-21173841D01*
X15046432Y-21173841D02*
X15036908Y-21145270D01*
X15036908Y-21145270D02*
X15027384Y-21097651D01*
X15027384Y-21097651D02*
X15027384Y-21059556D01*
X15027384Y-21059556D02*
X15036908Y-21011937D01*
X15036908Y-21011937D02*
X15046432Y-20983365D01*
X15046432Y-20983365D02*
X15055956Y-20964318D01*
X15055956Y-20964318D02*
X15075003Y-20935746D01*
X15075003Y-20935746D02*
X15084527Y-20926222D01*
X15246432Y-20954794D02*
X15208337Y-20954794D01*
X15208337Y-20954794D02*
X15189289Y-20964318D01*
X15189289Y-20964318D02*
X15179765Y-20973841D01*
X15179765Y-20973841D02*
X15160718Y-21002413D01*
X15160718Y-21002413D02*
X15151194Y-21040508D01*
X15151194Y-21040508D02*
X15151194Y-21116698D01*
X15151194Y-21116698D02*
X15160718Y-21135746D01*
X15160718Y-21135746D02*
X15170241Y-21145270D01*
X15170241Y-21145270D02*
X15189289Y-21154794D01*
X15189289Y-21154794D02*
X15227384Y-21154794D01*
X15227384Y-21154794D02*
X15246432Y-21145270D01*
X15246432Y-21145270D02*
X15255956Y-21135746D01*
X15255956Y-21135746D02*
X15265480Y-21116698D01*
X15265480Y-21116698D02*
X15265480Y-21069079D01*
X15265480Y-21069079D02*
X15255956Y-21050032D01*
X15255956Y-21050032D02*
X15246432Y-21040508D01*
X15246432Y-21040508D02*
X15227384Y-21030984D01*
X15227384Y-21030984D02*
X15189289Y-21030984D01*
X15189289Y-21030984D02*
X15170241Y-21040508D01*
X15170241Y-21040508D02*
X15160718Y-21050032D01*
X15160718Y-21050032D02*
X15151194Y-21069079D01*
X15436908Y-21021460D02*
X15436908Y-21154794D01*
X15389289Y-20945270D02*
X15341670Y-21088127D01*
X15341670Y-21088127D02*
X15465480Y-21088127D01*
X15694051Y-21154794D02*
X15694051Y-20954794D01*
X15779765Y-21154794D02*
X15779765Y-21050032D01*
X15779765Y-21050032D02*
X15770242Y-21030984D01*
X15770242Y-21030984D02*
X15751194Y-21021460D01*
X15751194Y-21021460D02*
X15722622Y-21021460D01*
X15722622Y-21021460D02*
X15703575Y-21030984D01*
X15703575Y-21030984D02*
X15694051Y-21040508D01*
X15903575Y-21154794D02*
X15884527Y-21145270D01*
X15884527Y-21145270D02*
X15875003Y-21135746D01*
X15875003Y-21135746D02*
X15865480Y-21116698D01*
X15865480Y-21116698D02*
X15865480Y-21059556D01*
X15865480Y-21059556D02*
X15875003Y-21040508D01*
X15875003Y-21040508D02*
X15884527Y-21030984D01*
X15884527Y-21030984D02*
X15903575Y-21021460D01*
X15903575Y-21021460D02*
X15932146Y-21021460D01*
X15932146Y-21021460D02*
X15951194Y-21030984D01*
X15951194Y-21030984D02*
X15960718Y-21040508D01*
X15960718Y-21040508D02*
X15970242Y-21059556D01*
X15970242Y-21059556D02*
X15970242Y-21116698D01*
X15970242Y-21116698D02*
X15960718Y-21135746D01*
X15960718Y-21135746D02*
X15951194Y-21145270D01*
X15951194Y-21145270D02*
X15932146Y-21154794D01*
X15932146Y-21154794D02*
X15903575Y-21154794D01*
X16084527Y-21154794D02*
X16065480Y-21145270D01*
X16065480Y-21145270D02*
X16055956Y-21126222D01*
X16055956Y-21126222D02*
X16055956Y-20954794D01*
X16236908Y-21145270D02*
X16217861Y-21154794D01*
X16217861Y-21154794D02*
X16179765Y-21154794D01*
X16179765Y-21154794D02*
X16160718Y-21145270D01*
X16160718Y-21145270D02*
X16151194Y-21126222D01*
X16151194Y-21126222D02*
X16151194Y-21050032D01*
X16151194Y-21050032D02*
X16160718Y-21030984D01*
X16160718Y-21030984D02*
X16179765Y-21021460D01*
X16179765Y-21021460D02*
X16217861Y-21021460D01*
X16217861Y-21021460D02*
X16236908Y-21030984D01*
X16236908Y-21030984D02*
X16246432Y-21050032D01*
X16246432Y-21050032D02*
X16246432Y-21069079D01*
X16246432Y-21069079D02*
X16151194Y-21088127D01*
X16322623Y-21145270D02*
X16341670Y-21154794D01*
X16341670Y-21154794D02*
X16379765Y-21154794D01*
X16379765Y-21154794D02*
X16398813Y-21145270D01*
X16398813Y-21145270D02*
X16408337Y-21126222D01*
X16408337Y-21126222D02*
X16408337Y-21116698D01*
X16408337Y-21116698D02*
X16398813Y-21097651D01*
X16398813Y-21097651D02*
X16379765Y-21088127D01*
X16379765Y-21088127D02*
X16351194Y-21088127D01*
X16351194Y-21088127D02*
X16332146Y-21078603D01*
X16332146Y-21078603D02*
X16322623Y-21059556D01*
X16322623Y-21059556D02*
X16322623Y-21050032D01*
X16322623Y-21050032D02*
X16332146Y-21030984D01*
X16332146Y-21030984D02*
X16351194Y-21021460D01*
X16351194Y-21021460D02*
X16379765Y-21021460D01*
X16379765Y-21021460D02*
X16398813Y-21030984D01*
X16475004Y-21230984D02*
X16484527Y-21221460D01*
X16484527Y-21221460D02*
X16503575Y-21192889D01*
X16503575Y-21192889D02*
X16513099Y-21173841D01*
X16513099Y-21173841D02*
X16522623Y-21145270D01*
X16522623Y-21145270D02*
X16532146Y-21097651D01*
X16532146Y-21097651D02*
X16532146Y-21059556D01*
X16532146Y-21059556D02*
X16522623Y-21011937D01*
X16522623Y-21011937D02*
X16513099Y-20983365D01*
X16513099Y-20983365D02*
X16503575Y-20964318D01*
X16503575Y-20964318D02*
X16484527Y-20935746D01*
X16484527Y-20935746D02*
X16475004Y-20926222D01*
X16836908Y-21230984D02*
X16827385Y-21221460D01*
X16827385Y-21221460D02*
X16808337Y-21192889D01*
X16808337Y-21192889D02*
X16798813Y-21173841D01*
X16798813Y-21173841D02*
X16789289Y-21145270D01*
X16789289Y-21145270D02*
X16779766Y-21097651D01*
X16779766Y-21097651D02*
X16779766Y-21059556D01*
X16779766Y-21059556D02*
X16789289Y-21011937D01*
X16789289Y-21011937D02*
X16798813Y-20983365D01*
X16798813Y-20983365D02*
X16808337Y-20964318D01*
X16808337Y-20964318D02*
X16827385Y-20935746D01*
X16827385Y-20935746D02*
X16836908Y-20926222D01*
X16913099Y-21021460D02*
X16913099Y-21154794D01*
X16913099Y-21040508D02*
X16922623Y-21030984D01*
X16922623Y-21030984D02*
X16941670Y-21021460D01*
X16941670Y-21021460D02*
X16970242Y-21021460D01*
X16970242Y-21021460D02*
X16989289Y-21030984D01*
X16989289Y-21030984D02*
X16998813Y-21050032D01*
X16998813Y-21050032D02*
X16998813Y-21154794D01*
X17122623Y-21154794D02*
X17103575Y-21145270D01*
X17103575Y-21145270D02*
X17094051Y-21135746D01*
X17094051Y-21135746D02*
X17084527Y-21116698D01*
X17084527Y-21116698D02*
X17084527Y-21059556D01*
X17084527Y-21059556D02*
X17094051Y-21040508D01*
X17094051Y-21040508D02*
X17103575Y-21030984D01*
X17103575Y-21030984D02*
X17122623Y-21021460D01*
X17122623Y-21021460D02*
X17151194Y-21021460D01*
X17151194Y-21021460D02*
X17170242Y-21030984D01*
X17170242Y-21030984D02*
X17179766Y-21040508D01*
X17179766Y-21040508D02*
X17189289Y-21059556D01*
X17189289Y-21059556D02*
X17189289Y-21116698D01*
X17189289Y-21116698D02*
X17179766Y-21135746D01*
X17179766Y-21135746D02*
X17170242Y-21145270D01*
X17170242Y-21145270D02*
X17151194Y-21154794D01*
X17151194Y-21154794D02*
X17122623Y-21154794D01*
X17246432Y-21021460D02*
X17322623Y-21021460D01*
X17275004Y-20954794D02*
X17275004Y-21126222D01*
X17275004Y-21126222D02*
X17284527Y-21145270D01*
X17284527Y-21145270D02*
X17303575Y-21154794D01*
X17303575Y-21154794D02*
X17322623Y-21154794D01*
X17541670Y-21021460D02*
X17541670Y-21221460D01*
X17541670Y-21030984D02*
X17560718Y-21021460D01*
X17560718Y-21021460D02*
X17598813Y-21021460D01*
X17598813Y-21021460D02*
X17617861Y-21030984D01*
X17617861Y-21030984D02*
X17627385Y-21040508D01*
X17627385Y-21040508D02*
X17636908Y-21059556D01*
X17636908Y-21059556D02*
X17636908Y-21116698D01*
X17636908Y-21116698D02*
X17627385Y-21135746D01*
X17627385Y-21135746D02*
X17617861Y-21145270D01*
X17617861Y-21145270D02*
X17598813Y-21154794D01*
X17598813Y-21154794D02*
X17560718Y-21154794D01*
X17560718Y-21154794D02*
X17541670Y-21145270D01*
X17751194Y-21154794D02*
X17732147Y-21145270D01*
X17732147Y-21145270D02*
X17722623Y-21126222D01*
X17722623Y-21126222D02*
X17722623Y-20954794D01*
X17913099Y-21154794D02*
X17913099Y-21050032D01*
X17913099Y-21050032D02*
X17903575Y-21030984D01*
X17903575Y-21030984D02*
X17884528Y-21021460D01*
X17884528Y-21021460D02*
X17846432Y-21021460D01*
X17846432Y-21021460D02*
X17827385Y-21030984D01*
X17913099Y-21145270D02*
X17894051Y-21154794D01*
X17894051Y-21154794D02*
X17846432Y-21154794D01*
X17846432Y-21154794D02*
X17827385Y-21145270D01*
X17827385Y-21145270D02*
X17817861Y-21126222D01*
X17817861Y-21126222D02*
X17817861Y-21107175D01*
X17817861Y-21107175D02*
X17827385Y-21088127D01*
X17827385Y-21088127D02*
X17846432Y-21078603D01*
X17846432Y-21078603D02*
X17894051Y-21078603D01*
X17894051Y-21078603D02*
X17913099Y-21069079D01*
X17979766Y-21021460D02*
X18055956Y-21021460D01*
X18008337Y-20954794D02*
X18008337Y-21126222D01*
X18008337Y-21126222D02*
X18017861Y-21145270D01*
X18017861Y-21145270D02*
X18036908Y-21154794D01*
X18036908Y-21154794D02*
X18055956Y-21154794D01*
X18198813Y-21145270D02*
X18179766Y-21154794D01*
X18179766Y-21154794D02*
X18141670Y-21154794D01*
X18141670Y-21154794D02*
X18122623Y-21145270D01*
X18122623Y-21145270D02*
X18113099Y-21126222D01*
X18113099Y-21126222D02*
X18113099Y-21050032D01*
X18113099Y-21050032D02*
X18122623Y-21030984D01*
X18122623Y-21030984D02*
X18141670Y-21021460D01*
X18141670Y-21021460D02*
X18179766Y-21021460D01*
X18179766Y-21021460D02*
X18198813Y-21030984D01*
X18198813Y-21030984D02*
X18208337Y-21050032D01*
X18208337Y-21050032D02*
X18208337Y-21069079D01*
X18208337Y-21069079D02*
X18113099Y-21088127D01*
X18379766Y-21154794D02*
X18379766Y-20954794D01*
X18379766Y-21145270D02*
X18360718Y-21154794D01*
X18360718Y-21154794D02*
X18322623Y-21154794D01*
X18322623Y-21154794D02*
X18303575Y-21145270D01*
X18303575Y-21145270D02*
X18294051Y-21135746D01*
X18294051Y-21135746D02*
X18284528Y-21116698D01*
X18284528Y-21116698D02*
X18284528Y-21059556D01*
X18284528Y-21059556D02*
X18294051Y-21040508D01*
X18294051Y-21040508D02*
X18303575Y-21030984D01*
X18303575Y-21030984D02*
X18322623Y-21021460D01*
X18322623Y-21021460D02*
X18360718Y-21021460D01*
X18360718Y-21021460D02*
X18379766Y-21030984D01*
X18455956Y-21230984D02*
X18465480Y-21221460D01*
X18465480Y-21221460D02*
X18484528Y-21192889D01*
X18484528Y-21192889D02*
X18494051Y-21173841D01*
X18494051Y-21173841D02*
X18503575Y-21145270D01*
X18503575Y-21145270D02*
X18513099Y-21097651D01*
X18513099Y-21097651D02*
X18513099Y-21059556D01*
X18513099Y-21059556D02*
X18503575Y-21011937D01*
X18503575Y-21011937D02*
X18494051Y-20983365D01*
X18494051Y-20983365D02*
X18484528Y-20964318D01*
X18484528Y-20964318D02*
X18465480Y-20935746D01*
X18465480Y-20935746D02*
X18455956Y-20926222D01*
X11409464Y-21253490D02*
X11409464Y-21453490D01*
X11309464Y-21353490D02*
X11509464Y-21353490D01*
X11751194Y-21244974D02*
X11875003Y-21244974D01*
X11875003Y-21244974D02*
X11808336Y-21321164D01*
X11808336Y-21321164D02*
X11836908Y-21321164D01*
X11836908Y-21321164D02*
X11855955Y-21330688D01*
X11855955Y-21330688D02*
X11865479Y-21340212D01*
X11865479Y-21340212D02*
X11875003Y-21359259D01*
X11875003Y-21359259D02*
X11875003Y-21406878D01*
X11875003Y-21406878D02*
X11865479Y-21425926D01*
X11865479Y-21425926D02*
X11855955Y-21435450D01*
X11855955Y-21435450D02*
X11836908Y-21444974D01*
X11836908Y-21444974D02*
X11779765Y-21444974D01*
X11779765Y-21444974D02*
X11760717Y-21435450D01*
X11760717Y-21435450D02*
X11751194Y-21425926D01*
X11960717Y-21425926D02*
X11970241Y-21435450D01*
X11970241Y-21435450D02*
X11960717Y-21444974D01*
X11960717Y-21444974D02*
X11951194Y-21435450D01*
X11951194Y-21435450D02*
X11960717Y-21425926D01*
X11960717Y-21425926D02*
X11960717Y-21444974D01*
X12094051Y-21244974D02*
X12113098Y-21244974D01*
X12113098Y-21244974D02*
X12132146Y-21254498D01*
X12132146Y-21254498D02*
X12141670Y-21264021D01*
X12141670Y-21264021D02*
X12151194Y-21283069D01*
X12151194Y-21283069D02*
X12160717Y-21321164D01*
X12160717Y-21321164D02*
X12160717Y-21368783D01*
X12160717Y-21368783D02*
X12151194Y-21406878D01*
X12151194Y-21406878D02*
X12141670Y-21425926D01*
X12141670Y-21425926D02*
X12132146Y-21435450D01*
X12132146Y-21435450D02*
X12113098Y-21444974D01*
X12113098Y-21444974D02*
X12094051Y-21444974D01*
X12094051Y-21444974D02*
X12075003Y-21435450D01*
X12075003Y-21435450D02*
X12065479Y-21425926D01*
X12065479Y-21425926D02*
X12055955Y-21406878D01*
X12055955Y-21406878D02*
X12046432Y-21368783D01*
X12046432Y-21368783D02*
X12046432Y-21321164D01*
X12046432Y-21321164D02*
X12055955Y-21283069D01*
X12055955Y-21283069D02*
X12065479Y-21264021D01*
X12065479Y-21264021D02*
X12075003Y-21254498D01*
X12075003Y-21254498D02*
X12094051Y-21244974D01*
X12284527Y-21244974D02*
X12303575Y-21244974D01*
X12303575Y-21244974D02*
X12322622Y-21254498D01*
X12322622Y-21254498D02*
X12332146Y-21264021D01*
X12332146Y-21264021D02*
X12341670Y-21283069D01*
X12341670Y-21283069D02*
X12351194Y-21321164D01*
X12351194Y-21321164D02*
X12351194Y-21368783D01*
X12351194Y-21368783D02*
X12341670Y-21406878D01*
X12341670Y-21406878D02*
X12332146Y-21425926D01*
X12332146Y-21425926D02*
X12322622Y-21435450D01*
X12322622Y-21435450D02*
X12303575Y-21444974D01*
X12303575Y-21444974D02*
X12284527Y-21444974D01*
X12284527Y-21444974D02*
X12265479Y-21435450D01*
X12265479Y-21435450D02*
X12255955Y-21425926D01*
X12255955Y-21425926D02*
X12246432Y-21406878D01*
X12246432Y-21406878D02*
X12236908Y-21368783D01*
X12236908Y-21368783D02*
X12236908Y-21321164D01*
X12236908Y-21321164D02*
X12246432Y-21283069D01*
X12246432Y-21283069D02*
X12255955Y-21264021D01*
X12255955Y-21264021D02*
X12265479Y-21254498D01*
X12265479Y-21254498D02*
X12284527Y-21244974D01*
X12475003Y-21244974D02*
X12494051Y-21244974D01*
X12494051Y-21244974D02*
X12513098Y-21254498D01*
X12513098Y-21254498D02*
X12522622Y-21264021D01*
X12522622Y-21264021D02*
X12532146Y-21283069D01*
X12532146Y-21283069D02*
X12541670Y-21321164D01*
X12541670Y-21321164D02*
X12541670Y-21368783D01*
X12541670Y-21368783D02*
X12532146Y-21406878D01*
X12532146Y-21406878D02*
X12522622Y-21425926D01*
X12522622Y-21425926D02*
X12513098Y-21435450D01*
X12513098Y-21435450D02*
X12494051Y-21444974D01*
X12494051Y-21444974D02*
X12475003Y-21444974D01*
X12475003Y-21444974D02*
X12455955Y-21435450D01*
X12455955Y-21435450D02*
X12446432Y-21425926D01*
X12446432Y-21425926D02*
X12436908Y-21406878D01*
X12436908Y-21406878D02*
X12427384Y-21368783D01*
X12427384Y-21368783D02*
X12427384Y-21321164D01*
X12427384Y-21321164D02*
X12436908Y-21283069D01*
X12436908Y-21283069D02*
X12446432Y-21264021D01*
X12446432Y-21264021D02*
X12455955Y-21254498D01*
X12455955Y-21254498D02*
X12475003Y-21244974D01*
X12627384Y-21444974D02*
X12627384Y-21311640D01*
X12627384Y-21330688D02*
X12636908Y-21321164D01*
X12636908Y-21321164D02*
X12655955Y-21311640D01*
X12655955Y-21311640D02*
X12684527Y-21311640D01*
X12684527Y-21311640D02*
X12703575Y-21321164D01*
X12703575Y-21321164D02*
X12713098Y-21340212D01*
X12713098Y-21340212D02*
X12713098Y-21444974D01*
X12713098Y-21340212D02*
X12722622Y-21321164D01*
X12722622Y-21321164D02*
X12741670Y-21311640D01*
X12741670Y-21311640D02*
X12770241Y-21311640D01*
X12770241Y-21311640D02*
X12789289Y-21321164D01*
X12789289Y-21321164D02*
X12798813Y-21340212D01*
X12798813Y-21340212D02*
X12798813Y-21444974D01*
X12894051Y-21444974D02*
X12894051Y-21311640D01*
X12894051Y-21330688D02*
X12903575Y-21321164D01*
X12903575Y-21321164D02*
X12922622Y-21311640D01*
X12922622Y-21311640D02*
X12951194Y-21311640D01*
X12951194Y-21311640D02*
X12970241Y-21321164D01*
X12970241Y-21321164D02*
X12979765Y-21340212D01*
X12979765Y-21340212D02*
X12979765Y-21444974D01*
X12979765Y-21340212D02*
X12989289Y-21321164D01*
X12989289Y-21321164D02*
X13008336Y-21311640D01*
X13008336Y-21311640D02*
X13036908Y-21311640D01*
X13036908Y-21311640D02*
X13055956Y-21321164D01*
X13055956Y-21321164D02*
X13065479Y-21340212D01*
X13065479Y-21340212D02*
X13065479Y-21444974D01*
X13455956Y-21235450D02*
X13284527Y-21492593D01*
X13713098Y-21244974D02*
X13732146Y-21244974D01*
X13732146Y-21244974D02*
X13751194Y-21254498D01*
X13751194Y-21254498D02*
X13760718Y-21264021D01*
X13760718Y-21264021D02*
X13770241Y-21283069D01*
X13770241Y-21283069D02*
X13779765Y-21321164D01*
X13779765Y-21321164D02*
X13779765Y-21368783D01*
X13779765Y-21368783D02*
X13770241Y-21406878D01*
X13770241Y-21406878D02*
X13760718Y-21425926D01*
X13760718Y-21425926D02*
X13751194Y-21435450D01*
X13751194Y-21435450D02*
X13732146Y-21444974D01*
X13732146Y-21444974D02*
X13713098Y-21444974D01*
X13713098Y-21444974D02*
X13694051Y-21435450D01*
X13694051Y-21435450D02*
X13684527Y-21425926D01*
X13684527Y-21425926D02*
X13675003Y-21406878D01*
X13675003Y-21406878D02*
X13665479Y-21368783D01*
X13665479Y-21368783D02*
X13665479Y-21321164D01*
X13665479Y-21321164D02*
X13675003Y-21283069D01*
X13675003Y-21283069D02*
X13684527Y-21264021D01*
X13684527Y-21264021D02*
X13694051Y-21254498D01*
X13694051Y-21254498D02*
X13713098Y-21244974D01*
X13865479Y-21425926D02*
X13875003Y-21435450D01*
X13875003Y-21435450D02*
X13865479Y-21444974D01*
X13865479Y-21444974D02*
X13855956Y-21435450D01*
X13855956Y-21435450D02*
X13865479Y-21425926D01*
X13865479Y-21425926D02*
X13865479Y-21444974D01*
X14065479Y-21444974D02*
X13951194Y-21444974D01*
X14008337Y-21444974D02*
X14008337Y-21244974D01*
X14008337Y-21244974D02*
X13989289Y-21273545D01*
X13989289Y-21273545D02*
X13970241Y-21292593D01*
X13970241Y-21292593D02*
X13951194Y-21302117D01*
X14255956Y-21444974D02*
X14141670Y-21444974D01*
X14198813Y-21444974D02*
X14198813Y-21244974D01*
X14198813Y-21244974D02*
X14179765Y-21273545D01*
X14179765Y-21273545D02*
X14160718Y-21292593D01*
X14160718Y-21292593D02*
X14141670Y-21302117D01*
X14370241Y-21330688D02*
X14351194Y-21321164D01*
X14351194Y-21321164D02*
X14341670Y-21311640D01*
X14341670Y-21311640D02*
X14332146Y-21292593D01*
X14332146Y-21292593D02*
X14332146Y-21283069D01*
X14332146Y-21283069D02*
X14341670Y-21264021D01*
X14341670Y-21264021D02*
X14351194Y-21254498D01*
X14351194Y-21254498D02*
X14370241Y-21244974D01*
X14370241Y-21244974D02*
X14408337Y-21244974D01*
X14408337Y-21244974D02*
X14427384Y-21254498D01*
X14427384Y-21254498D02*
X14436908Y-21264021D01*
X14436908Y-21264021D02*
X14446432Y-21283069D01*
X14446432Y-21283069D02*
X14446432Y-21292593D01*
X14446432Y-21292593D02*
X14436908Y-21311640D01*
X14436908Y-21311640D02*
X14427384Y-21321164D01*
X14427384Y-21321164D02*
X14408337Y-21330688D01*
X14408337Y-21330688D02*
X14370241Y-21330688D01*
X14370241Y-21330688D02*
X14351194Y-21340212D01*
X14351194Y-21340212D02*
X14341670Y-21349736D01*
X14341670Y-21349736D02*
X14332146Y-21368783D01*
X14332146Y-21368783D02*
X14332146Y-21406878D01*
X14332146Y-21406878D02*
X14341670Y-21425926D01*
X14341670Y-21425926D02*
X14351194Y-21435450D01*
X14351194Y-21435450D02*
X14370241Y-21444974D01*
X14370241Y-21444974D02*
X14408337Y-21444974D01*
X14408337Y-21444974D02*
X14427384Y-21435450D01*
X14427384Y-21435450D02*
X14436908Y-21425926D01*
X14436908Y-21425926D02*
X14446432Y-21406878D01*
X14446432Y-21406878D02*
X14446432Y-21368783D01*
X14446432Y-21368783D02*
X14436908Y-21349736D01*
X14436908Y-21349736D02*
X14427384Y-21340212D01*
X14427384Y-21340212D02*
X14408337Y-21330688D01*
X14636908Y-21444974D02*
X14522622Y-21444974D01*
X14579765Y-21444974D02*
X14579765Y-21244974D01*
X14579765Y-21244974D02*
X14560718Y-21273545D01*
X14560718Y-21273545D02*
X14541670Y-21292593D01*
X14541670Y-21292593D02*
X14522622Y-21302117D01*
X14713099Y-21244974D02*
X14713099Y-21283069D01*
X14789289Y-21244974D02*
X14789289Y-21283069D01*
X15084527Y-21521164D02*
X15075003Y-21511640D01*
X15075003Y-21511640D02*
X15055956Y-21483069D01*
X15055956Y-21483069D02*
X15046432Y-21464021D01*
X15046432Y-21464021D02*
X15036908Y-21435450D01*
X15036908Y-21435450D02*
X15027384Y-21387831D01*
X15027384Y-21387831D02*
X15027384Y-21349736D01*
X15027384Y-21349736D02*
X15036908Y-21302117D01*
X15036908Y-21302117D02*
X15046432Y-21273545D01*
X15046432Y-21273545D02*
X15055956Y-21254498D01*
X15055956Y-21254498D02*
X15075003Y-21225926D01*
X15075003Y-21225926D02*
X15084527Y-21216402D01*
X15265480Y-21444974D02*
X15151194Y-21444974D01*
X15208337Y-21444974D02*
X15208337Y-21244974D01*
X15208337Y-21244974D02*
X15189289Y-21273545D01*
X15189289Y-21273545D02*
X15170241Y-21292593D01*
X15170241Y-21292593D02*
X15151194Y-21302117D01*
X15341670Y-21264021D02*
X15351194Y-21254498D01*
X15351194Y-21254498D02*
X15370241Y-21244974D01*
X15370241Y-21244974D02*
X15417861Y-21244974D01*
X15417861Y-21244974D02*
X15436908Y-21254498D01*
X15436908Y-21254498D02*
X15446432Y-21264021D01*
X15446432Y-21264021D02*
X15455956Y-21283069D01*
X15455956Y-21283069D02*
X15455956Y-21302117D01*
X15455956Y-21302117D02*
X15446432Y-21330688D01*
X15446432Y-21330688D02*
X15332146Y-21444974D01*
X15332146Y-21444974D02*
X15455956Y-21444974D01*
X15570241Y-21330688D02*
X15551194Y-21321164D01*
X15551194Y-21321164D02*
X15541670Y-21311640D01*
X15541670Y-21311640D02*
X15532146Y-21292593D01*
X15532146Y-21292593D02*
X15532146Y-21283069D01*
X15532146Y-21283069D02*
X15541670Y-21264021D01*
X15541670Y-21264021D02*
X15551194Y-21254498D01*
X15551194Y-21254498D02*
X15570241Y-21244974D01*
X15570241Y-21244974D02*
X15608337Y-21244974D01*
X15608337Y-21244974D02*
X15627384Y-21254498D01*
X15627384Y-21254498D02*
X15636908Y-21264021D01*
X15636908Y-21264021D02*
X15646432Y-21283069D01*
X15646432Y-21283069D02*
X15646432Y-21292593D01*
X15646432Y-21292593D02*
X15636908Y-21311640D01*
X15636908Y-21311640D02*
X15627384Y-21321164D01*
X15627384Y-21321164D02*
X15608337Y-21330688D01*
X15608337Y-21330688D02*
X15570241Y-21330688D01*
X15570241Y-21330688D02*
X15551194Y-21340212D01*
X15551194Y-21340212D02*
X15541670Y-21349736D01*
X15541670Y-21349736D02*
X15532146Y-21368783D01*
X15532146Y-21368783D02*
X15532146Y-21406878D01*
X15532146Y-21406878D02*
X15541670Y-21425926D01*
X15541670Y-21425926D02*
X15551194Y-21435450D01*
X15551194Y-21435450D02*
X15570241Y-21444974D01*
X15570241Y-21444974D02*
X15608337Y-21444974D01*
X15608337Y-21444974D02*
X15627384Y-21435450D01*
X15627384Y-21435450D02*
X15636908Y-21425926D01*
X15636908Y-21425926D02*
X15646432Y-21406878D01*
X15646432Y-21406878D02*
X15646432Y-21368783D01*
X15646432Y-21368783D02*
X15636908Y-21349736D01*
X15636908Y-21349736D02*
X15627384Y-21340212D01*
X15627384Y-21340212D02*
X15608337Y-21330688D01*
X15884527Y-21444974D02*
X15884527Y-21244974D01*
X15970242Y-21444974D02*
X15970242Y-21340212D01*
X15970242Y-21340212D02*
X15960718Y-21321164D01*
X15960718Y-21321164D02*
X15941670Y-21311640D01*
X15941670Y-21311640D02*
X15913099Y-21311640D01*
X15913099Y-21311640D02*
X15894051Y-21321164D01*
X15894051Y-21321164D02*
X15884527Y-21330688D01*
X16094051Y-21444974D02*
X16075003Y-21435450D01*
X16075003Y-21435450D02*
X16065480Y-21425926D01*
X16065480Y-21425926D02*
X16055956Y-21406878D01*
X16055956Y-21406878D02*
X16055956Y-21349736D01*
X16055956Y-21349736D02*
X16065480Y-21330688D01*
X16065480Y-21330688D02*
X16075003Y-21321164D01*
X16075003Y-21321164D02*
X16094051Y-21311640D01*
X16094051Y-21311640D02*
X16122623Y-21311640D01*
X16122623Y-21311640D02*
X16141670Y-21321164D01*
X16141670Y-21321164D02*
X16151194Y-21330688D01*
X16151194Y-21330688D02*
X16160718Y-21349736D01*
X16160718Y-21349736D02*
X16160718Y-21406878D01*
X16160718Y-21406878D02*
X16151194Y-21425926D01*
X16151194Y-21425926D02*
X16141670Y-21435450D01*
X16141670Y-21435450D02*
X16122623Y-21444974D01*
X16122623Y-21444974D02*
X16094051Y-21444974D01*
X16275003Y-21444974D02*
X16255956Y-21435450D01*
X16255956Y-21435450D02*
X16246432Y-21416402D01*
X16246432Y-21416402D02*
X16246432Y-21244974D01*
X16427384Y-21435450D02*
X16408337Y-21444974D01*
X16408337Y-21444974D02*
X16370242Y-21444974D01*
X16370242Y-21444974D02*
X16351194Y-21435450D01*
X16351194Y-21435450D02*
X16341670Y-21416402D01*
X16341670Y-21416402D02*
X16341670Y-21340212D01*
X16341670Y-21340212D02*
X16351194Y-21321164D01*
X16351194Y-21321164D02*
X16370242Y-21311640D01*
X16370242Y-21311640D02*
X16408337Y-21311640D01*
X16408337Y-21311640D02*
X16427384Y-21321164D01*
X16427384Y-21321164D02*
X16436908Y-21340212D01*
X16436908Y-21340212D02*
X16436908Y-21359259D01*
X16436908Y-21359259D02*
X16341670Y-21378307D01*
X16513099Y-21435450D02*
X16532146Y-21444974D01*
X16532146Y-21444974D02*
X16570242Y-21444974D01*
X16570242Y-21444974D02*
X16589289Y-21435450D01*
X16589289Y-21435450D02*
X16598813Y-21416402D01*
X16598813Y-21416402D02*
X16598813Y-21406878D01*
X16598813Y-21406878D02*
X16589289Y-21387831D01*
X16589289Y-21387831D02*
X16570242Y-21378307D01*
X16570242Y-21378307D02*
X16541670Y-21378307D01*
X16541670Y-21378307D02*
X16522623Y-21368783D01*
X16522623Y-21368783D02*
X16513099Y-21349736D01*
X16513099Y-21349736D02*
X16513099Y-21340212D01*
X16513099Y-21340212D02*
X16522623Y-21321164D01*
X16522623Y-21321164D02*
X16541670Y-21311640D01*
X16541670Y-21311640D02*
X16570242Y-21311640D01*
X16570242Y-21311640D02*
X16589289Y-21321164D01*
X16665480Y-21521164D02*
X16675004Y-21511640D01*
X16675004Y-21511640D02*
X16694051Y-21483069D01*
X16694051Y-21483069D02*
X16703575Y-21464021D01*
X16703575Y-21464021D02*
X16713099Y-21435450D01*
X16713099Y-21435450D02*
X16722623Y-21387831D01*
X16722623Y-21387831D02*
X16722623Y-21349736D01*
X16722623Y-21349736D02*
X16713099Y-21302117D01*
X16713099Y-21302117D02*
X16703575Y-21273545D01*
X16703575Y-21273545D02*
X16694051Y-21254498D01*
X16694051Y-21254498D02*
X16675004Y-21225926D01*
X16675004Y-21225926D02*
X16665480Y-21216402D01*
X17027385Y-21521164D02*
X17017861Y-21511640D01*
X17017861Y-21511640D02*
X16998813Y-21483069D01*
X16998813Y-21483069D02*
X16989289Y-21464021D01*
X16989289Y-21464021D02*
X16979766Y-21435450D01*
X16979766Y-21435450D02*
X16970242Y-21387831D01*
X16970242Y-21387831D02*
X16970242Y-21349736D01*
X16970242Y-21349736D02*
X16979766Y-21302117D01*
X16979766Y-21302117D02*
X16989289Y-21273545D01*
X16989289Y-21273545D02*
X16998813Y-21254498D01*
X16998813Y-21254498D02*
X17017861Y-21225926D01*
X17017861Y-21225926D02*
X17027385Y-21216402D01*
X17103575Y-21311640D02*
X17103575Y-21444974D01*
X17103575Y-21330688D02*
X17113099Y-21321164D01*
X17113099Y-21321164D02*
X17132146Y-21311640D01*
X17132146Y-21311640D02*
X17160718Y-21311640D01*
X17160718Y-21311640D02*
X17179766Y-21321164D01*
X17179766Y-21321164D02*
X17189289Y-21340212D01*
X17189289Y-21340212D02*
X17189289Y-21444974D01*
X17313099Y-21444974D02*
X17294051Y-21435450D01*
X17294051Y-21435450D02*
X17284527Y-21425926D01*
X17284527Y-21425926D02*
X17275004Y-21406878D01*
X17275004Y-21406878D02*
X17275004Y-21349736D01*
X17275004Y-21349736D02*
X17284527Y-21330688D01*
X17284527Y-21330688D02*
X17294051Y-21321164D01*
X17294051Y-21321164D02*
X17313099Y-21311640D01*
X17313099Y-21311640D02*
X17341670Y-21311640D01*
X17341670Y-21311640D02*
X17360718Y-21321164D01*
X17360718Y-21321164D02*
X17370242Y-21330688D01*
X17370242Y-21330688D02*
X17379766Y-21349736D01*
X17379766Y-21349736D02*
X17379766Y-21406878D01*
X17379766Y-21406878D02*
X17370242Y-21425926D01*
X17370242Y-21425926D02*
X17360718Y-21435450D01*
X17360718Y-21435450D02*
X17341670Y-21444974D01*
X17341670Y-21444974D02*
X17313099Y-21444974D01*
X17436908Y-21311640D02*
X17513099Y-21311640D01*
X17465480Y-21244974D02*
X17465480Y-21416402D01*
X17465480Y-21416402D02*
X17475004Y-21435450D01*
X17475004Y-21435450D02*
X17494051Y-21444974D01*
X17494051Y-21444974D02*
X17513099Y-21444974D01*
X17732147Y-21311640D02*
X17732147Y-21511640D01*
X17732147Y-21321164D02*
X17751194Y-21311640D01*
X17751194Y-21311640D02*
X17789289Y-21311640D01*
X17789289Y-21311640D02*
X17808337Y-21321164D01*
X17808337Y-21321164D02*
X17817861Y-21330688D01*
X17817861Y-21330688D02*
X17827385Y-21349736D01*
X17827385Y-21349736D02*
X17827385Y-21406878D01*
X17827385Y-21406878D02*
X17817861Y-21425926D01*
X17817861Y-21425926D02*
X17808337Y-21435450D01*
X17808337Y-21435450D02*
X17789289Y-21444974D01*
X17789289Y-21444974D02*
X17751194Y-21444974D01*
X17751194Y-21444974D02*
X17732147Y-21435450D01*
X17941670Y-21444974D02*
X17922623Y-21435450D01*
X17922623Y-21435450D02*
X17913099Y-21416402D01*
X17913099Y-21416402D02*
X17913099Y-21244974D01*
X18103575Y-21444974D02*
X18103575Y-21340212D01*
X18103575Y-21340212D02*
X18094051Y-21321164D01*
X18094051Y-21321164D02*
X18075004Y-21311640D01*
X18075004Y-21311640D02*
X18036908Y-21311640D01*
X18036908Y-21311640D02*
X18017861Y-21321164D01*
X18103575Y-21435450D02*
X18084528Y-21444974D01*
X18084528Y-21444974D02*
X18036908Y-21444974D01*
X18036908Y-21444974D02*
X18017861Y-21435450D01*
X18017861Y-21435450D02*
X18008337Y-21416402D01*
X18008337Y-21416402D02*
X18008337Y-21397355D01*
X18008337Y-21397355D02*
X18017861Y-21378307D01*
X18017861Y-21378307D02*
X18036908Y-21368783D01*
X18036908Y-21368783D02*
X18084528Y-21368783D01*
X18084528Y-21368783D02*
X18103575Y-21359259D01*
X18170242Y-21311640D02*
X18246432Y-21311640D01*
X18198813Y-21244974D02*
X18198813Y-21416402D01*
X18198813Y-21416402D02*
X18208337Y-21435450D01*
X18208337Y-21435450D02*
X18227385Y-21444974D01*
X18227385Y-21444974D02*
X18246432Y-21444974D01*
X18389289Y-21435450D02*
X18370242Y-21444974D01*
X18370242Y-21444974D02*
X18332147Y-21444974D01*
X18332147Y-21444974D02*
X18313099Y-21435450D01*
X18313099Y-21435450D02*
X18303575Y-21416402D01*
X18303575Y-21416402D02*
X18303575Y-21340212D01*
X18303575Y-21340212D02*
X18313099Y-21321164D01*
X18313099Y-21321164D02*
X18332147Y-21311640D01*
X18332147Y-21311640D02*
X18370242Y-21311640D01*
X18370242Y-21311640D02*
X18389289Y-21321164D01*
X18389289Y-21321164D02*
X18398813Y-21340212D01*
X18398813Y-21340212D02*
X18398813Y-21359259D01*
X18398813Y-21359259D02*
X18303575Y-21378307D01*
X18570242Y-21444974D02*
X18570242Y-21244974D01*
X18570242Y-21435450D02*
X18551194Y-21444974D01*
X18551194Y-21444974D02*
X18513099Y-21444974D01*
X18513099Y-21444974D02*
X18494051Y-21435450D01*
X18494051Y-21435450D02*
X18484528Y-21425926D01*
X18484528Y-21425926D02*
X18475004Y-21406878D01*
X18475004Y-21406878D02*
X18475004Y-21349736D01*
X18475004Y-21349736D02*
X18484528Y-21330688D01*
X18484528Y-21330688D02*
X18494051Y-21321164D01*
X18494051Y-21321164D02*
X18513099Y-21311640D01*
X18513099Y-21311640D02*
X18551194Y-21311640D01*
X18551194Y-21311640D02*
X18570242Y-21321164D01*
X18646432Y-21521164D02*
X18655956Y-21511640D01*
X18655956Y-21511640D02*
X18675004Y-21483069D01*
X18675004Y-21483069D02*
X18684528Y-21464021D01*
X18684528Y-21464021D02*
X18694051Y-21435450D01*
X18694051Y-21435450D02*
X18703575Y-21387831D01*
X18703575Y-21387831D02*
X18703575Y-21349736D01*
X18703575Y-21349736D02*
X18694051Y-21302117D01*
X18694051Y-21302117D02*
X18684528Y-21273545D01*
X18684528Y-21273545D02*
X18675004Y-21254498D01*
X18675004Y-21254498D02*
X18655956Y-21225926D01*
X18655956Y-21225926D02*
X18646432Y-21216402D01*
X11480176Y-21744201D02*
X11480176Y-21602779D01*
X11338753Y-21602779D01*
X11338753Y-21744201D01*
X11480176Y-21744201D01*
X11751194Y-21564974D02*
X11875003Y-21564974D01*
X11875003Y-21564974D02*
X11808336Y-21641164D01*
X11808336Y-21641164D02*
X11836908Y-21641164D01*
X11836908Y-21641164D02*
X11855955Y-21650688D01*
X11855955Y-21650688D02*
X11865479Y-21660212D01*
X11865479Y-21660212D02*
X11875003Y-21679259D01*
X11875003Y-21679259D02*
X11875003Y-21726878D01*
X11875003Y-21726878D02*
X11865479Y-21745926D01*
X11865479Y-21745926D02*
X11855955Y-21755450D01*
X11855955Y-21755450D02*
X11836908Y-21764974D01*
X11836908Y-21764974D02*
X11779765Y-21764974D01*
X11779765Y-21764974D02*
X11760717Y-21755450D01*
X11760717Y-21755450D02*
X11751194Y-21745926D01*
X11960717Y-21745926D02*
X11970241Y-21755450D01*
X11970241Y-21755450D02*
X11960717Y-21764974D01*
X11960717Y-21764974D02*
X11951194Y-21755450D01*
X11951194Y-21755450D02*
X11960717Y-21745926D01*
X11960717Y-21745926D02*
X11960717Y-21764974D01*
X12141670Y-21631640D02*
X12141670Y-21764974D01*
X12094051Y-21555450D02*
X12046432Y-21698307D01*
X12046432Y-21698307D02*
X12170241Y-21698307D01*
X12236908Y-21584021D02*
X12246432Y-21574498D01*
X12246432Y-21574498D02*
X12265479Y-21564974D01*
X12265479Y-21564974D02*
X12313098Y-21564974D01*
X12313098Y-21564974D02*
X12332146Y-21574498D01*
X12332146Y-21574498D02*
X12341670Y-21584021D01*
X12341670Y-21584021D02*
X12351194Y-21603069D01*
X12351194Y-21603069D02*
X12351194Y-21622117D01*
X12351194Y-21622117D02*
X12341670Y-21650688D01*
X12341670Y-21650688D02*
X12227384Y-21764974D01*
X12227384Y-21764974D02*
X12351194Y-21764974D01*
X12446432Y-21764974D02*
X12484527Y-21764974D01*
X12484527Y-21764974D02*
X12503575Y-21755450D01*
X12503575Y-21755450D02*
X12513098Y-21745926D01*
X12513098Y-21745926D02*
X12532146Y-21717355D01*
X12532146Y-21717355D02*
X12541670Y-21679259D01*
X12541670Y-21679259D02*
X12541670Y-21603069D01*
X12541670Y-21603069D02*
X12532146Y-21584021D01*
X12532146Y-21584021D02*
X12522622Y-21574498D01*
X12522622Y-21574498D02*
X12503575Y-21564974D01*
X12503575Y-21564974D02*
X12465479Y-21564974D01*
X12465479Y-21564974D02*
X12446432Y-21574498D01*
X12446432Y-21574498D02*
X12436908Y-21584021D01*
X12436908Y-21584021D02*
X12427384Y-21603069D01*
X12427384Y-21603069D02*
X12427384Y-21650688D01*
X12427384Y-21650688D02*
X12436908Y-21669736D01*
X12436908Y-21669736D02*
X12446432Y-21679259D01*
X12446432Y-21679259D02*
X12465479Y-21688783D01*
X12465479Y-21688783D02*
X12503575Y-21688783D01*
X12503575Y-21688783D02*
X12522622Y-21679259D01*
X12522622Y-21679259D02*
X12532146Y-21669736D01*
X12532146Y-21669736D02*
X12541670Y-21650688D01*
X12627384Y-21764974D02*
X12627384Y-21631640D01*
X12627384Y-21650688D02*
X12636908Y-21641164D01*
X12636908Y-21641164D02*
X12655955Y-21631640D01*
X12655955Y-21631640D02*
X12684527Y-21631640D01*
X12684527Y-21631640D02*
X12703575Y-21641164D01*
X12703575Y-21641164D02*
X12713098Y-21660212D01*
X12713098Y-21660212D02*
X12713098Y-21764974D01*
X12713098Y-21660212D02*
X12722622Y-21641164D01*
X12722622Y-21641164D02*
X12741670Y-21631640D01*
X12741670Y-21631640D02*
X12770241Y-21631640D01*
X12770241Y-21631640D02*
X12789289Y-21641164D01*
X12789289Y-21641164D02*
X12798813Y-21660212D01*
X12798813Y-21660212D02*
X12798813Y-21764974D01*
X12894051Y-21764974D02*
X12894051Y-21631640D01*
X12894051Y-21650688D02*
X12903575Y-21641164D01*
X12903575Y-21641164D02*
X12922622Y-21631640D01*
X12922622Y-21631640D02*
X12951194Y-21631640D01*
X12951194Y-21631640D02*
X12970241Y-21641164D01*
X12970241Y-21641164D02*
X12979765Y-21660212D01*
X12979765Y-21660212D02*
X12979765Y-21764974D01*
X12979765Y-21660212D02*
X12989289Y-21641164D01*
X12989289Y-21641164D02*
X13008336Y-21631640D01*
X13008336Y-21631640D02*
X13036908Y-21631640D01*
X13036908Y-21631640D02*
X13055956Y-21641164D01*
X13055956Y-21641164D02*
X13065479Y-21660212D01*
X13065479Y-21660212D02*
X13065479Y-21764974D01*
X13455956Y-21555450D02*
X13284527Y-21812593D01*
X13713098Y-21564974D02*
X13732146Y-21564974D01*
X13732146Y-21564974D02*
X13751194Y-21574498D01*
X13751194Y-21574498D02*
X13760718Y-21584021D01*
X13760718Y-21584021D02*
X13770241Y-21603069D01*
X13770241Y-21603069D02*
X13779765Y-21641164D01*
X13779765Y-21641164D02*
X13779765Y-21688783D01*
X13779765Y-21688783D02*
X13770241Y-21726878D01*
X13770241Y-21726878D02*
X13760718Y-21745926D01*
X13760718Y-21745926D02*
X13751194Y-21755450D01*
X13751194Y-21755450D02*
X13732146Y-21764974D01*
X13732146Y-21764974D02*
X13713098Y-21764974D01*
X13713098Y-21764974D02*
X13694051Y-21755450D01*
X13694051Y-21755450D02*
X13684527Y-21745926D01*
X13684527Y-21745926D02*
X13675003Y-21726878D01*
X13675003Y-21726878D02*
X13665479Y-21688783D01*
X13665479Y-21688783D02*
X13665479Y-21641164D01*
X13665479Y-21641164D02*
X13675003Y-21603069D01*
X13675003Y-21603069D02*
X13684527Y-21584021D01*
X13684527Y-21584021D02*
X13694051Y-21574498D01*
X13694051Y-21574498D02*
X13713098Y-21564974D01*
X13865479Y-21745926D02*
X13875003Y-21755450D01*
X13875003Y-21755450D02*
X13865479Y-21764974D01*
X13865479Y-21764974D02*
X13855956Y-21755450D01*
X13855956Y-21755450D02*
X13865479Y-21745926D01*
X13865479Y-21745926D02*
X13865479Y-21764974D01*
X14065479Y-21764974D02*
X13951194Y-21764974D01*
X14008337Y-21764974D02*
X14008337Y-21564974D01*
X14008337Y-21564974D02*
X13989289Y-21593545D01*
X13989289Y-21593545D02*
X13970241Y-21612593D01*
X13970241Y-21612593D02*
X13951194Y-21622117D01*
X14132146Y-21564974D02*
X14255956Y-21564974D01*
X14255956Y-21564974D02*
X14189289Y-21641164D01*
X14189289Y-21641164D02*
X14217860Y-21641164D01*
X14217860Y-21641164D02*
X14236908Y-21650688D01*
X14236908Y-21650688D02*
X14246432Y-21660212D01*
X14246432Y-21660212D02*
X14255956Y-21679259D01*
X14255956Y-21679259D02*
X14255956Y-21726878D01*
X14255956Y-21726878D02*
X14246432Y-21745926D01*
X14246432Y-21745926D02*
X14236908Y-21755450D01*
X14236908Y-21755450D02*
X14217860Y-21764974D01*
X14217860Y-21764974D02*
X14160718Y-21764974D01*
X14160718Y-21764974D02*
X14141670Y-21755450D01*
X14141670Y-21755450D02*
X14132146Y-21745926D01*
X14436908Y-21564974D02*
X14341670Y-21564974D01*
X14341670Y-21564974D02*
X14332146Y-21660212D01*
X14332146Y-21660212D02*
X14341670Y-21650688D01*
X14341670Y-21650688D02*
X14360718Y-21641164D01*
X14360718Y-21641164D02*
X14408337Y-21641164D01*
X14408337Y-21641164D02*
X14427384Y-21650688D01*
X14427384Y-21650688D02*
X14436908Y-21660212D01*
X14436908Y-21660212D02*
X14446432Y-21679259D01*
X14446432Y-21679259D02*
X14446432Y-21726878D01*
X14446432Y-21726878D02*
X14436908Y-21745926D01*
X14436908Y-21745926D02*
X14427384Y-21755450D01*
X14427384Y-21755450D02*
X14408337Y-21764974D01*
X14408337Y-21764974D02*
X14360718Y-21764974D01*
X14360718Y-21764974D02*
X14341670Y-21755450D01*
X14341670Y-21755450D02*
X14332146Y-21745926D01*
X14570241Y-21564974D02*
X14589289Y-21564974D01*
X14589289Y-21564974D02*
X14608337Y-21574498D01*
X14608337Y-21574498D02*
X14617860Y-21584021D01*
X14617860Y-21584021D02*
X14627384Y-21603069D01*
X14627384Y-21603069D02*
X14636908Y-21641164D01*
X14636908Y-21641164D02*
X14636908Y-21688783D01*
X14636908Y-21688783D02*
X14627384Y-21726878D01*
X14627384Y-21726878D02*
X14617860Y-21745926D01*
X14617860Y-21745926D02*
X14608337Y-21755450D01*
X14608337Y-21755450D02*
X14589289Y-21764974D01*
X14589289Y-21764974D02*
X14570241Y-21764974D01*
X14570241Y-21764974D02*
X14551194Y-21755450D01*
X14551194Y-21755450D02*
X14541670Y-21745926D01*
X14541670Y-21745926D02*
X14532146Y-21726878D01*
X14532146Y-21726878D02*
X14522622Y-21688783D01*
X14522622Y-21688783D02*
X14522622Y-21641164D01*
X14522622Y-21641164D02*
X14532146Y-21603069D01*
X14532146Y-21603069D02*
X14541670Y-21584021D01*
X14541670Y-21584021D02*
X14551194Y-21574498D01*
X14551194Y-21574498D02*
X14570241Y-21564974D01*
X14713099Y-21564974D02*
X14713099Y-21603069D01*
X14789289Y-21564974D02*
X14789289Y-21603069D01*
X15084527Y-21841164D02*
X15075003Y-21831640D01*
X15075003Y-21831640D02*
X15055956Y-21803069D01*
X15055956Y-21803069D02*
X15046432Y-21784021D01*
X15046432Y-21784021D02*
X15036908Y-21755450D01*
X15036908Y-21755450D02*
X15027384Y-21707831D01*
X15027384Y-21707831D02*
X15027384Y-21669736D01*
X15027384Y-21669736D02*
X15036908Y-21622117D01*
X15036908Y-21622117D02*
X15046432Y-21593545D01*
X15046432Y-21593545D02*
X15055956Y-21574498D01*
X15055956Y-21574498D02*
X15075003Y-21545926D01*
X15075003Y-21545926D02*
X15084527Y-21536402D01*
X15141670Y-21564974D02*
X15265480Y-21564974D01*
X15265480Y-21564974D02*
X15198813Y-21641164D01*
X15198813Y-21641164D02*
X15227384Y-21641164D01*
X15227384Y-21641164D02*
X15246432Y-21650688D01*
X15246432Y-21650688D02*
X15255956Y-21660212D01*
X15255956Y-21660212D02*
X15265480Y-21679259D01*
X15265480Y-21679259D02*
X15265480Y-21726878D01*
X15265480Y-21726878D02*
X15255956Y-21745926D01*
X15255956Y-21745926D02*
X15246432Y-21755450D01*
X15246432Y-21755450D02*
X15227384Y-21764974D01*
X15227384Y-21764974D02*
X15170241Y-21764974D01*
X15170241Y-21764974D02*
X15151194Y-21755450D01*
X15151194Y-21755450D02*
X15141670Y-21745926D01*
X15341670Y-21584021D02*
X15351194Y-21574498D01*
X15351194Y-21574498D02*
X15370241Y-21564974D01*
X15370241Y-21564974D02*
X15417861Y-21564974D01*
X15417861Y-21564974D02*
X15436908Y-21574498D01*
X15436908Y-21574498D02*
X15446432Y-21584021D01*
X15446432Y-21584021D02*
X15455956Y-21603069D01*
X15455956Y-21603069D02*
X15455956Y-21622117D01*
X15455956Y-21622117D02*
X15446432Y-21650688D01*
X15446432Y-21650688D02*
X15332146Y-21764974D01*
X15332146Y-21764974D02*
X15455956Y-21764974D01*
X15694051Y-21764974D02*
X15694051Y-21564974D01*
X15779765Y-21764974D02*
X15779765Y-21660212D01*
X15779765Y-21660212D02*
X15770242Y-21641164D01*
X15770242Y-21641164D02*
X15751194Y-21631640D01*
X15751194Y-21631640D02*
X15722622Y-21631640D01*
X15722622Y-21631640D02*
X15703575Y-21641164D01*
X15703575Y-21641164D02*
X15694051Y-21650688D01*
X15903575Y-21764974D02*
X15884527Y-21755450D01*
X15884527Y-21755450D02*
X15875003Y-21745926D01*
X15875003Y-21745926D02*
X15865480Y-21726878D01*
X15865480Y-21726878D02*
X15865480Y-21669736D01*
X15865480Y-21669736D02*
X15875003Y-21650688D01*
X15875003Y-21650688D02*
X15884527Y-21641164D01*
X15884527Y-21641164D02*
X15903575Y-21631640D01*
X15903575Y-21631640D02*
X15932146Y-21631640D01*
X15932146Y-21631640D02*
X15951194Y-21641164D01*
X15951194Y-21641164D02*
X15960718Y-21650688D01*
X15960718Y-21650688D02*
X15970242Y-21669736D01*
X15970242Y-21669736D02*
X15970242Y-21726878D01*
X15970242Y-21726878D02*
X15960718Y-21745926D01*
X15960718Y-21745926D02*
X15951194Y-21755450D01*
X15951194Y-21755450D02*
X15932146Y-21764974D01*
X15932146Y-21764974D02*
X15903575Y-21764974D01*
X16084527Y-21764974D02*
X16065480Y-21755450D01*
X16065480Y-21755450D02*
X16055956Y-21736402D01*
X16055956Y-21736402D02*
X16055956Y-21564974D01*
X16236908Y-21755450D02*
X16217861Y-21764974D01*
X16217861Y-21764974D02*
X16179765Y-21764974D01*
X16179765Y-21764974D02*
X16160718Y-21755450D01*
X16160718Y-21755450D02*
X16151194Y-21736402D01*
X16151194Y-21736402D02*
X16151194Y-21660212D01*
X16151194Y-21660212D02*
X16160718Y-21641164D01*
X16160718Y-21641164D02*
X16179765Y-21631640D01*
X16179765Y-21631640D02*
X16217861Y-21631640D01*
X16217861Y-21631640D02*
X16236908Y-21641164D01*
X16236908Y-21641164D02*
X16246432Y-21660212D01*
X16246432Y-21660212D02*
X16246432Y-21679259D01*
X16246432Y-21679259D02*
X16151194Y-21698307D01*
X16322623Y-21755450D02*
X16341670Y-21764974D01*
X16341670Y-21764974D02*
X16379765Y-21764974D01*
X16379765Y-21764974D02*
X16398813Y-21755450D01*
X16398813Y-21755450D02*
X16408337Y-21736402D01*
X16408337Y-21736402D02*
X16408337Y-21726878D01*
X16408337Y-21726878D02*
X16398813Y-21707831D01*
X16398813Y-21707831D02*
X16379765Y-21698307D01*
X16379765Y-21698307D02*
X16351194Y-21698307D01*
X16351194Y-21698307D02*
X16332146Y-21688783D01*
X16332146Y-21688783D02*
X16322623Y-21669736D01*
X16322623Y-21669736D02*
X16322623Y-21660212D01*
X16322623Y-21660212D02*
X16332146Y-21641164D01*
X16332146Y-21641164D02*
X16351194Y-21631640D01*
X16351194Y-21631640D02*
X16379765Y-21631640D01*
X16379765Y-21631640D02*
X16398813Y-21641164D01*
X16475004Y-21841164D02*
X16484527Y-21831640D01*
X16484527Y-21831640D02*
X16503575Y-21803069D01*
X16503575Y-21803069D02*
X16513099Y-21784021D01*
X16513099Y-21784021D02*
X16522623Y-21755450D01*
X16522623Y-21755450D02*
X16532146Y-21707831D01*
X16532146Y-21707831D02*
X16532146Y-21669736D01*
X16532146Y-21669736D02*
X16522623Y-21622117D01*
X16522623Y-21622117D02*
X16513099Y-21593545D01*
X16513099Y-21593545D02*
X16503575Y-21574498D01*
X16503575Y-21574498D02*
X16484527Y-21545926D01*
X16484527Y-21545926D02*
X16475004Y-21536402D01*
X16836908Y-21841164D02*
X16827385Y-21831640D01*
X16827385Y-21831640D02*
X16808337Y-21803069D01*
X16808337Y-21803069D02*
X16798813Y-21784021D01*
X16798813Y-21784021D02*
X16789289Y-21755450D01*
X16789289Y-21755450D02*
X16779766Y-21707831D01*
X16779766Y-21707831D02*
X16779766Y-21669736D01*
X16779766Y-21669736D02*
X16789289Y-21622117D01*
X16789289Y-21622117D02*
X16798813Y-21593545D01*
X16798813Y-21593545D02*
X16808337Y-21574498D01*
X16808337Y-21574498D02*
X16827385Y-21545926D01*
X16827385Y-21545926D02*
X16836908Y-21536402D01*
X16913099Y-21631640D02*
X16913099Y-21764974D01*
X16913099Y-21650688D02*
X16922623Y-21641164D01*
X16922623Y-21641164D02*
X16941670Y-21631640D01*
X16941670Y-21631640D02*
X16970242Y-21631640D01*
X16970242Y-21631640D02*
X16989289Y-21641164D01*
X16989289Y-21641164D02*
X16998813Y-21660212D01*
X16998813Y-21660212D02*
X16998813Y-21764974D01*
X17122623Y-21764974D02*
X17103575Y-21755450D01*
X17103575Y-21755450D02*
X17094051Y-21745926D01*
X17094051Y-21745926D02*
X17084527Y-21726878D01*
X17084527Y-21726878D02*
X17084527Y-21669736D01*
X17084527Y-21669736D02*
X17094051Y-21650688D01*
X17094051Y-21650688D02*
X17103575Y-21641164D01*
X17103575Y-21641164D02*
X17122623Y-21631640D01*
X17122623Y-21631640D02*
X17151194Y-21631640D01*
X17151194Y-21631640D02*
X17170242Y-21641164D01*
X17170242Y-21641164D02*
X17179766Y-21650688D01*
X17179766Y-21650688D02*
X17189289Y-21669736D01*
X17189289Y-21669736D02*
X17189289Y-21726878D01*
X17189289Y-21726878D02*
X17179766Y-21745926D01*
X17179766Y-21745926D02*
X17170242Y-21755450D01*
X17170242Y-21755450D02*
X17151194Y-21764974D01*
X17151194Y-21764974D02*
X17122623Y-21764974D01*
X17246432Y-21631640D02*
X17322623Y-21631640D01*
X17275004Y-21564974D02*
X17275004Y-21736402D01*
X17275004Y-21736402D02*
X17284527Y-21755450D01*
X17284527Y-21755450D02*
X17303575Y-21764974D01*
X17303575Y-21764974D02*
X17322623Y-21764974D01*
X17541670Y-21631640D02*
X17541670Y-21831640D01*
X17541670Y-21641164D02*
X17560718Y-21631640D01*
X17560718Y-21631640D02*
X17598813Y-21631640D01*
X17598813Y-21631640D02*
X17617861Y-21641164D01*
X17617861Y-21641164D02*
X17627385Y-21650688D01*
X17627385Y-21650688D02*
X17636908Y-21669736D01*
X17636908Y-21669736D02*
X17636908Y-21726878D01*
X17636908Y-21726878D02*
X17627385Y-21745926D01*
X17627385Y-21745926D02*
X17617861Y-21755450D01*
X17617861Y-21755450D02*
X17598813Y-21764974D01*
X17598813Y-21764974D02*
X17560718Y-21764974D01*
X17560718Y-21764974D02*
X17541670Y-21755450D01*
X17751194Y-21764974D02*
X17732147Y-21755450D01*
X17732147Y-21755450D02*
X17722623Y-21736402D01*
X17722623Y-21736402D02*
X17722623Y-21564974D01*
X17913099Y-21764974D02*
X17913099Y-21660212D01*
X17913099Y-21660212D02*
X17903575Y-21641164D01*
X17903575Y-21641164D02*
X17884528Y-21631640D01*
X17884528Y-21631640D02*
X17846432Y-21631640D01*
X17846432Y-21631640D02*
X17827385Y-21641164D01*
X17913099Y-21755450D02*
X17894051Y-21764974D01*
X17894051Y-21764974D02*
X17846432Y-21764974D01*
X17846432Y-21764974D02*
X17827385Y-21755450D01*
X17827385Y-21755450D02*
X17817861Y-21736402D01*
X17817861Y-21736402D02*
X17817861Y-21717355D01*
X17817861Y-21717355D02*
X17827385Y-21698307D01*
X17827385Y-21698307D02*
X17846432Y-21688783D01*
X17846432Y-21688783D02*
X17894051Y-21688783D01*
X17894051Y-21688783D02*
X17913099Y-21679259D01*
X17979766Y-21631640D02*
X18055956Y-21631640D01*
X18008337Y-21564974D02*
X18008337Y-21736402D01*
X18008337Y-21736402D02*
X18017861Y-21755450D01*
X18017861Y-21755450D02*
X18036908Y-21764974D01*
X18036908Y-21764974D02*
X18055956Y-21764974D01*
X18198813Y-21755450D02*
X18179766Y-21764974D01*
X18179766Y-21764974D02*
X18141670Y-21764974D01*
X18141670Y-21764974D02*
X18122623Y-21755450D01*
X18122623Y-21755450D02*
X18113099Y-21736402D01*
X18113099Y-21736402D02*
X18113099Y-21660212D01*
X18113099Y-21660212D02*
X18122623Y-21641164D01*
X18122623Y-21641164D02*
X18141670Y-21631640D01*
X18141670Y-21631640D02*
X18179766Y-21631640D01*
X18179766Y-21631640D02*
X18198813Y-21641164D01*
X18198813Y-21641164D02*
X18208337Y-21660212D01*
X18208337Y-21660212D02*
X18208337Y-21679259D01*
X18208337Y-21679259D02*
X18113099Y-21698307D01*
X18379766Y-21764974D02*
X18379766Y-21564974D01*
X18379766Y-21755450D02*
X18360718Y-21764974D01*
X18360718Y-21764974D02*
X18322623Y-21764974D01*
X18322623Y-21764974D02*
X18303575Y-21755450D01*
X18303575Y-21755450D02*
X18294051Y-21745926D01*
X18294051Y-21745926D02*
X18284528Y-21726878D01*
X18284528Y-21726878D02*
X18284528Y-21669736D01*
X18284528Y-21669736D02*
X18294051Y-21650688D01*
X18294051Y-21650688D02*
X18303575Y-21641164D01*
X18303575Y-21641164D02*
X18322623Y-21631640D01*
X18322623Y-21631640D02*
X18360718Y-21631640D01*
X18360718Y-21631640D02*
X18379766Y-21641164D01*
X18455956Y-21841164D02*
X18465480Y-21831640D01*
X18465480Y-21831640D02*
X18484528Y-21803069D01*
X18484528Y-21803069D02*
X18494051Y-21784021D01*
X18494051Y-21784021D02*
X18503575Y-21755450D01*
X18503575Y-21755450D02*
X18513099Y-21707831D01*
X18513099Y-21707831D02*
X18513099Y-21669736D01*
X18513099Y-21669736D02*
X18503575Y-21622117D01*
X18503575Y-21622117D02*
X18494051Y-21593545D01*
X18494051Y-21593545D02*
X18484528Y-21574498D01*
X18484528Y-21574498D02*
X18465480Y-21545926D01*
X18465480Y-21545926D02*
X18455956Y-21536402D01*
M02*
