%TF.GenerationSoftware,KiCad,Pcbnew,7.0.7+dfsg-1*%
%TF.CreationDate,2024-02-08T22:24:17-07:00*%
%TF.ProjectId,Keyboard,4b657962-6f61-4726-942e-6b696361645f,v1.0.0*%
%TF.SameCoordinates,Original*%
%TF.FileFunction,Paste,Top*%
%TF.FilePolarity,Positive*%
%FSLAX46Y46*%
G04 Gerber Fmt 4.6, Leading zero omitted, Abs format (unit mm)*
G04 Created by KiCad (PCBNEW 7.0.7+dfsg-1) date 2024-02-08 22:24:17*
%MOMM*%
%LPD*%
G01*
G04 APERTURE LIST*
G04 Aperture macros list*
%AMRotRect*
0 Rectangle, with rotation*
0 The origin of the aperture is its center*
0 $1 length*
0 $2 width*
0 $3 Rotation angle, in degrees counterclockwise*
0 Add horizontal line*
21,1,$1,$2,0,0,$3*%
G04 Aperture macros list end*
%ADD10RotRect,0.900000X1.200000X87.000000*%
%ADD11RotRect,0.900000X1.200000X86.000000*%
%ADD12C,2.000000*%
%ADD13RotRect,0.900000X1.200000X89.000000*%
%ADD14RotRect,0.900000X1.200000X88.000000*%
%ADD15RotRect,0.900000X1.200000X85.000000*%
%ADD16RotRect,0.900000X1.200000X84.000000*%
%ADD17RotRect,0.900000X1.200000X83.000000*%
%ADD18RotRect,0.900000X1.200000X82.000000*%
%ADD19RotRect,0.900000X1.200000X77.000000*%
%ADD20RotRect,0.900000X1.200000X73.000000*%
%ADD21RotRect,0.900000X1.200000X74.000000*%
%ADD22RotRect,0.900000X1.200000X75.000000*%
%ADD23RotRect,0.900000X1.200000X76.000000*%
%ADD24RotRect,0.900000X1.200000X70.000000*%
%ADD25RotRect,0.900000X1.200000X71.000000*%
%ADD26RotRect,0.900000X1.200000X72.000000*%
%ADD27RotRect,0.900000X1.200000X67.000000*%
%ADD28RotRect,0.900000X1.200000X68.000000*%
%ADD29RotRect,0.900000X1.200000X69.000000*%
%ADD30RotRect,0.900000X1.200000X52.000000*%
G04 APERTURE END LIST*
D10*
%TO.C,D3*%
X138300361Y-84637698D03*
X138473069Y-81342220D03*
%TD*%
D11*
%TO.C,D4*%
X139278699Y-64396581D03*
X139508895Y-61104619D03*
%TD*%
D12*
%TO.C,S1*%
X133064777Y-114478379D03*
X121478141Y-116476468D03*
%TD*%
%TO.C,S2*%
X133523120Y-94141343D03*
X121903377Y-95936914D03*
%TD*%
%TO.C,S3*%
X134336324Y-73815405D03*
X122687013Y-75407909D03*
%TD*%
%TO.C,S4*%
X135504139Y-53506754D03*
X123828810Y-54895708D03*
%TD*%
%TO.C,S5*%
X154968507Y-111663262D03*
X143293178Y-113052216D03*
%TD*%
%TO.C,S6*%
X156490580Y-91378086D03*
X144792789Y-92563065D03*
%TD*%
%TO.C,S7*%
X158366447Y-71122563D03*
X146649756Y-72103208D03*
%TD*%
%TO.C,S8*%
X160595535Y-50902863D03*
X148863515Y-51678874D03*
%TD*%
%TO.C,S9*%
X177346728Y-105075433D03*
X165602951Y-105646573D03*
%TD*%
%TO.C,S10*%
X180185859Y-84873965D03*
X168442082Y-85445105D03*
%TD*%
%TO.C,S11*%
X171281213Y-65243636D03*
X183024990Y-64672496D03*
%TD*%
%TO.C,S12*%
X185864122Y-44471028D03*
X174120345Y-45042168D03*
%TD*%
%TO.C,S13*%
X199612350Y-105486284D03*
X187863483Y-105031713D03*
%TD*%
%TO.C,S14*%
X204201352Y-85609135D03*
X192452485Y-85154564D03*
%TD*%
%TO.C,S15*%
X208790353Y-65731985D03*
X197041486Y-65277414D03*
%TD*%
%TO.C,S16*%
X213379355Y-45854836D03*
X201630488Y-45400265D03*
%TD*%
%TO.C,S17*%
X220325879Y-113596628D03*
X208637341Y-112323605D03*
%TD*%
%TO.C,S18*%
X226206926Y-94003712D03*
X214497952Y-92934877D03*
%TD*%
%TO.C,S19*%
X231745134Y-74311143D03*
X220019289Y-73446820D03*
%TD*%
%TO.C,S20*%
X236938817Y-54524917D03*
X225199673Y-53865369D03*
%TD*%
%TO.C,S21*%
X239564618Y-125288119D03*
X227958724Y-123405110D03*
%TD*%
%TO.C,S22*%
X246463020Y-106029844D03*
X234826030Y-104349673D03*
%TD*%
%TO.C,S23*%
X253024268Y-86654109D03*
X241359728Y-85177287D03*
%TD*%
%TO.C,S24*%
X259246363Y-67166817D03*
X247557825Y-65893794D03*
%TD*%
%TO.C,S25*%
X263923177Y-138038491D03*
X252431737Y-135550657D03*
%TD*%
%TO.C,S26*%
X271820024Y-119167644D03*
X260286916Y-116880742D03*
%TD*%
%TO.C,S27*%
X279386327Y-100161851D03*
X267815064Y-98076579D03*
%TD*%
%TO.C,S28*%
X286619782Y-81026904D03*
X275013888Y-79143895D03*
%TD*%
%TO.C,S29*%
X209173568Y-163886995D03*
X219629547Y-169264261D03*
%TD*%
%TO.C,S30*%
X221733062Y-147811576D03*
X232189041Y-153188842D03*
%TD*%
%TO.C,S31*%
X225248988Y-176446489D03*
X235704967Y-181823755D03*
%TD*%
%TO.C,S32*%
X237808482Y-160371070D03*
X248264461Y-165748336D03*
%TD*%
D13*
%TO.C,D1*%
X137404093Y-125155737D03*
X137461685Y-121856239D03*
%TD*%
D14*
%TO.C,D2*%
X137675429Y-104892807D03*
X137790597Y-101594817D03*
%TD*%
D11*
%TO.C,D5*%
X158743066Y-122553090D03*
X158973262Y-119261128D03*
%TD*%
D15*
%TO.C,D6*%
X160074511Y-102332129D03*
X160362125Y-99044687D03*
%TD*%
D16*
%TO.C,D7*%
X161758657Y-82137486D03*
X162103601Y-78855564D03*
%TD*%
D17*
%TO.C,D8*%
X163794992Y-61975311D03*
X164197160Y-58699909D03*
%TD*%
D18*
%TO.C,D9*%
X180352455Y-116202033D03*
X180811727Y-112934149D03*
%TD*%
%TO.C,D10*%
X183191587Y-96000564D03*
X183650859Y-92732680D03*
%TD*%
%TO.C,D11*%
X186030718Y-75799096D03*
X186489990Y-72531212D03*
%TD*%
%TO.C,D12*%
X188869849Y-55597627D03*
X189329121Y-52329743D03*
%TD*%
D19*
%TO.C,D13*%
X201636894Y-116832511D03*
X202379232Y-113617089D03*
%TD*%
%TO.C,D14*%
X206225895Y-96955361D03*
X206968233Y-93739939D03*
%TD*%
%TO.C,D15*%
X210814896Y-77078212D03*
X211557234Y-73862790D03*
%TD*%
%TO.C,D16*%
X215403898Y-57201063D03*
X216146236Y-53985641D03*
%TD*%
D20*
%TO.C,D17*%
X221554018Y-125056441D03*
X222518844Y-121900635D03*
%TD*%
D21*
%TO.C,D18*%
X227634879Y-105440346D03*
X228544483Y-102268182D03*
%TD*%
D22*
%TO.C,D19*%
X233372468Y-85721113D03*
X234226570Y-82533557D03*
%TD*%
D23*
%TO.C,D20*%
X238765033Y-65904748D03*
X239563375Y-62702772D03*
%TD*%
D24*
%TO.C,D21*%
X240191314Y-136796502D03*
X241319980Y-133695516D03*
%TD*%
D25*
%TO.C,D22*%
X247290470Y-117525538D03*
X248364844Y-114405326D03*
%TD*%
D26*
%TO.C,D23*%
X254052218Y-98133611D03*
X255071974Y-94995125D03*
%TD*%
D20*
%TO.C,D24*%
X260474502Y-78626629D03*
X261439328Y-75470823D03*
%TD*%
D27*
%TO.C,D25*%
X263946711Y-149563900D03*
X265236123Y-146526234D03*
%TD*%
D28*
%TO.C,D26*%
X272044701Y-130690887D03*
X273280903Y-127631181D03*
%TD*%
D29*
%TO.C,D27*%
X279812079Y-111679419D03*
X280994693Y-108598603D03*
%TD*%
D24*
%TO.C,D28*%
X287246477Y-92535287D03*
X288375143Y-89434301D03*
%TD*%
D30*
%TO.C,D29*%
X216669285Y-180403044D03*
X218700967Y-177802608D03*
%TD*%
%TO.C,D30*%
X229228779Y-164327625D03*
X231260461Y-161727189D03*
%TD*%
%TO.C,D31*%
X232744704Y-192962538D03*
X234776386Y-190362102D03*
%TD*%
%TO.C,D32*%
X245304198Y-176887119D03*
X247335880Y-174286683D03*
%TD*%
M02*
