M48
; DRILL file {KiCad 7.0.7+dfsg-1} date Thu 08 Feb 2024 10:23:53 PM MST
; FORMAT={-:-/ absolute / metric / decimal}
; #@! TF.CreationDate,2024-02-08T22:23:53-07:00
; #@! TF.GenerationSoftware,Kicad,Pcbnew,7.0.7+dfsg-1
; #@! TF.FileFunction,NonPlated,1,2,NPTH
FMAT,2
METRIC
; #@! TA.AperFunction,NonPlated,NPTH,ComponentDrill
T1C1.500
; #@! TA.AperFunction,NonPlated,NPTH,ComponentDrill
T2C1.702
; #@! TA.AperFunction,NonPlated,NPTH,ComponentDrill
T3C3.000
; #@! TA.AperFunction,NonPlated,NPTH,ComponentDrill
T4C3.429
%
G90
G05
T1
X257.502Y-163.171
X258.401Y-161.054
X263.946Y-165.907
X264.845Y-163.789
T2
X124.187Y-120.274
X124.546Y-99.781
X125.262Y-79.298
X126.335Y-58.83
X135.186Y-120.466
X135.539Y-100.165
X136.247Y-79.874
X137.309Y-59.597
X145.8Y-116.987
X147.23Y-96.541
X149.018Y-76.123
X151.161Y-55.739
X156.773Y-117.754
X158.189Y-97.499
X159.957Y-77.273
X162.079Y-57.08
X167.829Y-109.746
X170.668Y-89.545
X173.507Y-69.343
X176.346Y-49.142
X178.722Y-111.277
X181.561Y-91.076
X184.4Y-70.874
X187.239Y-50.673
X189.724Y-109.31
X194.313Y-89.433
X198.902Y-69.556
X200.442Y-111.784
X203.491Y-49.678
X205.031Y-91.907
X209.052Y-168.55
X209.62Y-72.03
X210.195Y-116.721
X214.209Y-52.153
X216.132Y-97.305
X217.72Y-175.323
X220.714Y-119.937
X221.611Y-152.475
X221.729Y-77.787
X225.127Y-181.11
X226.706Y-100.337
X226.985Y-58.175
X229.284Y-127.878
X230.279Y-159.247
X232.354Y-80.634
X233.795Y-187.882
X236.229Y-108.799
X237.658Y-60.836
X237.686Y-165.035
X239.62Y-131.64
X242.84Y-89.601
X246.355Y-171.807
X246.63Y-112.38
X249.115Y-70.291
X253.302Y-93.0
X253.521Y-140.087
X259.635Y-73.507
X261.455Y-121.397
X263.646Y-144.385
X269.062Y-102.572
X271.654Y-125.518
X276.339Y-83.617
X279.331Y-106.514
X286.676Y-87.379
T3
X124.753Y-116.534
X125.176Y-96.051
X125.958Y-75.579
X127.096Y-55.124
X129.79Y-114.421
X129.79Y-114.421
X130.25Y-94.027
X130.25Y-94.027
X131.066Y-73.644
X131.066Y-73.644
X132.237Y-53.278
X132.237Y-53.278
X134.751Y-116.708
X135.17Y-96.4
X135.944Y-76.103
X137.071Y-55.822
X146.56Y-113.281
X148.055Y-92.849
X149.907Y-72.446
X151.701Y-111.435
X151.701Y-111.435
X152.114Y-52.078
X153.228Y-91.093
X153.228Y-91.093
X155.109Y-70.78
X155.109Y-70.78
X156.536Y-113.978
X157.345Y-50.504
X157.345Y-50.504
X158.017Y-93.72
X159.852Y-73.491
X162.04Y-53.297
X168.846Y-106.102
X171.685Y-85.901
X174.104Y-104.62
X174.104Y-104.62
X174.524Y-65.699
X176.943Y-84.418
X176.943Y-84.418
X177.363Y-45.498
X178.749Y-107.494
X179.782Y-64.217
X179.782Y-64.217
X181.588Y-87.293
X182.621Y-44.015
X182.621Y-44.015
X184.427Y-67.091
X187.266Y-46.89
X191.055Y-105.768
X195.644Y-85.891
X196.421Y-104.75
X196.421Y-104.75
X200.233Y-66.014
X200.798Y-108.018
X201.01Y-84.872
X201.01Y-84.872
X204.822Y-46.137
X205.387Y-88.141
X205.599Y-64.995
X205.599Y-64.995
X209.976Y-68.264
X210.188Y-45.118
X210.188Y-45.118
X211.754Y-165.903
X211.769Y-113.281
X214.565Y-48.386
X217.049Y-167.248
X217.049Y-167.248
X217.194Y-112.639
X217.194Y-112.639
X217.646Y-93.838
X219.634Y-172.06
X221.332Y-116.205
X223.059Y-93.101
X223.059Y-93.101
X223.183Y-74.294
X224.314Y-149.828
X227.259Y-96.594
X227.83Y-178.463
X228.377Y-54.658
X228.582Y-73.464
X228.582Y-73.464
X229.608Y-151.173
X229.608Y-151.173
X231.036Y-124.525
X232.194Y-155.984
X232.842Y-76.883
X233.124Y-179.807
X233.124Y-179.807
X233.761Y-53.733
X233.761Y-53.733
X235.71Y-184.619
X236.487Y-124.168
X236.487Y-124.168
X237.923Y-105.416
X238.08Y-57.077
X240.389Y-162.387
X240.433Y-127.945
X243.366Y-104.964
X243.366Y-104.964
X244.474Y-86.189
X245.684Y-163.732
X245.684Y-163.732
X247.378Y-108.672
X248.269Y-168.544
X249.91Y-85.642
X249.91Y-85.642
X250.69Y-66.851
X253.985Y-89.279
X255.446Y-136.83
X256.114Y-66.209
X256.114Y-66.209
X260.253Y-69.775
X260.909Y-136.759
X260.909Y-136.759
X263.323Y-118.108
X264.651Y-140.738
X268.783Y-117.941
X268.783Y-117.941
X270.873Y-99.25
X272.595Y-121.854
X276.329Y-98.988
X276.329Y-98.988
X278.091Y-80.264
X280.208Y-102.834
X283.542Y-79.907
X283.542Y-79.907
X287.488Y-83.684
T4
X129.686Y-120.37
X130.042Y-99.973
X130.754Y-79.586
X131.822Y-59.214
X151.286Y-117.37
X152.709Y-97.02
X154.487Y-76.698
X156.62Y-56.409
X173.276Y-110.512
X176.115Y-90.31
X178.954Y-70.109
X181.793Y-49.907
X195.083Y-110.547
X199.672Y-90.67
X204.261Y-70.793
X208.85Y-50.916
X213.386Y-171.937
X215.454Y-118.329
X221.419Y-98.821
X225.945Y-155.861
X227.042Y-79.211
X229.461Y-184.496
X232.322Y-59.506
X234.452Y-129.759
X241.429Y-110.589
X242.021Y-168.421
X248.071Y-91.301
X254.375Y-71.899
X258.584Y-142.236
X266.555Y-123.458
X274.197Y-104.543
X281.507Y-85.498
T0
M30
