0
SECTION
2
HEADER
9
$INSUNITS
70
4
0
ENDSEC
0
SECTION
2
TABLES
0
TABLE
2
LTYPE
0
LTYPE
72
65
70
64
2
CONTINUOUS
3
______
73
0
40
0
0
ENDTAB
0
TABLE
2
LAYER
0
ENDTAB
0
ENDSEC
0
SECTION
2
ENTITIES
0
LINE
8
0
10
62.4894248
20
-53.628653
11
-9.0592621
21
-17.1468071
0
LINE
8
0
10
-14.5096614
20
-7.8605273
11
-11.6657934
21
67.4155229
0
LINE
8
0
10
-2.1023781
20
77.028774
11
27.6667826
21
78.3084099
0
LINE
8
0
10
29.7032125
20
78.6079814
11
52.6949589
21
84.4581344
0
LINE
8
0
10
55.5981588
20
84.7573651
11
80.8849054
21
83.650482
0
LINE
8
0
10
83.8736415
20
83.0548441
11
105.4119663
21
75.2003474
0
LINE
8
0
10
106.8241743
20
74.5571952
11
128.5797996
21
62.5298159
0
LINE
8
0
10
129.2899958
20
62.1732702
11
162.1365128
21
47.2863984
0
LINE
8
0
10
167.4719756
20
34.9468476
11
140.5445095
21
-43.9142471
0
LINE
8
0
10
138.2339393
20
-47.6711068
11
108.5292695
21
-78.0760036
0
LINE
8
0
10
95.2197003
20
-78.9678896
11
64.1035675
21
-54.6573023
0
ARC
8
0
10
-4.5167902
20
-8.2380503
40
10
50
177.8364383
51
242.9834923
0
ARC
8
0
10
-1.6729221
20
67.0379999
40
10
50
92.4613586
51
177.8364383
0
ARC
8
0
10
27.2373266
20
88.299184
40
10
50
272.4613586
51
284.2757338
0
ARC
8
0
10
55.1608448
20
74.7669318
40
10
50
87.493576
51
104.2757338
0
ARC
8
0
10
80.4475913
20
73.6600487
40
10
50
69.9643347
51
87.493576
0
ARC
8
0
10
101.9859162
20
65.805552
40
10
50
61.0644287
51
69.9643347
0
ARC
8
0
10
133.4180577
20
71.2814591
40
10
50
241.0644287
51
245.6187621
0
ARC
8
0
10
158.0084509
20
38.1782095
40
10
50
341.1473052
51
65.6187621
0
ARC
8
0
10
131.0809848
20
-40.6828852
40
10
50
315.6674182
51
341.1473052
0
ARC
8
0
10
101.376315
20
-71.087782
40
10
50
232.0000005
51
315.6674182
0
ARC
8
0
10
57.9469528
20
-62.5374099
40
10
50
52.0000005
51
62.9834923
0
ENDSEC
0
EOF