0
SECTION
2
HEADER
9
$INSUNITS
70
4
0
ENDSEC
0
SECTION
2
TABLES
0
TABLE
2
LTYPE
0
LTYPE
72
65
70
64
2
CONTINUOUS
3
______
73
0
40
0
0
ENDTAB
0
TABLE
2
LAYER
0
ENDTAB
0
ENDSEC
0
SECTION
2
ENTITIES
0
LINE
8
0
10
-9.1469747
20
-8.3416338
11
8.8502838
21
-8.6557771
0
LINE
8
0
10
8.8502838
20
-8.6557771
11
9.1469747
21
8.3416338
0
LINE
8
0
10
9.1469747
20
8.3416338
11
-8.8502838
21
8.6557771
0
LINE
8
0
10
-8.8502838
20
8.6557771
11
-9.1469747
21
-8.3416338
0
LINE
8
0
10
-8.9351341
20
12.2161664
11
9.0539008
21
11.5879755
0
LINE
8
0
10
9.0539008
20
11.5879755
11
9.6471923
21
28.5776196
0
LINE
8
0
10
9.6471923
20
28.5776196
11
-8.3418426
21
29.2058105
0
LINE
8
0
10
-8.3418426
20
29.2058105
11
-8.9351341
21
12.2161664
0
LINE
8
0
10
-8.3645426
20
32.7671385
11
9.610789
21
31.8250912
0
LINE
8
0
10
9.610789
20
31.8250912
11
10.5005002
21
48.8017933
0
LINE
8
0
10
10.5005002
20
48.8017933
11
-7.4748314
21
49.7438406
0
LINE
8
0
10
-7.4748314
20
49.7438406
11
-8.3645426
21
32.7671385
0
LINE
8
0
10
-7.4353742
20
53.3050222
11
10.5207787
21
52.0494057
0
LINE
8
0
10
10.5207787
20
52.0494057
11
11.7066388
21
69.0079946
0
LINE
8
0
10
11.7066388
20
69.0079946
11
-6.2495141
21
70.2636111
0
LINE
8
0
10
-6.2495141
20
70.2636111
11
-7.4353742
21
53.3050222
0
LINE
8
0
10
12.0289935
20
-4.8514862
11
29.9851464
21
-6.1071027
0
LINE
8
0
10
29.9851464
20
-6.1071027
11
31.1710065
21
10.8514862
0
LINE
8
0
10
31.1710065
20
10.8514862
11
13.2148536
21
12.1071027
0
LINE
8
0
10
13.2148536
20
12.1071027
11
12.0289935
21
-4.8514862
0
LINE
8
0
10
13.316456
20
15.6670534
11
31.2479606
21
14.09825
0
LINE
8
0
10
31.2479606
20
14.09825
11
32.7296082
21
31.0335598
0
LINE
8
0
10
32.7296082
20
31.0335598
11
14.7981036
21
32.6023632
0
LINE
8
0
10
14.7981036
20
32.6023632
11
13.316456
21
15.6670534
0
LINE
8
0
10
14.9618203
20
36.1599985
11
32.8632144
21
34.2784861
0
LINE
8
0
10
32.8632144
20
34.2784861
11
34.6401983
21
51.1853583
0
LINE
8
0
10
34.6401983
20
51.1853583
11
16.7388042
21
53.0668707
0
LINE
8
0
10
16.7388042
20
53.0668707
11
14.9618203
21
36.1599985
0
LINE
8
0
10
16.9645852
20
56.6211069
11
34.8304159
21
54.4274587
0
LINE
8
0
10
34.8304159
20
54.4274587
11
36.9021948
21
71.3007433
0
LINE
8
0
10
36.9021948
20
71.3007433
11
19.0363641
21
73.4943915
0
LINE
8
0
10
19.0363641
20
73.4943915
11
16.9645852
21
56.6211069
0
LINE
8
0
10
33.4937016
20
2.6938589
11
51.3185269
21
0.1887431
0
LINE
8
0
10
51.3185269
20
0.1887431
11
53.6844696
21
17.0233003
0
LINE
8
0
10
53.6844696
20
17.0233003
11
35.8596443
21
19.5284161
0
LINE
8
0
10
35.8596443
20
19.5284161
11
33.4937016
21
2.6938589
0
LINE
8
0
10
36.3328329
20
22.8953275
11
54.1576582
21
20.3902117
0
LINE
8
0
10
54.1576582
20
20.3902117
11
56.5236009
21
37.2247689
0
LINE
8
0
10
56.5236009
20
37.2247689
11
38.6987756
21
39.7298847
0
LINE
8
0
10
38.6987756
20
39.7298847
11
36.3328329
21
22.8953275
0
LINE
8
0
10
39.1719642
20
43.0967961
11
56.9967895
21
40.5916803
0
LINE
8
0
10
56.9967895
20
40.5916803
11
59.3627322
21
57.4262375
0
LINE
8
0
10
59.3627322
20
57.4262375
11
41.5379069
21
59.9313533
0
LINE
8
0
10
41.5379069
20
59.9313533
11
39.1719642
21
43.0967961
0
LINE
8
0
10
42.0110955
20
63.2982647
11
59.8359208
21
60.7931489
0
LINE
8
0
10
59.8359208
20
60.7931489
11
62.2018635
21
77.6277061
0
LINE
8
0
10
62.2018635
20
77.6277061
11
44.3770382
21
80.1328219
0
LINE
8
0
10
44.3770382
20
80.1328219
11
42.0110955
21
63.2982647
0
LINE
8
0
10
54.7149807
20
3.5656588
11
72.2536418
21
-0.4834601
0
LINE
8
0
10
72.2536418
20
-0.4834601
11
76.0778097
21
16.080831
0
LINE
8
0
10
76.0778097
20
16.080831
11
58.5391486
21
20.1299499
0
LINE
8
0
10
58.5391486
20
20.1299499
11
54.7149807
21
3.5656588
0
LINE
8
0
10
59.3039822
20
23.4428081
11
76.8426433
21
19.3936892
0
LINE
8
0
10
76.8426433
20
19.3936892
11
80.6668112
21
35.9579803
0
LINE
8
0
10
80.6668112
20
35.9579803
11
63.1281501
21
40.0070992
0
LINE
8
0
10
63.1281501
20
40.0070992
11
59.3039822
21
23.4428081
0
LINE
8
0
10
63.8929837
20
43.3199574
11
81.4316448
21
39.2708385
0
LINE
8
0
10
81.4316448
20
39.2708385
11
85.2558127
21
55.8351296
0
LINE
8
0
10
85.2558127
20
55.8351296
11
67.7171516
21
59.8842485
0
LINE
8
0
10
67.7171516
20
59.8842485
11
63.8929837
21
43.3199574
0
LINE
8
0
10
68.4819852
20
63.1971067
11
86.0206463
21
59.1479878
0
LINE
8
0
10
86.0206463
20
59.1479878
11
89.8448142
21
75.7122789
0
LINE
8
0
10
89.8448142
20
75.7122789
11
72.3061531
21
79.7613978
0
LINE
8
0
10
72.3061531
20
79.7613978
11
68.4819852
21
63.1971067
0
LINE
8
0
10
74.6760331
20
-3.4560533
11
91.8895187
21
-8.718744
0
LINE
8
0
10
91.8895187
20
-8.718744
11
96.8598377
21
7.5384369
0
LINE
8
0
10
96.8598377
20
7.5384369
11
79.6463521
21
12.8011276
0
LINE
8
0
10
79.6463521
20
12.8011276
11
74.6760331
21
-3.4560533
0
LINE
8
0
10
80.7380454
20
15.8598206
11
98.0407559
21
10.8983482
0
LINE
8
0
10
98.0407559
20
10.8983482
11
102.726591
21
27.239797
0
LINE
8
0
10
102.726591
20
27.239797
11
85.4238805
21
32.2012694
0
LINE
8
0
10
85.4238805
20
32.2012694
11
80.7380454
21
15.8598206
0
LINE
8
0
10
86.462026
20
35.2785493
11
103.8486909
21
30.6198065
0
LINE
8
0
10
103.8486909
20
30.6198065
11
108.2486146
21
47.0405455
0
LINE
8
0
10
108.2486146
20
47.0405455
11
90.8619497
21
51.6992883
0
LINE
8
0
10
90.8619497
20
51.6992883
11
86.462026
21
35.2785493
0
LINE
8
0
10
91.8462312
20
54.7942177
11
109.3115542
21
50.4396236
0
LINE
8
0
10
109.3115542
20
50.4396236
11
113.4242264
21
66.9346509
0
LINE
8
0
10
113.4242264
20
66.9346509
11
95.9589034
21
71.289245
0
LINE
8
0
10
95.9589034
20
71.289245
11
91.8462312
21
54.7942177
0
LINE
8
0
10
93.4012665
20
-14.2980639
11
110.3157337
21
-20.4544265
0
LINE
8
0
10
110.3157337
20
-20.4544265
11
116.1300761
21
-4.4796519
0
LINE
8
0
10
116.1300761
20
-4.4796519
11
99.2156089
21
1.6767107
0
LINE
8
0
10
99.2156089
20
1.6767107
11
93.4012665
21
-14.2980639
0
LINE
8
0
10
100.4658857
20
4.6740771
11
117.4852201
21
-1.1861497
0
LINE
8
0
10
117.4852201
20
-1.1861497
11
123.0198787
21
14.8876661
0
LINE
8
0
10
123.0198787
20
14.8876661
11
106.0005443
21
20.7478929
0
LINE
8
0
10
106.0005443
20
20.7478929
11
100.4658857
21
4.6740771
0
LINE
8
0
10
107.1983195
20
23.7666231
11
124.3173368
21
18.2043172
0
LINE
8
0
10
124.3173368
20
18.2043172
11
129.5706257
21
34.3722779
0
LINE
8
0
10
129.5706257
20
34.3722779
11
112.4516084
21
39.9345838
0
LINE
8
0
10
112.4516084
20
39.9345838
11
107.1983195
21
23.7666231
0
LINE
8
0
10
113.596517
20
42.9737583
11
130.8100026
21
37.7110676
0
LINE
8
0
10
130.8100026
20
37.7110676
11
135.7803216
21
53.9682485
0
LINE
8
0
10
135.7803216
20
53.9682485
11
118.566836
21
59.2309392
0
LINE
8
0
10
118.566836
20
59.2309392
11
113.596517
21
42.9737583
0
LINE
8
0
10
117.2914805
20
-26.1732448
11
133.8605679
21
-33.2064051
0
LINE
8
0
10
133.8605679
20
-33.2064051
11
140.5029971
21
-17.5578226
0
LINE
8
0
10
140.5029971
20
-17.5578226
11
123.9339097
21
-10.5246623
0
LINE
8
0
10
123.9339097
20
-10.5246623
11
117.2914805
21
-26.1732448
0
LINE
8
0
10
125.3393431
20
-7.5968381
11
142.0286524
21
-14.3397568
0
LINE
8
0
10
142.0286524
20
-14.3397568
11
148.3969645
21
1.4223687
0
LINE
8
0
10
148.3969645
20
1.4223687
11
131.7076552
21
8.1652874
0
LINE
8
0
10
131.7076552
20
8.1652874
11
125.3393431
21
-7.5968381
0
LINE
8
0
10
133.0617769
20
11.1171938
11
149.8662246
21
4.6665707
0
LINE
8
0
10
149.8662246
20
4.6665707
11
155.9584797
21
20.537438
0
LINE
8
0
10
155.9584797
20
20.537438
11
139.154032
21
26.9880611
0
LINE
8
0
10
139.154032
20
26.9880611
11
133.0617769
21
11.1171938
0
LINE
8
0
10
140.4564297
20
29.9631506
11
157.3708969
21
23.806788
0
LINE
8
0
10
157.3708969
20
23.806788
11
163.1852393
21
39.7815626
0
LINE
8
0
10
163.1852393
20
39.7815626
11
146.2707721
21
45.9379252
0
LINE
8
0
10
146.2707721
20
45.9379252
11
140.4564297
21
29.9631506
0
LINE
8
0
10
71.3739731
20
-52.7234564
11
85.5581666
21
-63.805363
0
LINE
8
0
10
85.5581666
20
-63.805363
11
96.0244117
21
-50.4091802
0
LINE
8
0
10
96.0244117
20
-50.4091802
11
81.8402182
21
-39.3272736
0
LINE
8
0
10
81.8402182
20
-39.3272736
11
71.3739731
21
-52.7234564
0
LINE
8
0
10
83.9334672
20
-36.648037
11
98.1176607
21
-47.7299436
0
LINE
8
0
10
98.1176607
20
-47.7299436
11
108.5839058
21
-34.3337608
0
LINE
8
0
10
108.5839058
20
-34.3337608
11
94.3997123
21
-23.2518542
0
LINE
8
0
10
94.3997123
20
-23.2518542
11
83.9334672
21
-36.648037
0
LINE
8
0
10
87.4493925
20
-65.2829505
11
101.633586
21
-76.3648571
0
LINE
8
0
10
101.633586
20
-76.3648571
11
112.0998311
21
-62.9686743
0
LINE
8
0
10
112.0998311
20
-62.9686743
11
97.9156376
21
-51.8867677
0
LINE
8
0
10
97.9156376
20
-51.8867677
11
87.4493925
21
-65.2829505
0
LINE
8
0
10
100.0088866
20
-49.2075311
11
114.1930801
21
-60.2894377
0
LINE
8
0
10
114.1930801
20
-60.2894377
11
124.6593252
21
-46.8932549
0
LINE
8
0
10
124.6593252
20
-46.8932549
11
110.4751317
21
-35.8113483
0
LINE
8
0
10
110.4751317
20
-35.8113483
11
100.0088866
21
-49.2075311
0
ENDSEC
0
EOF